<svg viewBox="0 0 595.5 595.5" font-family="Z003" width="100%" height="100%" xmlns="http://www.w3.org/2000/svg">

<style>
* {
  stroke-width: 0.75;
  --color: #9B111E;
}

text {
  font-family: Z003;
  font-size: 10.0px;
  text-anchor: middle;
  dominant-baseline: middle;
  fill: var(--color);
}

line,
circle,
polygon,
path {
  fill: none;
  stroke: var(--color);
}

path {
  stroke: yellow;
}

.debug {
  fill: none;
  stroke: yellow;
}

</style>
<defs>
<symbol id="sigil_begin" viewBox="-30.0 -30.0 60.0 60.0" width="60.0" height="60.0">
<polygon points="1.4695761589768238e-15,-24.0 14.106846055019355,19.41640786499874 -22.825356391083687,-7.416407864998735 22.825356391083684,-7.416407864998737 -14.106846055019354,19.41640786499874"/>
</symbol>
<symbol id="sigil_true" viewBox="-30.0 -30.0 60.0 60.0" width="60.0" height="60.0">
<text>
T
</text>
<polygon points="9.18485099360515e-16 -15.0 12.99038105676658 7.499999999999997 -12.990381056766577 7.500000000000005" transform="translate(0,1.5)"/>
</symbol>
<symbol id="sigil_false" viewBox="-30.0 -30.0 60.0 60.0" width="60.0" height="60.0">
<text>
F
</text>
<polygon points="9.18485099360515e-16 -15.0 12.99038105676658 7.499999999999997 -12.990381056766577 7.500000000000005" transform="translate(0,1.5)"/>
</symbol>
<symbol id="sigil_nil" viewBox="-30.0 -30.0 60.0 60.0" width="60.0" height="60.0">
<text>
N
</text>
<polygon points="9.18485099360515e-16 -15.0 12.99038105676658 7.499999999999997 -12.990381056766577 7.500000000000005" transform="translate(0,1.5)"/>
</symbol>
<symbol id="sigil_unknown" viewBox="-30.0 -30.0 60.0 60.0" width="60.0" height="60.0">
<circle r="15.0"/>
</symbol>
</defs>
<g class="ring library " transform="translate(297.75,297.75)">
<text>
functions
</text>
<circle r="19.25"/>
<circle r="49.25"/>
<g transform="rotate(-90)">
<circle stroke-dasharray="12.880529879718152 309.1327171132356" transform="rotate(0)rotate(-7.200000000000001)" r="51.25"/>
<text transform="rotate(-90.0) translate(0,34.25)">
L
</text>
<use href="#sigil_begin" transform="rotate(-90.0) translate(0,34.25) translate(-30.0, -30.0)"/>
<circle stroke-dasharray="12.880529879718152 309.1327171132356" transform="rotate(-44)rotate(-7.200000000000001)" r="51.25"/>
<text transform="rotate(-133.2) translate(0,34.25)">
S
</text>
<g class="ring spell def" transform="rotate(-133.2)translate(0,119.75)">
<text>
fact
</text>
<circle r="10.5"/>
<circle r="40.5"/>
<g transform="rotate(-90)">
<line x1="0" y1="42.5" x2="0" y2="68.5" transform="rotate(-90)"/>
<circle stroke-dasharray="89.01179185171081 178.0235837034216" transform="rotate(0)rotate(-59.99999999999999)" r="42.5"/>
<text transform="rotate(-90.0) translate(0,25.5)">
S
</text>
<use href="#sigil_begin" transform="rotate(-90.0) translate(0,25.5) translate(-30.0, -30.0)"/>
</g>
</g>
<circle stroke-dasharray="12.880529879718152 309.1327171132356" transform="rotate(-87)rotate(-7.200000000000001)" r="51.25"/>
<text transform="rotate(-176.4) translate(0,34.25)">
S
</text>
<g class="ring spell def" transform="rotate(-176.4)translate(0,128.5)">
<text>
fibonacci
</text>
<circle r="19.25"/>
<circle r="49.25"/>
<g transform="rotate(-90)">
<line x1="0" y1="51.25" x2="0" y2="77.25" transform="rotate(-90)"/>
<circle stroke-dasharray="107.33774899765126 214.67549799530252" transform="rotate(0)rotate(-59.99999999999999)" r="51.25"/>
<text transform="rotate(-90.0) translate(0,34.25)">
S
</text>
<use href="#sigil_begin" transform="rotate(-90.0) translate(0,34.25) translate(-30.0, -30.0)"/>
</g>
</g>
<circle stroke-dasharray="0.0 322.0132469929538" transform="rotate(-130)rotate(7.200000000000001)" r="51.25"/>
<use href="#sigil_unknown" transform="rotate(-219.60000000000002) translate(0,34.25) translate(-30.0, -30.0)"/>
<circle stroke-dasharray="51.52211951887261 270.49112747408117" transform="rotate(-159)rotate(-50.400000000000006)" r="51.25"/>
<text transform="rotate(-248.39999999999998) translate(0,34.25)">
p
</text>
<text transform="rotate(-262.8) translate(0,34.25)">
u
</text>
<text transform="rotate(-277.20000000000005) translate(0,34.25)">
t
</text>
<text transform="rotate(-291.6) translate(0,34.25)">
s
</text>
<use href="#sigil_unknown" transform="rotate(-277.20000000000005) translate(0,34.25) translate(-30.0, -30.0)"/>
<circle stroke-dasharray="0.0 322.0132469929538" transform="rotate(-245)rotate(7.200000000000001)" r="51.25"/>
<use href="#sigil_unknown" transform="rotate(-334.80000000000007) translate(0,34.25) translate(-30.0, -30.0)"/>
<circle stroke-dasharray="51.52211951887261 270.49112747408117" transform="rotate(-274)rotate(-50.400000000000006)" r="51.25"/>
<text transform="rotate(-363.59999999999997) translate(0,34.25)">
p
</text>
<text transform="rotate(-378.0) translate(0,34.25)">
u
</text>
<text transform="rotate(-392.40000000000003) translate(0,34.25)">
t
</text>
<text transform="rotate(-406.79999999999995) translate(0,34.25)">
s
</text>
<use href="#sigil_unknown" transform="rotate(-392.40000000000003) translate(0,34.25) translate(-30.0, -30.0)"/>
</g>
</g>
</svg>
