<svg viewBox="-242.17342102751704 -210.13358141632892 352.14323497997117 289.139923181238" font-family="Z003" width="100%" height="100%" xmlns="http://www.w3.org/2000/svg">

<style>
* {
  stroke-width: 0.75;
  --color: #9B111E;
}

text {
  font-family: Z003;
  font-size: 10.0px;
  text-anchor: middle;
  dominant-baseline: middle;
  fill: var(--color);
}

line,
circle,
polygon,
path {
  fill: none;
  stroke: var(--color);
}

.debug {
  fill: none;
  stroke: yellow;
}

text.debug {
  fill: yellow;
  font-family: sans-serif;
  font-size: 10px;
  text-anchor: start;
  dominant-baseline: hanging;
}

</style>
<defs>
<symbol id="sigil_begin" viewBox="-25.0 -25.0 50.0 50.0" width="50.0" height="50.0">
<path d="M1.2246467991473533e-15,-20.0 L1.2246467991473533e-15,-20.0 L11.755705045849464,16.18033988749895 L-19.021130325903073,-6.1803398874989455 L19.02113032590307,-6.180339887498948 L-11.75570504584946,16.18033988749895 Z"/>
</symbol>
<symbol id="sigil_true" viewBox="-25.0 -25.0 50.0 50.0" width="50.0" height="50.0">
<text>
T
</text>
<g transform="translate(0,1.5)">
<path d="M7.654042494670958e-16,-12.5 L7.654042494670958e-16,-12.5 L10.825317547305485,6.249999999999998 L-10.825317547305481,6.250000000000004 Z"/>
</g>
</symbol>
<symbol id="sigil_false" viewBox="-25.0 -25.0 50.0 50.0" width="50.0" height="50.0">
<text>
F
</text>
<g transform="translate(0,1.5)">
<path d="M7.654042494670958e-16,-12.5 L7.654042494670958e-16,-12.5 L10.825317547305485,6.249999999999998 L-10.825317547305481,6.250000000000004 Z"/>
</g>
</symbol>
<symbol id="sigil_nil" viewBox="-25.0 -25.0 50.0 50.0" width="50.0" height="50.0">
<text>
N
</text>
<g transform="translate(0,1.5)">
<path d="M7.654042494670958e-16,-12.5 L7.654042494670958e-16,-12.5 L10.825317547305485,6.249999999999998 L-10.825317547305481,6.250000000000004 Z"/>
</g>
</symbol>
<symbol id="sigil_unknown" viewBox="-25.0 -25.0 50.0 50.0" width="50.0" height="50.0">
<circle r="12.5"/>
</symbol>
</defs>
<g class="ring library " transform="">
<text>
class
</text>
<circle r="44.00634176490907"/>
<circle r="69.00634176490907"/>
<g transform="rotate(-90)">
<circle stroke-dasharray="11.294835526426555 434.85116776742234" transform="rotate(0)rotate(-4.556962025316456)" r="71.00634176490907"/>
<text transform="rotate(-90.0) translate(0,56.50634176490907)">
L
</text>
<use href="#sigil_begin" transform="rotate(-90.0) translate(0,56.50634176490907) translate(-25.0, -25.0)"/>
<circle stroke-dasharray="39.53192434249294 406.61407895135596" transform="rotate(-14)rotate(-27.341772151898738)" r="71.00634176490907"/>
<text transform="rotate(-103.67088607594937) translate(0,56.50634176490907)">
:
</text>
<text transform="rotate(-108.22784810126582) translate(0,56.50634176490907)">
P
</text>
<text transform="rotate(-112.78481012658227) translate(0,56.50634176490907)">
e
</text>
<text transform="rotate(-117.34177215189874) translate(0,56.50634176490907)">
r
</text>
<text transform="rotate(-121.89873417721519) translate(0,56.50634176490907)">
s
</text>
<text transform="rotate(-126.45569620253164) translate(0,56.50634176490907)">
o
</text>
<text transform="rotate(-131.0126582278481) translate(0,56.50634176490907)">
n
</text>
<g class="ring grimoire class" transform="rotate(-117.34177215189874)translate(0,155.7711336191369)">
<text>
Person
</text>
<path d="M2.2511942332799395e-15,-36.76479185422782 L2.2511942332799395e-15,-36.76479185422782 L25.99663362903644,25.996633629036435 L-36.76479185422782,4.502388466559879e-15 L25.99663362903644,-25.996633629036435 L2.2511942332799395e-15,36.76479185422782 L-25.996633629036445,-25.996633629036435 L36.76479185422782,0.0 L-25.996633629036435,25.99663362903644 Z"/>
<circle r="36.76479185422782"/>
<circle r="61.76479185422782"/>
<g transform="rotate(-90)">
<line x1="0" y1="63.76479185422782" x2="0" y2="84.76479185422782" transform="rotate(-90)"/>
<circle stroke-dasharray="12.140787978601479 388.50521531524737" transform="rotate(0)rotate(-5.454545454545455)" r="63.76479185422782"/>
<text transform="rotate(-90.0) translate(0,49.26479185422782)">
G
</text>
<use href="#sigil_begin" transform="rotate(-90.0) translate(0,49.26479185422782) translate(-25.0, -25.0)"/>
<circle stroke-dasharray="66.77433388230814 333.87166941154067" transform="rotate(-17)rotate(-54.54545454545455)" r="63.76479185422782"/>
<text transform="rotate(-106.36363636363636) translate(0,49.26479185422782)">
:
</text>
<text transform="rotate(-111.81818181818181) translate(0,49.26479185422782)">
i
</text>
<text transform="rotate(-117.27272727272728) translate(0,49.26479185422782)">
n
</text>
<text transform="rotate(-122.72727272727272) translate(0,49.26479185422782)">
i
</text>
<text transform="rotate(-128.1818181818182) translate(0,49.26479185422782)">
t
</text>
<text transform="rotate(-133.63636363636363) translate(0,49.26479185422782)">
i
</text>
<text transform="rotate(-139.0909090909091) translate(0,49.26479185422782)">
a
</text>
<text transform="rotate(-144.54545454545456) translate(0,49.26479185422782)">
l
</text>
<text transform="rotate(-150.0) translate(0,49.26479185422782)">
i
</text>
<text transform="rotate(-155.45454545454544) translate(0,49.26479185422782)">
z
</text>
<text transform="rotate(-160.9090909090909) translate(0,49.26479185422782)">
e
</text>
<g class="ring spell def" transform="rotate(-133.63636363636363)translate(0,132.76479185422784)">
<text>
initialize
</text>
<circle r="21.0"/>
<circle r="46.0"/>
<g transform="rotate(-90)">
<line x1="0" y1="48.0" x2="0" y2="69.0" transform="rotate(-90)"/>
<circle stroke-dasharray="201.06192982974676 100.53096491487338" transform="rotate(0)rotate(-119.99999999999999)" r="48.0"/>
<text transform="rotate(-90.0) translate(0,33.5)">
S
</text>
<use href="#sigil_begin" transform="rotate(-90.0) translate(0,33.5) translate(-25.0, -25.0)"/>
</g>
</g>
<circle stroke-dasharray="6.070393989300739 394.5756093045481" transform="rotate(-82)rotate(0.0)" r="63.76479185422782"/>
<use href="#sigil_unknown" transform="rotate(-171.8181818181818) translate(0,49.26479185422782) translate(-25.0, -25.0)"/>
<circle stroke-dasharray="84.98551585021035 315.6604874436385" transform="rotate(-93)rotate(-70.9090909090909)" r="63.76479185422782"/>
<text transform="rotate(-182.72727272727275) translate(0,49.26479185422782)">
a
</text>
<text transform="rotate(-188.1818181818182) translate(0,49.26479185422782)">
t
</text>
<text transform="rotate(-193.63636363636363) translate(0,49.26479185422782)">
t
</text>
<text transform="rotate(-199.0909090909091) translate(0,49.26479185422782)">
r
</text>
<text transform="rotate(-204.54545454545456) translate(0,49.26479185422782)">
_
</text>
<text transform="rotate(-210.0) translate(0,49.26479185422782)">
a
</text>
<text transform="rotate(-215.45454545454544) translate(0,49.26479185422782)">
c
</text>
<text transform="rotate(-220.9090909090909) translate(0,49.26479185422782)">
c
</text>
<text transform="rotate(-226.36363636363637) translate(0,49.26479185422782)">
e
</text>
<text transform="rotate(-231.8181818181818) translate(0,49.26479185422782)">
s
</text>
<text transform="rotate(-237.27272727272728) translate(0,49.26479185422782)">
s
</text>
<text transform="rotate(-242.72727272727272) translate(0,49.26479185422782)">
o
</text>
<text transform="rotate(-248.1818181818182) translate(0,49.26479185422782)">
r
</text>
<use href="#sigil_unknown" transform="rotate(-215.45454545454544) translate(0,49.26479185422782) translate(-25.0, -25.0)"/>
<circle stroke-dasharray="36.42236393580444 364.22363935804435" transform="rotate(-175)rotate(-27.272727272727273)" r="63.76479185422782"/>
<text transform="rotate(-264.54545454545456) translate(0,49.26479185422782)">
:
</text>
<text transform="rotate(-270.0) translate(0,49.26479185422782)">
n
</text>
<text transform="rotate(-275.4545454545455) translate(0,49.26479185422782)">
a
</text>
<text transform="rotate(-280.9090909090909) translate(0,49.26479185422782)">
m
</text>
<text transform="rotate(-286.3636363636364) translate(0,49.26479185422782)">
e
</text>
<circle stroke-dasharray="30.3519699465037 370.29403334734513" transform="rotate(-213)rotate(-21.81818181818182)" r="63.76479185422782"/>
<text transform="rotate(-302.7272727272727) translate(0,49.26479185422782)">
:
</text>
<text transform="rotate(-308.1818181818182) translate(0,49.26479185422782)">
a
</text>
<text transform="rotate(-313.6363636363636) translate(0,49.26479185422782)">
g
</text>
<text transform="rotate(-319.0909090909091) translate(0,49.26479185422782)">
e
</text>
<circle stroke-dasharray="60.7039398930074 339.94206340084145" transform="rotate(-246)rotate(-49.0909090909091)" r="63.76479185422782"/>
<text transform="rotate(-335.4545454545455) translate(0,49.26479185422782)">
:
</text>
<text transform="rotate(-340.9090909090909) translate(0,49.26479185422782)">
i
</text>
<text transform="rotate(-346.3636363636364) translate(0,49.26479185422782)">
n
</text>
<text transform="rotate(-351.8181818181818) translate(0,49.26479185422782)">
t
</text>
<text transform="rotate(-357.27272727272725) translate(0,49.26479185422782)">
r
</text>
<text transform="rotate(-362.72727272727275) translate(0,49.26479185422782)">
o
</text>
<text transform="rotate(-368.1818181818182) translate(0,49.26479185422782)">
d
</text>
<text transform="rotate(-373.6363636363636) translate(0,49.26479185422782)">
u
</text>
<text transform="rotate(-379.0909090909091) translate(0,49.26479185422782)">
c
</text>
<text transform="rotate(-384.54545454545456) translate(0,49.26479185422782)">
e
</text>
<g class="ring spell def" transform="rotate(-360.0)translate(0,131.01479185422784)">
<text>
introduce
</text>
<circle r="19.25"/>
<circle r="44.25"/>
<g transform="rotate(-90)">
<line x1="0" y1="46.25" x2="0" y2="67.25" transform="rotate(-90)"/>
<circle stroke-dasharray="52.83587644673742 237.76144401031843" transform="rotate(0)rotate(-32.72727272727273)" r="46.25"/>
<text transform="rotate(-90.0) translate(0,31.75)">
S
</text>
<use href="#sigil_begin" transform="rotate(-90.0) translate(0,31.75) translate(-25.0, -25.0)"/>
<circle stroke-dasharray="26.41793822336871 264.17938223368714" transform="rotate(-99)rotate(0.0)" r="46.25"/>
<use href="#sigil_unknown" transform="rotate(-188.1818181818182) translate(0,31.75) translate(-25.0, -25.0)"/>
<circle stroke-dasharray="132.08969111684357 158.50762934021228" transform="rotate(-164)rotate(-130.9090909090909)" r="46.25"/>
<text transform="rotate(-253.63636363636365) translate(0,31.75)">
p
</text>
<text transform="rotate(-286.3636363636364) translate(0,31.75)">
u
</text>
<text transform="rotate(-319.0909090909091) translate(0,31.75)">
t
</text>
<text transform="rotate(-351.8181818181818) translate(0,31.75)">
s
</text>
<use href="#sigil_unknown" transform="rotate(-319.0909090909091) translate(0,31.75) translate(-25.0, -25.0)"/>
</g>
</g>
<circle stroke-dasharray="54.633545903706654 346.0124573901422" transform="rotate(-306)rotate(-43.63636363636364)" r="63.76479185422782"/>
<text transform="rotate(-395.45454545454544) translate(0,49.26479185422782)">
:
</text>
<text transform="rotate(-400.9090909090909) translate(0,49.26479185422782)">
b
</text>
<text transform="rotate(-406.3636363636364) translate(0,49.26479185422782)">
i
</text>
<text transform="rotate(-411.8181818181818) translate(0,49.26479185422782)">
r
</text>
<text transform="rotate(-417.27272727272725) translate(0,49.26479185422782)">
t
</text>
<text transform="rotate(-422.7272727272727) translate(0,49.26479185422782)">
h
</text>
<text transform="rotate(-428.18181818181813) translate(0,49.26479185422782)">
d
</text>
<text transform="rotate(-433.6363636363637) translate(0,49.26479185422782)">
a
</text>
<text transform="rotate(-439.0909090909091) translate(0,49.26479185422782)">
y
</text>
<g class="ring spell def" transform="rotate(-417.27272727272725)translate(0,129.26479185422784)">
<text>
birthday
</text>
<circle r="17.5"/>
<circle r="42.5"/>
<g transform="rotate(-90)">
<line x1="0" y1="44.5" x2="0" y2="65.5" transform="rotate(-90)"/>
<circle stroke-dasharray="50.83668112172575 228.76506504776586" transform="rotate(0)rotate(-32.72727272727273)" r="44.5"/>
<text transform="rotate(-90.0) translate(0,30.0)">
S
</text>
<use href="#sigil_begin" transform="rotate(-90.0) translate(0,30.0) translate(-25.0, -25.0)"/>
<circle stroke-dasharray="25.418340560862877 254.18340560862873" transform="rotate(-99)rotate(0.0)" r="44.5"/>
<use href="#sigil_unknown" transform="rotate(-188.1818181818182) translate(0,30.0) translate(-25.0, -25.0)"/>
<circle stroke-dasharray="127.09170280431437 152.51004336517724" transform="rotate(-164)rotate(-130.9090909090909)" r="44.5"/>
<text transform="rotate(-253.63636363636365) translate(0,30.0)">
p
</text>
<text transform="rotate(-286.3636363636364) translate(0,30.0)">
u
</text>
<text transform="rotate(-319.0909090909091) translate(0,30.0)">
t
</text>
<text transform="rotate(-351.8181818181818) translate(0,30.0)">
s
</text>
<use href="#sigil_unknown" transform="rotate(-319.0909090909091) translate(0,30.0) translate(-25.0, -25.0)"/>
</g>
</g>
</g>
</g>
<circle stroke-dasharray="62.121595395346034 384.02440789850283" transform="rotate(-51)rotate(-45.56962025316455)" r="71.00634176490907"/>
<text transform="rotate(-140.126582278481) translate(0,56.50634176490907)">
(
</text>
<text transform="rotate(-144.68354430379748) translate(0,56.50634176490907)">
l
</text>
<text transform="rotate(-149.24050632911394) translate(0,56.50634176490907)">
v
</text>
<text transform="rotate(-153.79746835443038) translate(0,56.50634176490907)">
a
</text>
<text transform="rotate(-158.35443037974682) translate(0,56.50634176490907)">
r
</text>
<text transform="rotate(-162.91139240506328) translate(0,56.50634176490907)">
 
</text>
<text transform="rotate(-167.46835443037975) translate(0,56.50634176490907)">
:
</text>
<text transform="rotate(-172.0253164556962) translate(0,56.50634176490907)">
m
</text>
<text transform="rotate(-176.58227848101268) translate(0,56.50634176490907)">
e
</text>
<text transform="rotate(-181.13924050632912) translate(0,56.50634176490907)">
)
</text>
<use href="#sigil_unknown" transform="rotate(-162.91139240506328) translate(0,56.50634176490907) translate(-25.0, -25.0)"/>
<circle stroke-dasharray="56.47417763213277 389.6718256617161" transform="rotate(-105)rotate(-41.01265822784811)" r="71.00634176490907"/>
<text transform="rotate(-194.81012658227849) translate(0,56.50634176490907)">
i
</text>
<text transform="rotate(-199.36708860759495) translate(0,56.50634176490907)">
n
</text>
<text transform="rotate(-203.92405063291142) translate(0,56.50634176490907)">
t
</text>
<text transform="rotate(-208.48101265822788) translate(0,56.50634176490907)">
r
</text>
<text transform="rotate(-213.0379746835443) translate(0,56.50634176490907)">
o
</text>
<text transform="rotate(-217.59493670886076) translate(0,56.50634176490907)">
d
</text>
<text transform="rotate(-222.15189873417722) translate(0,56.50634176490907)">
u
</text>
<text transform="rotate(-226.70886075949363) translate(0,56.50634176490907)">
c
</text>
<text transform="rotate(-231.26582278481013) translate(0,56.50634176490907)">
e
</text>
<use href="#sigil_unknown" transform="rotate(-213.0379746835443) translate(0,56.50634176490907) translate(-25.0, -25.0)"/>
<circle stroke-dasharray="62.121595395346034 384.02440789850283" transform="rotate(-155)rotate(-45.56962025316455)" r="71.00634176490907"/>
<text transform="rotate(-244.93670886075952) translate(0,56.50634176490907)">
(
</text>
<text transform="rotate(-249.49367088607596) translate(0,56.50634176490907)">
l
</text>
<text transform="rotate(-254.05063291139243) translate(0,56.50634176490907)">
v
</text>
<text transform="rotate(-258.6075949367089) translate(0,56.50634176490907)">
a
</text>
<text transform="rotate(-263.16455696202536) translate(0,56.50634176490907)">
r
</text>
<text transform="rotate(-267.72151898734177) translate(0,56.50634176490907)">
 
</text>
<text transform="rotate(-272.27848101265823) translate(0,56.50634176490907)">
:
</text>
<text transform="rotate(-276.83544303797464) translate(0,56.50634176490907)">
m
</text>
<text transform="rotate(-281.3924050632911) translate(0,56.50634176490907)">
e
</text>
<text transform="rotate(-285.9493670886076) translate(0,56.50634176490907)">
)
</text>
<use href="#sigil_unknown" transform="rotate(-267.72151898734177) translate(0,56.50634176490907) translate(-25.0, -25.0)"/>
<circle stroke-dasharray="50.826759868919495 395.31924342492937" transform="rotate(-210)rotate(-36.45569620253164)" r="71.00634176490907"/>
<text transform="rotate(-299.62025316455697) translate(0,56.50634176490907)">
b
</text>
<text transform="rotate(-304.17721518987344) translate(0,56.50634176490907)">
i
</text>
<text transform="rotate(-308.7341772151899) translate(0,56.50634176490907)">
r
</text>
<text transform="rotate(-313.2911392405063) translate(0,56.50634176490907)">
t
</text>
<text transform="rotate(-317.84810126582283) translate(0,56.50634176490907)">
h
</text>
<text transform="rotate(-322.4050632911392) translate(0,56.50634176490907)">
d
</text>
<text transform="rotate(-326.96202531645577) translate(0,56.50634176490907)">
a
</text>
<text transform="rotate(-331.5189873417721) translate(0,56.50634176490907)">
y
</text>
<use href="#sigil_unknown" transform="rotate(-317.84810126582283) translate(0,56.50634176490907) translate(-25.0, -25.0)"/>
<circle stroke-dasharray="62.121595395346034 384.02440789850283" transform="rotate(-256)rotate(-45.56962025316455)" r="71.00634176490907"/>
<text transform="rotate(-345.1898734177215) translate(0,56.50634176490907)">
(
</text>
<text transform="rotate(-349.7468354430379) translate(0,56.50634176490907)">
l
</text>
<text transform="rotate(-354.30379746835445) translate(0,56.50634176490907)">
v
</text>
<text transform="rotate(-358.86075949367086) translate(0,56.50634176490907)">
a
</text>
<text transform="rotate(-363.41772151898726) translate(0,56.50634176490907)">
r
</text>
<text transform="rotate(-367.97468354430384) translate(0,56.50634176490907)">
 
</text>
<text transform="rotate(-372.53164556962025) translate(0,56.50634176490907)">
:
</text>
<text transform="rotate(-377.0886075949367) translate(0,56.50634176490907)">
m
</text>
<text transform="rotate(-381.6455696202532) translate(0,56.50634176490907)">
e
</text>
<text transform="rotate(-386.2025316455696) translate(0,56.50634176490907)">
)
</text>
<use href="#sigil_unknown" transform="rotate(-367.97468354430384) translate(0,56.50634176490907) translate(-25.0, -25.0)"/>
<circle stroke-dasharray="56.47417763213277 389.6718256617161" transform="rotate(-310)rotate(-41.01265822784811)" r="71.00634176490907"/>
<text transform="rotate(-399.87341772151905) translate(0,56.50634176490907)">
i
</text>
<text transform="rotate(-404.43037974683546) translate(0,56.50634176490907)">
n
</text>
<text transform="rotate(-408.9873417721519) translate(0,56.50634176490907)">
t
</text>
<text transform="rotate(-413.5443037974684) translate(0,56.50634176490907)">
r
</text>
<text transform="rotate(-418.10126582278485) translate(0,56.50634176490907)">
o
</text>
<text transform="rotate(-422.6582278481013) translate(0,56.50634176490907)">
d
</text>
<text transform="rotate(-427.2151898734177) translate(0,56.50634176490907)">
u
</text>
<text transform="rotate(-431.7721518987342) translate(0,56.50634176490907)">
c
</text>
<text transform="rotate(-436.32911392405066) translate(0,56.50634176490907)">
e
</text>
<use href="#sigil_unknown" transform="rotate(-418.10126582278485) translate(0,56.50634176490907) translate(-25.0, -25.0)"/>
</g>
</g>
</svg>
