<svg viewBox="-277.8527335686135 -230.20829799122674 394.16625019355564 316.50328783779725" font-family="Z003" width="100%" height="100%" xmlns="http://www.w3.org/2000/svg">

<rect x="-277.8527335686135" y="-230.20829799122674" width="394.16625019355564" height="316.50328783779725" class="debug"/>
<circle cx="76.29498984657052" cy="0" r="0.5" class="debug"/>
<circle cx="0" cy="76.29498984657052" r="0.5" class="debug"/>
<circle cx="-76.29498984657052" cy="0" r="0.5" class="debug"/>
<circle cx="0" cy="-76.29498984657052" r="0.5" class="debug"/>
<circle cx="-22.73056599338617" cy="-40.330477985196055" r="0.5" class="debug"/>
<circle cx="-17.477439342714234" cy="-152.01111164917185" r="0.5" class="debug"/>
<circle cx="-85.67462568476913" cy="-83.81392530711696" r="0.5" class="debug"/>
<circle cx="-153.87181202682402" cy="-152.01111164917185" r="0.5" class="debug"/>
<circle cx="-85.67462568476913" cy="-220.20829799122674" r="0.5" class="debug"/>
<circle cx="-49.11814731489662" cy="-140.93641374617206" r="0.5" class="debug"/>
<circle cx="106.31351662494218" cy="-109.02037851139903" r="0.5" class="debug"/>
<circle cx="56.23351662494218" cy="-58.94037851139903" r="0.5" class="debug"/>
<circle cx="6.153516624942185" cy="-109.02037851139903" r="0.5" class="debug"/>
<circle cx="56.23351662494218" cy="-159.10037851139901" r="0.5" class="debug"/>
<circle cx="-119.35495342320891" cy="-133.99277188433925" r="0.5" class="debug"/>
<circle cx="-166.25273356861345" cy="-81.7263031432793" r="0.5" class="debug"/>
<circle cx="-217.05273356861346" cy="-30.9263031432793" r="0.5" class="debug"/>
<circle cx="-267.8527335686135" cy="-81.7263031432793" r="0.5" class="debug"/>
<circle cx="-217.05273356861346" cy="-132.52630314327928" r="0.5" class="debug"/>
<circle cx="-86.59057748433241" cy="-113.8249089477963" r="0.5" class="debug"/>
<circle cx="-40.32147219902113" cy="-4.9762175050931035" r="0.5" class="debug"/>
<circle cx="-89.20147219902113" cy="43.90378249490689" r="0.5" class="debug"/>
<circle cx="-138.0814721990211" cy="-4.9762175050931035" r="0.5" class="debug"/>
<circle cx="-89.20147219902113" cy="-53.8562175050931" r="0.5" class="debug"/>
<style>
* {
  stroke-width: 0.75;
  --color: #9B111E;
}

text {
  font-family: Z003;
  font-size: 12px;
  text-anchor: middle;
  dominant-baseline: middle;
  fill: var(--color);
}

line,
circle,
polygon,
path {
  fill: none;
  stroke: var(--color);
}

.debug {
  fill: none;
  stroke: yellow;
}

text.debug {
  fill: yellow;
  font-family: sans-serif;
  font-size: 10px;
  text-anchor: start;
  dominant-baseline: hanging;
}

</style>
<defs>
<symbol id="sigil_begin" viewBox="-30.0 -30.0 60.0 60.0" width="60.0" height="60.0">
<path d="M1.4695761589768238e-15,-24.0 L1.4695761589768238e-15,-24.0 L14.106846055019355,19.41640786499874 L-22.825356391083687,-7.416407864998735 L22.825356391083684,-7.416407864998737 L-14.106846055019354,19.41640786499874 Z"/>
</symbol>
<symbol id="sigil_true" viewBox="-30.0 -30.0 60.0 60.0" width="60.0" height="60.0">
<text>
T
</text>
<g transform="translate(0,1.5)">
<path d="M9.18485099360515e-16,-15.0 L9.18485099360515e-16,-15.0 L12.99038105676658,7.499999999999997 L-12.990381056766577,7.500000000000005 Z"/>
</g>
</symbol>
<symbol id="sigil_false" viewBox="-30.0 -30.0 60.0 60.0" width="60.0" height="60.0">
<text>
F
</text>
<g transform="translate(0,1.5)">
<path d="M9.18485099360515e-16,-15.0 L9.18485099360515e-16,-15.0 L12.99038105676658,7.499999999999997 L-12.990381056766577,7.500000000000005 Z"/>
</g>
</symbol>
<symbol id="sigil_nil" viewBox="-30.0 -30.0 60.0 60.0" width="60.0" height="60.0">
<text>
N
</text>
<g transform="translate(0,1.5)">
<path d="M9.18485099360515e-16,-15.0 L9.18485099360515e-16,-15.0 L12.99038105676658,7.499999999999997 L-12.990381056766577,7.500000000000005 Z"/>
</g>
</symbol>
<symbol id="sigil_unknown" viewBox="-30.0 -30.0 60.0 60.0" width="60.0" height="60.0">
<circle r="15.0"/>
</symbol>
</defs>
<g class="ring library " transform="">
<text>
class
</text>
<circle r="46.294989846570516"/>
<circle r="76.29498984657052"/>
<g transform="rotate(-90)">
<circle stroke-dasharray="13.462107265693014 478.47982256405373" transform="rotate(0.0)rotate(-8.613861386138614)" r="78.29498984657052"/>
<text transform="rotate(-90.0) translate(0,61.294989846570516)">
L
</text>
<use href="#sigil_begin" transform="rotate(-90.0) translate(0,61.294989846570516) translate(-30.0, -30.0)"/>
<circle stroke-dasharray="49.58655590830643 442.35537392144033" transform="rotate(-11.881188118811881)rotate(-35.049504950495056)" r="78.29498984657052"/>
<text transform="rotate(-101.88118811881188) translate(0,61.294989846570516)">
:
</text>
<text transform="rotate(-105.74257425742574) translate(0,61.294989846570516)">
P
</text>
<text transform="rotate(-113.76237623762377) translate(0,61.294989846570516)">
e
</text>
<text transform="rotate(-118.81188118811882) translate(0,61.294989846570516)">
r
</text>
<text transform="rotate(-123.26732673267327) translate(0,61.294989846570516)">
s
</text>
<text transform="rotate(-128.01980198019803) translate(0,61.294989846570516)">
o
</text>
<text transform="rotate(-133.96039603960395) translate(0,61.294989846570516)">
n
</text>
<g class="ring grimoire class" transform="rotate(-119.4059405940594)translate(0,174.4921761886254)">
<text>
Person
</text>
<path d="M2.3389030995116257e-15,-38.197186342054884 L2.3389030995116257e-15,-38.197186342054884 L27.009489484713185,27.009489484713182 L-38.197186342054884,4.6778061990232514e-15 L27.009489484713185,-27.009489484713182 L2.3389030995116257e-15,38.197186342054884 L-27.009489484713193,-27.009489484713182 L38.197186342054884,0.0 L-27.009489484713182,27.009489484713185 Z"/>
<circle r="38.197186342054884"/>
<circle r="68.19718634205489"/>
<g transform="rotate(-90)">
<line x1="0" y1="70.19718634205489" x2="0" y2="96.19718634205489" transform="rotate(-90)"/>
<circle stroke-dasharray="15.510677865679432 425.5512519640674" transform="rotate(0.0)rotate(-11.16)" r="70.19718634205489"/>
<text transform="rotate(-90.0) translate(0,53.197186342054884)">
G
</text>
<use href="#sigil_begin" transform="rotate(-90.0) translate(0,53.197186342054884) translate(-30.0, -30.0)"/>
<circle stroke-dasharray="71.96660488388702 369.09532494585983" transform="rotate(-15.120000000000001)rotate(-57.24)" r="70.19718634205489"/>
<text transform="rotate(-105.12) translate(0,53.197186342054884)">
:
</text>
<text transform="rotate(-109.8) translate(0,53.197186342054884)">
i
</text>
<text transform="rotate(-114.11999999999999) translate(0,53.197186342054884)">
n
</text>
<text transform="rotate(-122.4) translate(0,53.197186342054884)">
i
</text>
<text transform="rotate(-126.72) translate(0,53.197186342054884)">
t
</text>
<text transform="rotate(-132.48) translate(0,53.197186342054884)">
i
</text>
<text transform="rotate(-136.79999999999998) translate(0,53.197186342054884)">
a
</text>
<text transform="rotate(-144.35999999999999) translate(0,53.197186342054884)">
l
</text>
<text transform="rotate(-148.68) translate(0,53.197186342054884)">
i
</text>
<text transform="rotate(-153.0) translate(0,53.197186342054884)">
z
</text>
<text transform="rotate(-160.92) translate(0,53.197186342054884)">
e
</text>
<g class="ring spell def" transform="rotate(-133.73999999999998)translate(0,148.27718634205488)">
<text>
initialize
</text>
<circle r="20.08"/>
<circle r="50.08"/>
<g transform="rotate(-90)">
<line x1="0" y1="52.08" x2="0" y2="78.08" transform="rotate(-90)"/>
<circle stroke-dasharray="261.4618205885283 65.76647020938452" transform="rotate(0.0)rotate(-243.52941176470586)" r="52.08"/>
<text transform="rotate(-90.0) translate(0,35.08)">
S
</text>
<use href="#sigil_begin" transform="rotate(-90.0) translate(0,35.08) translate(-30.0, -30.0)"/>
</g>
</g>
<circle stroke-dasharray="1.8377580409572782 439.22417178878953" transform="rotate(-76.32)rotate(0.0)" r="70.19718634205489"/>
<use href="#sigil_unknown" transform="rotate(-166.32) translate(0,53.197186342054884) translate(-30.0, -30.0)"/>
<circle stroke-dasharray="104.16412576145854 336.8978040682883" transform="rotate(-80.27999999999999)rotate(-83.52)" r="70.19718634205489"/>
<text transform="rotate(-170.28) translate(0,53.197186342054884)">
a
</text>
<text transform="rotate(-177.84) translate(0,53.197186342054884)">
t
</text>
<text transform="rotate(-183.59999999999997) translate(0,53.197186342054884)">
t
</text>
<text transform="rotate(-189.35999999999999) translate(0,53.197186342054884)">
r
</text>
<text transform="rotate(-194.76) translate(0,53.197186342054884)">
_
</text>
<text transform="rotate(-203.76000000000002) translate(0,53.197186342054884)">
a
</text>
<text transform="rotate(-211.32) translate(0,53.197186342054884)">
c
</text>
<text transform="rotate(-217.44) translate(0,53.197186342054884)">
c
</text>
<text transform="rotate(-223.56) translate(0,53.197186342054884)">
e
</text>
<text transform="rotate(-229.68) translate(0,53.197186342054884)">
s
</text>
<text transform="rotate(-235.43999999999997) translate(0,53.197186342054884)">
s
</text>
<text transform="rotate(-241.2) translate(0,53.197186342054884)">
o
</text>
<text transform="rotate(-248.39999999999998) translate(0,53.197186342054884)">
r
</text>
<use href="#sigil_unknown" transform="rotate(-179.28) translate(0,53.197186342054884) translate(-30.0, -30.0)"/>
<circle stroke-dasharray="48.14926067308069 392.91266915666614" transform="rotate(-167.76000000000002)rotate(-37.8)" r="70.19718634205489"/>
<text transform="rotate(-257.76) translate(0,53.197186342054884)">
:
</text>
<text transform="rotate(-262.44) translate(0,53.197186342054884)">
n
</text>
<text transform="rotate(-270.72) translate(0,53.197186342054884)">
a
</text>
<text transform="rotate(-278.28) translate(0,53.197186342054884)">
m
</text>
<text transform="rotate(-289.43999999999994) translate(0,53.197186342054884)">
e
</text>
<circle stroke-dasharray="33.1531550588693 407.9087747708775" transform="rotate(-209.52)rotate(-25.56)" r="70.19718634205489"/>
<text transform="rotate(-299.52) translate(0,53.197186342054884)">
:
</text>
<text transform="rotate(-304.20000000000005) translate(0,53.197186342054884)">
a
</text>
<text transform="rotate(-311.76) translate(0,53.197186342054884)">
g
</text>
<text transform="rotate(-318.96000000000004) translate(0,53.197186342054884)">
e
</text>
<circle stroke-dasharray="74.6129764628655 366.4489533668813" transform="rotate(-239.04000000000002)rotate(-59.40000000000001)" r="70.19718634205489"/>
<text transform="rotate(-329.0400000000001) translate(0,53.197186342054884)">
:
</text>
<text transform="rotate(-333.72) translate(0,53.197186342054884)">
i
</text>
<text transform="rotate(-338.0400000000001) translate(0,53.197186342054884)">
n
</text>
<text transform="rotate(-346.32000000000005) translate(0,53.197186342054884)">
t
</text>
<text transform="rotate(-352.08000000000004) translate(0,53.197186342054884)">
r
</text>
<text transform="rotate(-357.4800000000001) translate(0,53.197186342054884)">
o
</text>
<text transform="rotate(-364.68) translate(0,53.197186342054884)">
d
</text>
<text transform="rotate(-372.6) translate(0,53.197186342054884)">
u
</text>
<text transform="rotate(-380.88000000000005) translate(0,53.197186342054884)">
c
</text>
<text transform="rotate(-387.0) translate(0,53.197186342054884)">
e
</text>
<g class="ring spell def" transform="rotate(-358.74)translate(0,148.99718634205487)">
<text>
introduce
</text>
<circle r="20.8"/>
<circle r="50.8"/>
<g transform="rotate(-90)">
<line x1="0" y1="52.8" x2="0" y2="78.8" transform="rotate(-90)"/>
<circle stroke-dasharray="67.76391732795787 263.9882668911243" transform="rotate(0.0)rotate(-62.25563909774435)" r="52.8"/>
<text transform="rotate(-90.0) translate(0,35.8)">
S
</text>
<use href="#sigil_begin" transform="rotate(-90.0) translate(0,35.8) translate(-30.0, -30.0)"/>
<circle stroke-dasharray="10.39323885398127 321.3589453651009" transform="rotate(-92.03007518796991)rotate(0.0)" r="52.8"/>
<use href="#sigil_unknown" transform="rotate(-182.0300751879699) translate(0,35.8) translate(-30.0, -30.0)"/>
<circle stroke-dasharray="202.46029287555513 129.29189134352703" transform="rotate(-121.80451127819549)rotate(-208.42105263157893)" r="52.8"/>
<text transform="rotate(-211.8045112781955) translate(0,35.8)">
p
</text>
<text transform="rotate(-271.3533834586466) translate(0,35.8)">
u
</text>
<text transform="rotate(-333.609022556391) translate(0,35.8)">
t
</text>
<text transform="rotate(-376.9172932330827) translate(0,35.8)">
s
</text>
<use href="#sigil_unknown" transform="rotate(-234.3609022556391) translate(0,35.8) translate(-30.0, -30.0)"/>
</g>
</g>
<circle stroke-dasharray="67.55598558558954 373.50594424415726" transform="rotate(-302.40000000000003)rotate(-53.639999999999986)" r="70.19718634205489"/>
<text transform="rotate(-392.40000000000003) translate(0,53.197186342054884)">
:
</text>
<text transform="rotate(-397.08000000000004) translate(0,53.197186342054884)">
b
</text>
<text transform="rotate(-404.6400000000001) translate(0,53.197186342054884)">
i
</text>
<text transform="rotate(-408.96000000000004) translate(0,53.197186342054884)">
r
</text>
<text transform="rotate(-414.36) translate(0,53.197186342054884)">
t
</text>
<text transform="rotate(-420.12) translate(0,53.197186342054884)">
h
</text>
<text transform="rotate(-428.04) translate(0,53.197186342054884)">
d
</text>
<text transform="rotate(-435.96) translate(0,53.197186342054884)">
a
</text>
<text transform="rotate(-443.5200000000001) translate(0,53.197186342054884)">
y
</text>
<g class="ring spell def" transform="rotate(-419.22)translate(0,147.0771863420549)">
<text>
birthday
</text>
<circle r="18.88"/>
<circle r="48.879999999999995"/>
<g transform="rotate(-90)">
<line x1="0" y1="50.879999999999995" x2="0" y2="76.88" transform="rotate(-90)"/>
<circle stroke-dasharray="65.29977487966849 254.3886935496288" transform="rotate(0.0)rotate(-62.25563909774435)" r="50.879999999999995"/>
<text transform="rotate(-90.0) translate(0,33.879999999999995)">
S
</text>
<use href="#sigil_begin" transform="rotate(-90.0) translate(0,33.879999999999995) translate(-30.0, -30.0)"/>
<circle stroke-dasharray="10.015302895654678 309.67316553364265" transform="rotate(-92.03007518796991)rotate(0.0)" r="50.879999999999995"/>
<use href="#sigil_unknown" transform="rotate(-182.0300751879699) translate(0,33.879999999999995) translate(-30.0, -30.0)"/>
<circle stroke-dasharray="195.09810040735312 124.59036802194419" transform="rotate(-121.80451127819549)rotate(-208.42105263157893)" r="50.879999999999995"/>
<text transform="rotate(-211.8045112781955) translate(0,33.879999999999995)">
p
</text>
<text transform="rotate(-271.3533834586466) translate(0,33.879999999999995)">
u
</text>
<text transform="rotate(-333.609022556391) translate(0,33.879999999999995)">
t
</text>
<text transform="rotate(-376.9172932330827) translate(0,33.879999999999995)">
s
</text>
<use href="#sigil_unknown" transform="rotate(-234.3609022556391) translate(0,33.879999999999995) translate(-30.0, -30.0)"/>
</g>
</g>
</g>
</g>
<circle stroke-dasharray="69.06940461443503 422.8725252153117" transform="rotate(-50.1980198019802)rotate(-49.30693069306932)" r="78.29498984657052"/>
<text transform="rotate(-140.1980198019802) translate(0,61.294989846570516)">
(
</text>
<text transform="rotate(-144.05940594059405) translate(0,61.294989846570516)">
l
</text>
<text transform="rotate(-147.62376237623764) translate(0,61.294989846570516)">
v
</text>
<text transform="rotate(-154.15841584158417) translate(0,61.294989846570516)">
a
</text>
<text transform="rotate(-160.3960396039604) translate(0,61.294989846570516)">
r
</text>
<text transform="rotate(-164.85148514851485) translate(0,61.294989846570516)">
 
</text>
<text transform="rotate(-168.11881188118812) translate(0,61.294989846570516)">
:
</text>
<text transform="rotate(-171.980198019802) translate(0,61.294989846570516)">
m
</text>
<text transform="rotate(-181.1881188118812) translate(0,61.294989846570516)">
e
</text>
<text transform="rotate(-186.23762376237624) translate(0,61.294989846570516)">
)
</text>
<use href="#sigil_unknown" transform="rotate(-146.3861386138614) translate(0,61.294989846570516) translate(-30.0, -30.0)"/>
<circle stroke-dasharray="68.66351193305734 423.2784178966894" transform="rotate(-102.77227722772278)rotate(-49.00990099009901)" r="78.29498984657052"/>
<text transform="rotate(-192.77227722772278) translate(0,61.294989846570516)">
i
</text>
<text transform="rotate(-196.3366336633663) translate(0,61.294989846570516)">
n
</text>
<text transform="rotate(-203.16831683168317) translate(0,61.294989846570516)">
t
</text>
<text transform="rotate(-207.9207920792079) translate(0,61.294989846570516)">
r
</text>
<text transform="rotate(-212.37623762376236) translate(0,61.294989846570516)">
o
</text>
<text transform="rotate(-218.31683168316835) translate(0,61.294989846570516)">
d
</text>
<text transform="rotate(-224.85148514851485) translate(0,61.294989846570516)">
u
</text>
<text transform="rotate(-231.68316831683168) translate(0,61.294989846570516)">
c
</text>
<text transform="rotate(-236.73267326732673) translate(0,61.294989846570516)">
e
</text>
<use href="#sigil_unknown" transform="rotate(-197.72277227722776) translate(0,61.294989846570516) translate(-30.0, -30.0)"/>
<circle stroke-dasharray="69.06940461443503 422.8725252153117" transform="rotate(-155.04950495049505)rotate(-49.30693069306932)" r="78.29498984657052"/>
<text transform="rotate(-245.04950495049505) translate(0,61.294989846570516)">
(
</text>
<text transform="rotate(-248.9108910891089) translate(0,61.294989846570516)">
l
</text>
<text transform="rotate(-252.47524752475246) translate(0,61.294989846570516)">
v
</text>
<text transform="rotate(-259.009900990099) translate(0,61.294989846570516)">
a
</text>
<text transform="rotate(-265.2475247524752) translate(0,61.294989846570516)">
r
</text>
<text transform="rotate(-269.70297029702965) translate(0,61.294989846570516)">
 
</text>
<text transform="rotate(-272.9702970297029) translate(0,61.294989846570516)">
:
</text>
<text transform="rotate(-276.8316831683169) translate(0,61.294989846570516)">
m
</text>
<text transform="rotate(-286.03960396039605) translate(0,61.294989846570516)">
e
</text>
<text transform="rotate(-291.0891089108911) translate(0,61.294989846570516)">
)
</text>
<use href="#sigil_unknown" transform="rotate(-251.23762376237624) translate(0,61.294989846570516) translate(-30.0, -30.0)"/>
<circle stroke-dasharray="62.169229031014474 429.7727007987323" transform="rotate(-207.62376237623764)rotate(-44.257425742574256)" r="78.29498984657052"/>
<text transform="rotate(-297.6237623762376) translate(0,61.294989846570516)">
b
</text>
<text transform="rotate(-303.86138613861385) translate(0,61.294989846570516)">
i
</text>
<text transform="rotate(-307.42574257425736) translate(0,61.294989846570516)">
r
</text>
<text transform="rotate(-311.8811881188119) translate(0,61.294989846570516)">
t
</text>
<text transform="rotate(-316.6336633663367) translate(0,61.294989846570516)">
h
</text>
<text transform="rotate(-323.1683168316831) translate(0,61.294989846570516)">
d
</text>
<text transform="rotate(-329.7029702970297) translate(0,61.294989846570516)">
a
</text>
<text transform="rotate(-335.94059405940595) translate(0,61.294989846570516)">
y
</text>
<use href="#sigil_unknown" transform="rotate(-302.57425742574253) translate(0,61.294989846570516) translate(-30.0, -30.0)"/>
<circle stroke-dasharray="69.06940461443503 422.8725252153117" transform="rotate(-255.14851485148517)rotate(-49.30693069306932)" r="78.29498984657052"/>
<text transform="rotate(-345.1485148514852) translate(0,61.294989846570516)">
(
</text>
<text transform="rotate(-349.009900990099) translate(0,61.294989846570516)">
l
</text>
<text transform="rotate(-352.5742574257426) translate(0,61.294989846570516)">
v
</text>
<text transform="rotate(-359.1089108910891) translate(0,61.294989846570516)">
a
</text>
<text transform="rotate(-365.3465346534653) translate(0,61.294989846570516)">
r
</text>
<text transform="rotate(-369.8019801980198) translate(0,61.294989846570516)">
 
</text>
<text transform="rotate(-373.0693069306931) translate(0,61.294989846570516)">
:
</text>
<text transform="rotate(-376.9306930693069) translate(0,61.294989846570516)">
m
</text>
<text transform="rotate(-386.13861386138615) translate(0,61.294989846570516)">
e
</text>
<text transform="rotate(-391.1881188118812) translate(0,61.294989846570516)">
)
</text>
<use href="#sigil_unknown" transform="rotate(-351.33663366336634) translate(0,61.294989846570516) translate(-30.0, -30.0)"/>
<circle stroke-dasharray="68.66351193305734 423.2784178966894" transform="rotate(-307.7227722772277)rotate(-49.00990099009901)" r="78.29498984657052"/>
<text transform="rotate(-397.7227722772277) translate(0,61.294989846570516)">
i
</text>
<text transform="rotate(-401.28712871287127) translate(0,61.294989846570516)">
n
</text>
<text transform="rotate(-408.1188118811881) translate(0,61.294989846570516)">
t
</text>
<text transform="rotate(-412.8712871287129) translate(0,61.294989846570516)">
r
</text>
<text transform="rotate(-417.32673267326726) translate(0,61.294989846570516)">
o
</text>
<text transform="rotate(-423.2673267326732) translate(0,61.294989846570516)">
d
</text>
<text transform="rotate(-429.80198019801986) translate(0,61.294989846570516)">
u
</text>
<text transform="rotate(-436.6336633663366) translate(0,61.294989846570516)">
c
</text>
<text transform="rotate(-441.68316831683165) translate(0,61.294989846570516)">
e
</text>
<use href="#sigil_unknown" transform="rotate(-402.6732673267326) translate(0,61.294989846570516) translate(-30.0, -30.0)"/>
</g>
</g>
</svg>
