<svg viewBox="0 0 656.0253670596363 656.0253670596363" font-family="Z003" width="100%" height="100%" xmlns="http://www.w3.org/2000/svg">

<style>
* {
  stroke-width: 0.75;
  --color: #9B111E;
}

text {
  font-family: Z003;
  font-size: 10.0px;
  text-anchor: middle;
  dominant-baseline: middle;
  fill: var(--color);
}

line,
circle,
polygon,
path {
  fill: none;
  stroke: var(--color);
}

path {
  stroke: yellow;
}

.debug {
  fill: none;
  stroke: yellow;
}

</style>
<defs>
<symbol id="sigil_begin" viewBox="-30.0 -30.0 60.0 60.0" width="60.0" height="60.0">
<polygon points="1.4695761589768238e-15,-24.0 14.106846055019355,19.41640786499874 -22.825356391083687,-7.416407864998735 22.825356391083684,-7.416407864998737 -14.106846055019354,19.41640786499874"/>
</symbol>
<symbol id="sigil_true" viewBox="-30.0 -30.0 60.0 60.0" width="60.0" height="60.0">
<text>
T
</text>
<polygon points="9.18485099360515e-16 -15.0 12.99038105676658 7.499999999999997 -12.990381056766577 7.500000000000005" transform="translate(0,1.5)"/>
</symbol>
<symbol id="sigil_false" viewBox="-30.0 -30.0 60.0 60.0" width="60.0" height="60.0">
<text>
F
</text>
<polygon points="9.18485099360515e-16 -15.0 12.99038105676658 7.499999999999997 -12.990381056766577 7.500000000000005" transform="translate(0,1.5)"/>
</symbol>
<symbol id="sigil_nil" viewBox="-30.0 -30.0 60.0 60.0" width="60.0" height="60.0">
<text>
N
</text>
<polygon points="9.18485099360515e-16 -15.0 12.99038105676658 7.499999999999997 -12.990381056766577 7.500000000000005" transform="translate(0,1.5)"/>
</symbol>
<symbol id="sigil_unknown" viewBox="-30.0 -30.0 60.0 60.0" width="60.0" height="60.0">
<circle r="15.0"/>
</symbol>
</defs>
<g class="ring library " transform="translate(328.01268352981816,328.01268352981816)">
<text>
class
</text>
<circle r="41.22113026080089"/>
<circle r="71.22113026080089"/>
<g transform="rotate(-90)">
<circle stroke-dasharray="6.217053105807388 453.84487672393936" transform="rotate(0)rotate(-2.4324324324324325)" r="73.22113026080089"/>
<text transform="rotate(-90.0) translate(0,56.22113026080089)">
L
</text>
<use href="#sigil_begin" transform="rotate(-90.0) translate(0,56.22113026080089) translate(-30.0, -30.0)"/>
<circle stroke-dasharray="6.217053105807388 453.84487672393936" transform="rotate(-15)rotate(-2.4324324324324325)" r="73.22113026080089"/>
<text transform="rotate(-104.5945945945946) translate(0,56.22113026080089)">
G
</text>
<g class="ring grimoire class" transform="rotate(-104.5945945945946)translate(0,154.6169068953095)">
<text>
Person
</text>
<polygon points="1.4325781484508705e-15,-23.395776634508614 16.543312309386824,16.543312309386824 -23.395776634508614,2.865156296901741e-15 16.543312309386824,-16.543312309386824 1.4325781484508705e-15,23.395776634508614 -16.543312309386828,-16.543312309386824 23.395776634508614,0.0 -16.543312309386824,16.543312309386824"/>
<circle r="23.395776634508614"/>
<circle r="53.395776634508614"/>
<g transform="rotate(-90)">
<line x1="0" y1="55.395776634508614" x2="0" y2="81.39577663450862" transform="rotate(-90)"/>
<circle stroke-dasharray="8.287188805470162 339.7747410242766" transform="rotate(0)rotate(-4.285714285714286)" r="55.395776634508614"/>
<text transform="rotate(-90.0) translate(0,38.395776634508614)">
G
</text>
<use href="#sigil_begin" transform="rotate(-90.0) translate(0,38.395776634508614) translate(-30.0, -30.0)"/>
<circle stroke-dasharray="8.287188805470162 339.7747410242766" transform="rotate(-26)rotate(-4.285714285714286)" r="55.395776634508614"/>
<text transform="rotate(-115.71428571428572) translate(0,38.395776634508614)">
S
</text>
<g class="ring spell def" transform="rotate(-115.71428571428572)translate(0,134.39577663450862)">
<text>
initialize
</text>
<circle r="21.0"/>
<circle r="51.0"/>
<g transform="rotate(-90)">
<line x1="0" y1="53.0" x2="0" y2="79.0" transform="rotate(-90)"/>
<circle stroke-dasharray="111.00294042683934 222.00588085367872" transform="rotate(0)rotate(-59.99999999999999)" r="53.0"/>
<text transform="rotate(-90.0) translate(0,36.0)">
S
</text>
<use href="#sigil_begin" transform="rotate(-90.0) translate(0,36.0) translate(-30.0, -30.0)"/>
</g>
</g>
<circle stroke-dasharray="0.0 348.06192982974676" transform="rotate(-52)rotate(4.285714285714286)" r="55.395776634508614"/>
<use href="#sigil_unknown" transform="rotate(-141.42857142857144) translate(0,38.395776634508614) translate(-30.0, -30.0)"/>
<circle stroke-dasharray="107.7334544711121 240.32847535863465" transform="rotate(-69)rotate(-107.14285714285715)" r="55.395776634508614"/>
<text transform="rotate(-158.57142857142856) translate(0,38.395776634508614)">
a
</text>
<text transform="rotate(-167.14285714285717) translate(0,38.395776634508614)">
t
</text>
<text transform="rotate(-175.71428571428572) translate(0,38.395776634508614)">
t
</text>
<text transform="rotate(-184.28571428571428) translate(0,38.395776634508614)">
r
</text>
<text transform="rotate(-192.85714285714286) translate(0,38.395776634508614)">
_
</text>
<text transform="rotate(-201.42857142857144) translate(0,38.395776634508614)">
a
</text>
<text transform="rotate(-210.0) translate(0,38.395776634508614)">
c
</text>
<text transform="rotate(-218.57142857142856) translate(0,38.395776634508614)">
c
</text>
<text transform="rotate(-227.14285714285714) translate(0,38.395776634508614)">
e
</text>
<text transform="rotate(-235.71428571428575) translate(0,38.395776634508614)">
s
</text>
<text transform="rotate(-244.2857142857143) translate(0,38.395776634508614)">
s
</text>
<text transform="rotate(-252.85714285714283) translate(0,38.395776634508614)">
o
</text>
<text transform="rotate(-261.42857142857144) translate(0,38.395776634508614)">
r
</text>
<use href="#sigil_unknown" transform="rotate(-210.0) translate(0,38.395776634508614) translate(-30.0, -30.0)"/>
<circle stroke-dasharray="41.4359440273508 306.625985802396" transform="rotate(-198)rotate(-38.57142857142858)" r="55.395776634508614"/>
<text transform="rotate(-287.1428571428571) translate(0,38.395776634508614)">
:
</text>
<text transform="rotate(-295.7142857142857) translate(0,38.395776634508614)">
n
</text>
<text transform="rotate(-304.28571428571433) translate(0,38.395776634508614)">
a
</text>
<text transform="rotate(-312.8571428571429) translate(0,38.395776634508614)">
m
</text>
<text transform="rotate(-321.42857142857144) translate(0,38.395776634508614)">
e
</text>
<circle stroke-dasharray="33.14875522188065 314.9131746078661" transform="rotate(-258)rotate(-30.000000000000004)" r="55.395776634508614"/>
<text transform="rotate(-347.1428571428571) translate(0,38.395776634508614)">
:
</text>
<text transform="rotate(-355.71428571428567) translate(0,38.395776634508614)">
a
</text>
<text transform="rotate(-364.2857142857143) translate(0,38.395776634508614)">
g
</text>
<text transform="rotate(-372.85714285714283) translate(0,38.395776634508614)">
e
</text>
<circle stroke-dasharray="8.287188805470162 339.7747410242766" transform="rotate(-309)rotate(-4.285714285714286)" r="55.395776634508614"/>
<text transform="rotate(-398.5714285714286) translate(0,38.395776634508614)">
S
</text>
<g class="ring spell def" transform="rotate(-398.5714285714286)translate(0,132.64577663450862)">
<text>
introduce
</text>
<circle r="19.25"/>
<circle r="49.25"/>
<g transform="rotate(-90)">
<line x1="0" y1="51.25" x2="0" y2="77.25" transform="rotate(-90)"/>
<circle stroke-dasharray="29.27393154481398 292.7393154481398" transform="rotate(0)rotate(-16.363636363636363)" r="51.25"/>
<text transform="rotate(-90.0) translate(0,34.25)">
S
</text>
<use href="#sigil_begin" transform="rotate(-90.0) translate(0,34.25) translate(-30.0, -30.0)"/>
<circle stroke-dasharray="0.0 322.0132469929538" transform="rotate(-99)rotate(16.363636363636363)" r="51.25"/>
<use href="#sigil_unknown" transform="rotate(-188.1818181818182) translate(0,34.25) translate(-30.0, -30.0)"/>
<circle stroke-dasharray="117.09572617925592 204.91752081369788" transform="rotate(-164)rotate(-114.54545454545455)" r="51.25"/>
<text transform="rotate(-253.63636363636365) translate(0,34.25)">
p
</text>
<text transform="rotate(-286.3636363636364) translate(0,34.25)">
u
</text>
<text transform="rotate(-319.0909090909091) translate(0,34.25)">
t
</text>
<text transform="rotate(-351.8181818181818) translate(0,34.25)">
s
</text>
<use href="#sigil_unknown" transform="rotate(-319.0909090909091) translate(0,34.25) translate(-30.0, -30.0)"/>
</g>
</g>
<circle stroke-dasharray="8.287188805470162 339.7747410242766" transform="rotate(-335)rotate(-4.285714285714286)" r="55.395776634508614"/>
<text transform="rotate(-424.2857142857143) translate(0,38.395776634508614)">
S
</text>
<g class="ring spell def" transform="rotate(-424.2857142857143)translate(0,130.89577663450862)">
<text>
birthday
</text>
<circle r="17.5"/>
<circle r="47.5"/>
<g transform="rotate(-90)">
<line x1="0" y1="49.5" x2="0" y2="75.5" transform="rotate(-90)"/>
<circle stroke-dasharray="28.274333882308138 282.7433388230814" transform="rotate(0)rotate(-16.363636363636363)" r="49.5"/>
<text transform="rotate(-90.0) translate(0,32.5)">
S
</text>
<use href="#sigil_begin" transform="rotate(-90.0) translate(0,32.5) translate(-30.0, -30.0)"/>
<circle stroke-dasharray="0.0 311.01767270538954" transform="rotate(-99)rotate(16.363636363636363)" r="49.5"/>
<use href="#sigil_unknown" transform="rotate(-188.1818181818182) translate(0,32.5) translate(-30.0, -30.0)"/>
<circle stroke-dasharray="113.09733552923255 197.92033717615698" transform="rotate(-164)rotate(-114.54545454545455)" r="49.5"/>
<text transform="rotate(-253.63636363636365) translate(0,32.5)">
p
</text>
<text transform="rotate(-286.3636363636364) translate(0,32.5)">
u
</text>
<text transform="rotate(-319.0909090909091) translate(0,32.5)">
t
</text>
<text transform="rotate(-351.8181818181818) translate(0,32.5)">
s
</text>
<use href="#sigil_unknown" transform="rotate(-319.0909090909091) translate(0,32.5) translate(-30.0, -30.0)"/>
</g>
</g>
</g>
</g>
<circle stroke-dasharray="62.17053105807389 397.89139877167287" transform="rotate(-30)rotate(-46.21621621621622)" r="73.22113026080089"/>
<text transform="rotate(-119.1891891891892) translate(0,56.22113026080089)">
(
</text>
<text transform="rotate(-124.05405405405406) translate(0,56.22113026080089)">
l
</text>
<text transform="rotate(-128.9189189189189) translate(0,56.22113026080089)">
v
</text>
<text transform="rotate(-133.78378378378378) translate(0,56.22113026080089)">
a
</text>
<text transform="rotate(-138.64864864864865) translate(0,56.22113026080089)">
r
</text>
<text transform="rotate(-143.5135135135135) translate(0,56.22113026080089)">
 
</text>
<text transform="rotate(-148.3783783783784) translate(0,56.22113026080089)">
:
</text>
<text transform="rotate(-153.24324324324326) translate(0,56.22113026080089)">
m
</text>
<text transform="rotate(-158.10810810810813) translate(0,56.22113026080089)">
e
</text>
<text transform="rotate(-162.97297297297297) translate(0,56.22113026080089)">
)
</text>
<use href="#sigil_unknown" transform="rotate(-143.5135135135135) translate(0,56.22113026080089) translate(-30.0, -30.0)"/>
<circle stroke-dasharray="55.95347795226649 404.10845187748026" transform="rotate(-88)rotate(-41.351351351351354)" r="73.22113026080089"/>
<text transform="rotate(-177.56756756756755) translate(0,56.22113026080089)">
i
</text>
<text transform="rotate(-182.43243243243245) translate(0,56.22113026080089)">
n
</text>
<text transform="rotate(-187.2972972972973) translate(0,56.22113026080089)">
t
</text>
<text transform="rotate(-192.1621621621622) translate(0,56.22113026080089)">
r
</text>
<text transform="rotate(-197.027027027027) translate(0,56.22113026080089)">
o
</text>
<text transform="rotate(-201.8918918918919) translate(0,56.22113026080089)">
d
</text>
<text transform="rotate(-206.75675675675677) translate(0,56.22113026080089)">
u
</text>
<text transform="rotate(-211.6216216216216) translate(0,56.22113026080089)">
c
</text>
<text transform="rotate(-216.4864864864865) translate(0,56.22113026080089)">
e
</text>
<use href="#sigil_unknown" transform="rotate(-197.027027027027) translate(0,56.22113026080089) translate(-30.0, -30.0)"/>
<circle stroke-dasharray="62.17053105807389 397.89139877167287" transform="rotate(-142)rotate(-46.21621621621622)" r="73.22113026080089"/>
<text transform="rotate(-231.0810810810811) translate(0,56.22113026080089)">
(
</text>
<text transform="rotate(-235.94594594594594) translate(0,56.22113026080089)">
l
</text>
<text transform="rotate(-240.8108108108108) translate(0,56.22113026080089)">
v
</text>
<text transform="rotate(-245.67567567567568) translate(0,56.22113026080089)">
a
</text>
<text transform="rotate(-250.54054054054055) translate(0,56.22113026080089)">
r
</text>
<text transform="rotate(-255.40540540540542) translate(0,56.22113026080089)">
 
</text>
<text transform="rotate(-260.27027027027026) translate(0,56.22113026080089)">
:
</text>
<text transform="rotate(-265.1351351351351) translate(0,56.22113026080089)">
m
</text>
<text transform="rotate(-270.0) translate(0,56.22113026080089)">
e
</text>
<text transform="rotate(-274.8648648648649) translate(0,56.22113026080089)">
)
</text>
<use href="#sigil_unknown" transform="rotate(-255.40540540540542) translate(0,56.22113026080089) translate(-30.0, -30.0)"/>
<circle stroke-dasharray="49.7364248464591 410.32550498328766" transform="rotate(-200)rotate(-36.486486486486484)" r="73.22113026080089"/>
<text transform="rotate(-289.4594594594595) translate(0,56.22113026080089)">
b
</text>
<text transform="rotate(-294.3243243243244) translate(0,56.22113026080089)">
i
</text>
<text transform="rotate(-299.18918918918916) translate(0,56.22113026080089)">
r
</text>
<text transform="rotate(-304.054054054054) translate(0,56.22113026080089)">
t
</text>
<text transform="rotate(-308.91891891891896) translate(0,56.22113026080089)">
h
</text>
<text transform="rotate(-313.7837837837838) translate(0,56.22113026080089)">
d
</text>
<text transform="rotate(-318.64864864864865) translate(0,56.22113026080089)">
a
</text>
<text transform="rotate(-323.51351351351354) translate(0,56.22113026080089)">
y
</text>
<use href="#sigil_unknown" transform="rotate(-308.91891891891896) translate(0,56.22113026080089) translate(-30.0, -30.0)"/>
<circle stroke-dasharray="62.17053105807389 397.89139877167287" transform="rotate(-249)rotate(-46.21621621621622)" r="73.22113026080089"/>
<text transform="rotate(-338.1081081081081) translate(0,56.22113026080089)">
(
</text>
<text transform="rotate(-342.972972972973) translate(0,56.22113026080089)">
l
</text>
<text transform="rotate(-347.83783783783787) translate(0,56.22113026080089)">
v
</text>
<text transform="rotate(-352.7027027027027) translate(0,56.22113026080089)">
a
</text>
<text transform="rotate(-357.56756756756755) translate(0,56.22113026080089)">
r
</text>
<text transform="rotate(-362.43243243243245) translate(0,56.22113026080089)">
 
</text>
<text transform="rotate(-367.29729729729723) translate(0,56.22113026080089)">
:
</text>
<text transform="rotate(-372.1621621621622) translate(0,56.22113026080089)">
m
</text>
<text transform="rotate(-377.02702702702703) translate(0,56.22113026080089)">
e
</text>
<text transform="rotate(-381.8918918918919) translate(0,56.22113026080089)">
)
</text>
<use href="#sigil_unknown" transform="rotate(-362.43243243243245) translate(0,56.22113026080089) translate(-30.0, -30.0)"/>
<circle stroke-dasharray="55.95347795226649 404.10845187748026" transform="rotate(-307)rotate(-41.351351351351354)" r="73.22113026080089"/>
<text transform="rotate(-396.4864864864865) translate(0,56.22113026080089)">
i
</text>
<text transform="rotate(-401.35135135135135) translate(0,56.22113026080089)">
n
</text>
<text transform="rotate(-406.2162162162162) translate(0,56.22113026080089)">
t
</text>
<text transform="rotate(-411.0810810810811) translate(0,56.22113026080089)">
r
</text>
<text transform="rotate(-415.94594594594594) translate(0,56.22113026080089)">
o
</text>
<text transform="rotate(-420.81081081081084) translate(0,56.22113026080089)">
d
</text>
<text transform="rotate(-425.67567567567573) translate(0,56.22113026080089)">
u
</text>
<text transform="rotate(-430.5405405405405) translate(0,56.22113026080089)">
c
</text>
<text transform="rotate(-435.4054054054054) translate(0,56.22113026080089)">
e
</text>
<use href="#sigil_unknown" transform="rotate(-415.94594594594594) translate(0,56.22113026080089) translate(-30.0, -30.0)"/>
</g>
</g>
</svg>
