<svg viewBox="-70.65070725258457 -181.70887505949648 252.35958231208107 252.35958231208105" font-family="Z003" width="100%" height="100%" xmlns="http://www.w3.org/2000/svg">

<style>
* {
  stroke-width: 0.75;
  --color: #9B111E;
}

text {
  font-family: Z003;
  font-size: 10.0px;
  text-anchor: middle;
  dominant-baseline: middle;
  fill: var(--color);
}

line,
circle,
polygon,
path {
  fill: none;
  stroke: var(--color);
}

.debug {
  fill: none;
  stroke: yellow;
}

text.debug {
  fill: yellow;
  font-family: sans-serif;
  font-size: 10px;
  text-anchor: start;
  dominant-baseline: hanging;
}

</style>
<defs>
<symbol id="sigil_begin" viewBox="-25.0 -25.0 50.0 50.0" width="50.0" height="50.0">
<path d="M1.2246467991473533e-15,-20.0 L1.2246467991473533e-15,-20.0 L11.755705045849464,16.18033988749895 L-19.021130325903073,-6.1803398874989455 L19.02113032590307,-6.180339887498948 L-11.75570504584946,16.18033988749895 Z"/>
</symbol>
<symbol id="sigil_true" viewBox="-25.0 -25.0 50.0 50.0" width="50.0" height="50.0">
<text>
T
</text>
<g transform="translate(0,1.5)">
<path d="M7.654042494670958e-16,-12.5 L7.654042494670958e-16,-12.5 L10.825317547305485,6.249999999999998 L-10.825317547305481,6.250000000000004 Z"/>
</g>
</symbol>
<symbol id="sigil_false" viewBox="-25.0 -25.0 50.0 50.0" width="50.0" height="50.0">
<text>
F
</text>
<g transform="translate(0,1.5)">
<path d="M7.654042494670958e-16,-12.5 L7.654042494670958e-16,-12.5 L10.825317547305485,6.249999999999998 L-10.825317547305481,6.250000000000004 Z"/>
</g>
</symbol>
<symbol id="sigil_nil" viewBox="-25.0 -25.0 50.0 50.0" width="50.0" height="50.0">
<text>
N
</text>
<g transform="translate(0,1.5)">
<path d="M7.654042494670958e-16,-12.5 L7.654042494670958e-16,-12.5 L10.825317547305485,6.249999999999998 L-10.825317547305481,6.250000000000004 Z"/>
</g>
</symbol>
<symbol id="sigil_unknown" viewBox="-25.0 -25.0 50.0 50.0" width="50.0" height="50.0">
<circle r="12.5"/>
</symbol>
</defs>
<g class="ring library " transform="">
<text>
self
</text>
<circle r="35.65070725258456"/>
<circle r="60.65070725258456"/>
<g transform="rotate(-90)">
<circle stroke-dasharray="12.301437602932777 381.3445656909161" transform="rotate(0)rotate(-5.625)" r="62.65070725258456"/>
<text transform="rotate(-90.0) translate(0,48.15070725258456)">
L
</text>
<use href="#sigil_begin" transform="rotate(-90.0) translate(0,48.15070725258456) translate(-25.0, -25.0)"/>
<circle stroke-dasharray="6.150718801466389 387.4952844923825" transform="rotate(-17)rotate(0.0)" r="62.65070725258456"/>
<use href="#sigil_unknown" transform="rotate(-106.875) translate(0,48.15070725258456) translate(-25.0, -25.0)"/>
<circle stroke-dasharray="104.5622196249286 289.08378366892026" transform="rotate(-29)rotate(-90.0)" r="62.65070725258456"/>
<text transform="rotate(-118.125) translate(0,48.15070725258456)">
r
</text>
<text transform="rotate(-123.75) translate(0,48.15070725258456)">
e
</text>
<text transform="rotate(-129.375) translate(0,48.15070725258456)">
q
</text>
<text transform="rotate(-135.0) translate(0,48.15070725258456)">
u
</text>
<text transform="rotate(-140.625) translate(0,48.15070725258456)">
i
</text>
<text transform="rotate(-146.25) translate(0,48.15070725258456)">
r
</text>
<text transform="rotate(-151.875) translate(0,48.15070725258456)">
e
</text>
<text transform="rotate(-157.5) translate(0,48.15070725258456)">
_
</text>
<text transform="rotate(-163.125) translate(0,48.15070725258456)">
r
</text>
<text transform="rotate(-168.75) translate(0,48.15070725258456)">
e
</text>
<text transform="rotate(-174.375) translate(0,48.15070725258456)">
l
</text>
<text transform="rotate(-180.0) translate(0,48.15070725258456)">
a
</text>
<text transform="rotate(-185.625) translate(0,48.15070725258456)">
t
</text>
<text transform="rotate(-191.25) translate(0,48.15070725258456)">
i
</text>
<text transform="rotate(-196.875) translate(0,48.15070725258456)">
v
</text>
<text transform="rotate(-202.5) translate(0,48.15070725258456)">
e
</text>
<use href="#sigil_unknown" transform="rotate(-163.125) translate(0,48.15070725258456) translate(-25.0, -25.0)"/>
<circle stroke-dasharray="159.91868883812612 233.72731445572276" transform="rotate(-130)rotate(-140.625)" r="62.65070725258456"/>
<circle stroke-dasharray="128.17864669110648 213.63107781851076" transform="rotate(-130)rotate(-135.0)" r="54.40070725258456"/>
<circle stroke-dasharray="98.72621556370218 164.54369260617028" transform="rotate(-130)rotate(-135.0)" r="41.90070725258456"/>
<circle stroke-dasharray="19.634954084936208 19.634954084936208" transform="rotate(-219.375) translate(0,48.15070725258456) rotate(90)" r="6.25"/>
<circle stroke-dasharray="19.634954084936208 19.634954084936208" transform="rotate(-354.375) translate(0,48.15070725258456) rotate(-90)" r="6.25"/>
<text transform="rotate(-219.375) translate(0,48.15070725258456)">
"
</text>
<text transform="rotate(-225.0) translate(0,48.15070725258456)">
.
</text>
<text transform="rotate(-230.625) translate(0,48.15070725258456)">
.
</text>
<text transform="rotate(-236.25000000000003) translate(0,48.15070725258456)">
/
</text>
<text transform="rotate(-241.875) translate(0,48.15070725258456)">
.
</text>
<text transform="rotate(-247.5) translate(0,48.15070725258456)">
.
</text>
<text transform="rotate(-253.125) translate(0,48.15070725258456)">
/
</text>
<text transform="rotate(-258.75) translate(0,48.15070725258456)">
l
</text>
<text transform="rotate(-264.375) translate(0,48.15070725258456)">
i
</text>
<text transform="rotate(-270.0) translate(0,48.15070725258456)">
b
</text>
<text transform="rotate(-275.625) translate(0,48.15070725258456)">
/
</text>
<text transform="rotate(-281.25) translate(0,48.15070725258456)">
s
</text>
<text transform="rotate(-286.875) translate(0,48.15070725258456)">
p
</text>
<text transform="rotate(-292.5) translate(0,48.15070725258456)">
e
</text>
<text transform="rotate(-298.125) translate(0,48.15070725258456)">
l
</text>
<text transform="rotate(-303.75) translate(0,48.15070725258456)">
l
</text>
<text transform="rotate(-309.375) translate(0,48.15070725258456)">
r
</text>
<text transform="rotate(-315.0) translate(0,48.15070725258456)">
i
</text>
<text transform="rotate(-320.625) translate(0,48.15070725258456)">
n
</text>
<text transform="rotate(-326.25) translate(0,48.15070725258456)">
g
</text>
<text transform="rotate(-331.875) translate(0,48.15070725258456)">
s
</text>
<text transform="rotate(-337.5) translate(0,48.15070725258456)">
_
</text>
<text transform="rotate(-343.125) translate(0,48.15070725258456)">
r
</text>
<text transform="rotate(-348.75) translate(0,48.15070725258456)">
b
</text>
<text transform="rotate(-354.375) translate(0,48.15070725258456)">
"
</text>
<circle stroke-dasharray="79.95934441906306 313.68665887478585" transform="rotate(-282)rotate(-67.5)" r="62.65070725258456"/>
<text transform="rotate(-371.25) translate(0,48.15070725258456)">
:
</text>
<text transform="rotate(-376.875) translate(0,48.15070725258456)">
b
</text>
<text transform="rotate(-382.50000000000006) translate(0,48.15070725258456)">
u
</text>
<text transform="rotate(-388.125) translate(0,48.15070725258456)">
i
</text>
<text transform="rotate(-393.75) translate(0,48.15070725258456)">
l
</text>
<text transform="rotate(-399.375) translate(0,48.15070725258456)">
d
</text>
<text transform="rotate(-405.0) translate(0,48.15070725258456)">
_
</text>
<text transform="rotate(-410.625) translate(0,48.15070725258456)">
m
</text>
<text transform="rotate(-416.25) translate(0,48.15070725258456)">
y
</text>
<text transform="rotate(-421.875) translate(0,48.15070725258456)">
s
</text>
<text transform="rotate(-427.49999999999994) translate(0,48.15070725258456)">
e
</text>
<text transform="rotate(-433.12499999999994) translate(0,48.15070725258456)">
l
</text>
<text transform="rotate(-438.75) translate(0,48.15070725258456)">
f
</text>
<g class="ring spell def" transform="rotate(-405.0)translate(0,150.7577529117422)">
<text>
build_myself
</text>
<circle r="40.10704565915763"/>
<circle r="65.10704565915762"/>
<g transform="rotate(-90)">
<line x1="0" y1="67.10704565915762" x2="0" y2="88.10704565915762" transform="rotate(-90)"/>
<circle stroke-dasharray="11.712388980384688 409.9336143134641" transform="rotate(0)rotate(-5.0)" r="67.10704565915762"/>
<text transform="rotate(-90.0) translate(0,52.60704565915763)">
S
</text>
<use href="#sigil_begin" transform="rotate(-90.0) translate(0,52.60704565915763) translate(-25.0, -25.0)"/>
<circle stroke-dasharray="5.856194490192344 415.7898088036564" transform="rotate(-15)rotate(0.0)" r="67.10704565915762"/>
<use href="#sigil_unknown" transform="rotate(-105.0) translate(0,52.60704565915763) translate(-25.0, -25.0)"/>
<circle stroke-dasharray="29.28097245096172 392.36503084288705" transform="rotate(-25)rotate(-20.0)" r="67.10704565915762"/>
<text transform="rotate(-115.0) translate(0,52.60704565915763)">
p
</text>
<text transform="rotate(-120.0) translate(0,52.60704565915763)">
u
</text>
<text transform="rotate(-125.0) translate(0,52.60704565915763)">
t
</text>
<text transform="rotate(-130.0) translate(0,52.60704565915763)">
s
</text>
<use href="#sigil_unknown" transform="rotate(-125.0) translate(0,52.60704565915763) translate(-25.0, -25.0)"/>
<circle stroke-dasharray="134.6924732744239 286.9535300194249" transform="rotate(-55)rotate(-110.0)" r="67.10704565915762"/>
<circle stroke-dasharray="107.86116964863838 261.94855486097885" transform="rotate(-55)rotate(-105.0)" r="58.85704565915763"/>
<circle stroke-dasharray="84.9537232162128 206.31618495365962" transform="rotate(-55)rotate(-105.0)" r="46.35704565915763"/>
<circle stroke-dasharray="19.634954084936208 19.634954084936208" transform="rotate(-145.0) translate(0,52.60704565915763) rotate(90)" r="6.25"/>
<circle stroke-dasharray="19.634954084936208 19.634954084936208" transform="rotate(-250.0) translate(0,52.60704565915763) rotate(-90)" r="6.25"/>
<text transform="rotate(-145.0) translate(0,52.60704565915763)">
"
</text>
<text transform="rotate(-150.0) translate(0,52.60704565915763)">
I
</text>
<text transform="rotate(-155.0) translate(0,52.60704565915763)">
 
</text>
<text transform="rotate(-160.0) translate(0,52.60704565915763)">
a
</text>
<text transform="rotate(-165.0) translate(0,52.60704565915763)">
m
</text>
<text transform="rotate(-170.0) translate(0,52.60704565915763)">
 
</text>
<text transform="rotate(-175.0) translate(0,52.60704565915763)">
b
</text>
<text transform="rotate(-180.0) translate(0,52.60704565915763)">
u
</text>
<text transform="rotate(-185.0) translate(0,52.60704565915763)">
i
</text>
<text transform="rotate(-190.0) translate(0,52.60704565915763)">
l
</text>
<text transform="rotate(-195.0) translate(0,52.60704565915763)">
d
</text>
<text transform="rotate(-200.0) translate(0,52.60704565915763)">
i
</text>
<text transform="rotate(-205.0) translate(0,52.60704565915763)">
n
</text>
<text transform="rotate(-210.0) translate(0,52.60704565915763)">
g
</text>
<text transform="rotate(-215.0) translate(0,52.60704565915763)">
 
</text>
<text transform="rotate(-220.0) translate(0,52.60704565915763)">
m
</text>
<text transform="rotate(-225.0) translate(0,52.60704565915763)">
y
</text>
<text transform="rotate(-230.0) translate(0,52.60704565915763)">
s
</text>
<text transform="rotate(-235.00000000000003) translate(0,52.60704565915763)">
e
</text>
<text transform="rotate(-239.99999999999997) translate(0,52.60704565915763)">
l
</text>
<text transform="rotate(-245.0) translate(0,52.60704565915763)">
f
</text>
<text transform="rotate(-250.0) translate(0,52.60704565915763)">
"
</text>
<circle stroke-dasharray="140.54866776461625 281.0973355292325" transform="rotate(-175)rotate(-114.99999999999999)" r="67.10704565915762"/>
<text transform="rotate(-265.0) translate(0,52.60704565915763)">
(
</text>
<text transform="rotate(-270.0) translate(0,52.60704565915763)">
c
</text>
<text transform="rotate(-275.0) translate(0,52.60704565915763)">
o
</text>
<text transform="rotate(-280.0) translate(0,52.60704565915763)">
n
</text>
<text transform="rotate(-285.0) translate(0,52.60704565915763)">
s
</text>
<text transform="rotate(-290.0) translate(0,52.60704565915763)">
t
</text>
<text transform="rotate(-294.99999999999994) translate(0,52.60704565915763)">
 
</text>
<text transform="rotate(-300.0) translate(0,52.60704565915763)">
n
</text>
<text transform="rotate(-305.0) translate(0,52.60704565915763)">
i
</text>
<text transform="rotate(-310.0) translate(0,52.60704565915763)">
l
</text>
<text transform="rotate(-315.0) translate(0,52.60704565915763)">
 
</text>
<text transform="rotate(-320.0) translate(0,52.60704565915763)">
:
</text>
<text transform="rotate(-325.0) translate(0,52.60704565915763)">
S
</text>
<text transform="rotate(-330.0) translate(0,52.60704565915763)">
p
</text>
<text transform="rotate(-335.0) translate(0,52.60704565915763)">
e
</text>
<text transform="rotate(-340.0) translate(0,52.60704565915763)">
l
</text>
<text transform="rotate(-345.0) translate(0,52.60704565915763)">
l
</text>
<text transform="rotate(-350.0) translate(0,52.60704565915763)">
r
</text>
<text transform="rotate(-355.0) translate(0,52.60704565915763)">
i
</text>
<text transform="rotate(-360.0) translate(0,52.60704565915763)">
n
</text>
<text transform="rotate(-365.0) translate(0,52.60704565915763)">
g
</text>
<text transform="rotate(-370.0) translate(0,52.60704565915763)">
s
</text>
<text transform="rotate(-375.0) translate(0,52.60704565915763)">
)
</text>
<use href="#sigil_unknown" transform="rotate(-320.0) translate(0,52.60704565915763) translate(-25.0, -25.0)"/>
<circle stroke-dasharray="64.41813939211578 357.227863901733" transform="rotate(-300)rotate(-49.99999999999999)" r="67.10704565915762"/>
<text transform="rotate(-389.99999999999994) translate(0,52.60704565915763)">
b
</text>
<text transform="rotate(-395.0) translate(0,52.60704565915763)">
u
</text>
<text transform="rotate(-400.0) translate(0,52.60704565915763)">
i
</text>
<text transform="rotate(-405.0) translate(0,52.60704565915763)">
l
</text>
<text transform="rotate(-410.0) translate(0,52.60704565915763)">
d
</text>
<text transform="rotate(-415.0) translate(0,52.60704565915763)">
_
</text>
<text transform="rotate(-420.00000000000006) translate(0,52.60704565915763)">
f
</text>
<text transform="rotate(-425.0) translate(0,52.60704565915763)">
i
</text>
<text transform="rotate(-430.0) translate(0,52.60704565915763)">
l
</text>
<text transform="rotate(-435.0) translate(0,52.60704565915763)">
e
</text>
<use href="#sigil_unknown" transform="rotate(-415.0) translate(0,52.60704565915763) translate(-25.0, -25.0)"/>
</g>
</g>
</g>
</g>
</svg>
