<svg viewBox="-69.52324194354658 -229.74761577042685 205.21381481082932 299.27085771397344" font-family="Z003" width="100%" height="100%" xmlns="http://www.w3.org/2000/svg">

<style>
* {
  stroke-width: 0.75;
  --color: #9B111E;
}

text {
  font-family: Z003;
  font-size: 10.0px;
  text-anchor: middle;
  dominant-baseline: middle;
  fill: var(--color);
}

line,
circle,
polygon,
path {
  fill: none;
  stroke: var(--color);
}

path {
  stroke: yellow;
}

.debug {
  fill: none;
  stroke: yellow;
}

text.debug {
  fill: yellow;
  font-family: sans-serif;
  font-size: 10px;
  text-anchor: start;
  dominant-baseline: hanging;
}

</style>
<defs>
<symbol id="sigil_begin" viewBox="-30.0 -30.0 60.0 60.0" width="60.0" height="60.0">
<polygon points="1.4695761589768238e-15,-24.0 14.106846055019355,19.41640786499874 -22.825356391083687,-7.416407864998735 22.825356391083684,-7.416407864998737 -14.106846055019354,19.41640786499874"/>
</symbol>
<symbol id="sigil_true" viewBox="-30.0 -30.0 60.0 60.0" width="60.0" height="60.0">
<text>
T
</text>
<polygon points="9.18485099360515e-16 -15.0 12.99038105676658 7.499999999999997 -12.990381056766577 7.500000000000005" transform="translate(0,1.5)"/>
</symbol>
<symbol id="sigil_false" viewBox="-30.0 -30.0 60.0 60.0" width="60.0" height="60.0">
<text>
F
</text>
<polygon points="9.18485099360515e-16 -15.0 12.99038105676658 7.499999999999997 -12.990381056766577 7.500000000000005" transform="translate(0,1.5)"/>
</symbol>
<symbol id="sigil_nil" viewBox="-30.0 -30.0 60.0 60.0" width="60.0" height="60.0">
<text>
N
</text>
<polygon points="9.18485099360515e-16 -15.0 12.99038105676658 7.499999999999997 -12.990381056766577 7.500000000000005" transform="translate(0,1.5)"/>
</symbol>
<symbol id="sigil_unknown" viewBox="-30.0 -30.0 60.0 60.0" width="60.0" height="60.0">
<circle r="15.0"/>
</symbol>
</defs>
<g class="ring library " transform="">
<text>
self
</text>
<circle r="29.523241943546584"/>
<circle r="59.52324194354658"/>
<g transform="rotate(-90)">
<circle stroke-dasharray="7.2936213175423905 379.2683085122043" transform="rotate(0)rotate(-3.3962264150943393)" r="61.52324194354658"/>
<text transform="rotate(-90.0) translate(0,44.52324194354658)">
L
</text>
<use href="#sigil_begin" transform="rotate(-90.0) translate(0,44.52324194354658) translate(-30.0, -30.0)"/>
<circle stroke-dasharray="0.0 386.5619298297467" transform="rotate(-21)rotate(3.3962264150943393)" r="61.52324194354658"/>
<use href="#sigil_unknown" transform="rotate(-110.37735849056604) translate(0,44.52324194354658) translate(-30.0, -30.0)"/>
<circle stroke-dasharray="116.69794108067825 269.8639887490684" transform="rotate(-34)rotate(-105.28301886792454)" r="61.52324194354658"/>
<text transform="rotate(-123.9622641509434) translate(0,44.52324194354658)">
r
</text>
<text transform="rotate(-130.75471698113208) translate(0,44.52324194354658)">
e
</text>
<text transform="rotate(-137.54716981132077) translate(0,44.52324194354658)">
q
</text>
<text transform="rotate(-144.33962264150944) translate(0,44.52324194354658)">
u
</text>
<text transform="rotate(-151.1320754716981) translate(0,44.52324194354658)">
i
</text>
<text transform="rotate(-157.9245283018868) translate(0,44.52324194354658)">
r
</text>
<text transform="rotate(-164.7169811320755) translate(0,44.52324194354658)">
e
</text>
<text transform="rotate(-171.50943396226415) translate(0,44.52324194354658)">
_
</text>
<text transform="rotate(-178.30188679245282) translate(0,44.52324194354658)">
r
</text>
<text transform="rotate(-185.0943396226415) translate(0,44.52324194354658)">
e
</text>
<text transform="rotate(-191.8867924528302) translate(0,44.52324194354658)">
l
</text>
<text transform="rotate(-198.67924528301887) translate(0,44.52324194354658)">
a
</text>
<text transform="rotate(-205.47169811320754) translate(0,44.52324194354658)">
t
</text>
<text transform="rotate(-212.26415094339623) translate(0,44.52324194354658)">
i
</text>
<text transform="rotate(-219.0566037735849) translate(0,44.52324194354658)">
v
</text>
<text transform="rotate(-225.8490566037736) translate(0,44.52324194354658)">
e
</text>
<use href="#sigil_unknown" transform="rotate(-178.30188679245282) translate(0,44.52324194354658) translate(-30.0, -30.0)"/>
<circle stroke-dasharray="182.34053293855976 204.22139689118694" transform="rotate(-157)rotate(-166.4150943396226)" r="61.52324194354658"/>
<circle stroke-dasharray="148.01735973352785 178.8543096780128" transform="rotate(-157)rotate(-163.01886792452828)" r="52.02324194354658"/>
<circle stroke-dasharray="105.33911991117593 127.28476989267092" transform="rotate(-157)rotate(-163.01886792452828)" r="37.02324194354658"/>
<circle stroke-dasharray="23.561944901923447 23.561944901923447" transform="rotate(-246.2264150943396) translate(0,44.52324194354658) rotate(90)" r="7.5"/>
<circle stroke-dasharray="23.561944901923447 23.561944901923447" transform="rotate(-409.24528301886795) translate(0,44.52324194354658) rotate(-90)" r="7.5"/>
<text transform="rotate(-246.2264150943396) translate(0,44.52324194354658)">
"
</text>
<text transform="rotate(-253.01886792452828) translate(0,44.52324194354658)">
.
</text>
<text transform="rotate(-259.811320754717) translate(0,44.52324194354658)">
.
</text>
<text transform="rotate(-266.60377358490564) translate(0,44.52324194354658)">
/
</text>
<text transform="rotate(-273.39622641509436) translate(0,44.52324194354658)">
.
</text>
<text transform="rotate(-280.188679245283) translate(0,44.52324194354658)">
.
</text>
<text transform="rotate(-286.9811320754717) translate(0,44.52324194354658)">
/
</text>
<text transform="rotate(-293.7735849056604) translate(0,44.52324194354658)">
l
</text>
<text transform="rotate(-300.566037735849) translate(0,44.52324194354658)">
i
</text>
<text transform="rotate(-307.35849056603774) translate(0,44.52324194354658)">
b
</text>
<text transform="rotate(-314.1509433962264) translate(0,44.52324194354658)">
/
</text>
<text transform="rotate(-320.9433962264151) translate(0,44.52324194354658)">
s
</text>
<text transform="rotate(-327.7358490566038) translate(0,44.52324194354658)">
p
</text>
<text transform="rotate(-334.52830188679246) translate(0,44.52324194354658)">
e
</text>
<text transform="rotate(-341.3207547169811) translate(0,44.52324194354658)">
l
</text>
<text transform="rotate(-348.1132075471698) translate(0,44.52324194354658)">
l
</text>
<text transform="rotate(-354.90566037735846) translate(0,44.52324194354658)">
r
</text>
<text transform="rotate(-361.6981132075472) translate(0,44.52324194354658)">
i
</text>
<text transform="rotate(-368.49056603773585) translate(0,44.52324194354658)">
n
</text>
<text transform="rotate(-375.28301886792457) translate(0,44.52324194354658)">
g
</text>
<text transform="rotate(-382.07547169811323) translate(0,44.52324194354658)">
s
</text>
<text transform="rotate(-388.8679245283019) translate(0,44.52324194354658)">
_
</text>
<text transform="rotate(-395.66037735849056) translate(0,44.52324194354658)">
r
</text>
<text transform="rotate(-402.4528301886792) translate(0,44.52324194354658)">
b
</text>
<text transform="rotate(-409.24528301886795) translate(0,44.52324194354658)">
"
</text>
<circle stroke-dasharray="7.2936213175423905 379.2683085122043" transform="rotate(-340)rotate(-3.3962264150943393)" r="61.52324194354658"/>
<text transform="rotate(-429.62264150943395) translate(0,44.52324194354658)">
S
</text>
<g class="ring spell def" transform="rotate(-429.62264150943395)translate(0,159.63028760270421)">
<text>
build_myself
</text>
<circle r="40.10704565915763"/>
<circle r="70.10704565915762"/>
<g transform="rotate(-90)">
<line x1="0" y1="72.10704565915762" x2="0" y2="98.10704565915762" transform="rotate(-90)"/>
<circle stroke-dasharray="6.292526803190927 446.7694030265558" transform="rotate(0)rotate(-2.5)" r="72.10704565915762"/>
<text transform="rotate(-90.0) translate(0,55.10704565915763)">
S
</text>
<use href="#sigil_begin" transform="rotate(-90.0) translate(0,55.10704565915763) translate(-30.0, -30.0)"/>
<circle stroke-dasharray="0.0 453.0619298297467" transform="rotate(-15)rotate(2.5)" r="72.10704565915762"/>
<use href="#sigil_unknown" transform="rotate(-105.0) translate(0,55.10704565915763) translate(-30.0, -30.0)"/>
<circle stroke-dasharray="25.170107212763707 427.891822616983" transform="rotate(-25)rotate(-17.5)" r="72.10704565915762"/>
<text transform="rotate(-115.0) translate(0,55.10704565915763)">
p
</text>
<text transform="rotate(-120.0) translate(0,55.10704565915763)">
u
</text>
<text transform="rotate(-125.0) translate(0,55.10704565915763)">
t
</text>
<text transform="rotate(-130.0) translate(0,55.10704565915763)">
s
</text>
<use href="#sigil_unknown" transform="rotate(-125.0) translate(0,55.10704565915763) translate(-30.0, -30.0)"/>
<circle stroke-dasharray="138.43558967020036 314.6263401595463" transform="rotate(-55)rotate(-107.5)" r="72.10704565915762"/>
<circle stroke-dasharray="114.73340357836605 278.63826583317467" transform="rotate(-55)rotate(-105.0)" r="62.60704565915763"/>
<circle stroke-dasharray="87.24446785945536 211.87942194439154" transform="rotate(-55)rotate(-105.0)" r="47.60704565915763"/>
<circle stroke-dasharray="23.561944901923447 23.561944901923447" transform="rotate(-145.0) translate(0,55.10704565915763) rotate(90)" r="7.5"/>
<circle stroke-dasharray="23.561944901923447 23.561944901923447" transform="rotate(-250.0) translate(0,55.10704565915763) rotate(-90)" r="7.5"/>
<text transform="rotate(-145.0) translate(0,55.10704565915763)">
"
</text>
<text transform="rotate(-150.0) translate(0,55.10704565915763)">
I
</text>
<text transform="rotate(-155.0) translate(0,55.10704565915763)">
 
</text>
<text transform="rotate(-160.0) translate(0,55.10704565915763)">
a
</text>
<text transform="rotate(-165.0) translate(0,55.10704565915763)">
m
</text>
<text transform="rotate(-170.0) translate(0,55.10704565915763)">
 
</text>
<text transform="rotate(-175.0) translate(0,55.10704565915763)">
b
</text>
<text transform="rotate(-180.0) translate(0,55.10704565915763)">
u
</text>
<text transform="rotate(-185.0) translate(0,55.10704565915763)">
i
</text>
<text transform="rotate(-190.0) translate(0,55.10704565915763)">
l
</text>
<text transform="rotate(-195.0) translate(0,55.10704565915763)">
d
</text>
<text transform="rotate(-200.0) translate(0,55.10704565915763)">
i
</text>
<text transform="rotate(-205.0) translate(0,55.10704565915763)">
n
</text>
<text transform="rotate(-210.0) translate(0,55.10704565915763)">
g
</text>
<text transform="rotate(-215.0) translate(0,55.10704565915763)">
 
</text>
<text transform="rotate(-220.0) translate(0,55.10704565915763)">
m
</text>
<text transform="rotate(-225.0) translate(0,55.10704565915763)">
y
</text>
<text transform="rotate(-230.0) translate(0,55.10704565915763)">
s
</text>
<text transform="rotate(-235.00000000000003) translate(0,55.10704565915763)">
e
</text>
<text transform="rotate(-239.99999999999997) translate(0,55.10704565915763)">
l
</text>
<text transform="rotate(-245.0) translate(0,55.10704565915763)">
f
</text>
<text transform="rotate(-250.0) translate(0,55.10704565915763)">
"
</text>
<circle stroke-dasharray="144.7281164733913 308.3338133563554" transform="rotate(-175)rotate(-112.5)" r="72.10704565915762"/>
<text transform="rotate(-265.0) translate(0,55.10704565915763)">
(
</text>
<text transform="rotate(-270.0) translate(0,55.10704565915763)">
c
</text>
<text transform="rotate(-275.0) translate(0,55.10704565915763)">
o
</text>
<text transform="rotate(-280.0) translate(0,55.10704565915763)">
n
</text>
<text transform="rotate(-285.0) translate(0,55.10704565915763)">
s
</text>
<text transform="rotate(-290.0) translate(0,55.10704565915763)">
t
</text>
<text transform="rotate(-294.99999999999994) translate(0,55.10704565915763)">
 
</text>
<text transform="rotate(-300.0) translate(0,55.10704565915763)">
n
</text>
<text transform="rotate(-305.0) translate(0,55.10704565915763)">
i
</text>
<text transform="rotate(-310.0) translate(0,55.10704565915763)">
l
</text>
<text transform="rotate(-315.0) translate(0,55.10704565915763)">
 
</text>
<text transform="rotate(-320.0) translate(0,55.10704565915763)">
:
</text>
<text transform="rotate(-325.0) translate(0,55.10704565915763)">
S
</text>
<text transform="rotate(-330.0) translate(0,55.10704565915763)">
p
</text>
<text transform="rotate(-335.0) translate(0,55.10704565915763)">
e
</text>
<text transform="rotate(-340.0) translate(0,55.10704565915763)">
l
</text>
<text transform="rotate(-345.0) translate(0,55.10704565915763)">
l
</text>
<text transform="rotate(-350.0) translate(0,55.10704565915763)">
r
</text>
<text transform="rotate(-355.0) translate(0,55.10704565915763)">
i
</text>
<text transform="rotate(-360.0) translate(0,55.10704565915763)">
n
</text>
<text transform="rotate(-365.0) translate(0,55.10704565915763)">
g
</text>
<text transform="rotate(-370.0) translate(0,55.10704565915763)">
s
</text>
<text transform="rotate(-375.0) translate(0,55.10704565915763)">
)
</text>
<use href="#sigil_unknown" transform="rotate(-320.0) translate(0,55.10704565915763) translate(-30.0, -30.0)"/>
<circle stroke-dasharray="62.92526803190926 390.13666179783746" transform="rotate(-300)rotate(-47.5)" r="72.10704565915762"/>
<text transform="rotate(-389.99999999999994) translate(0,55.10704565915763)">
b
</text>
<text transform="rotate(-395.0) translate(0,55.10704565915763)">
u
</text>
<text transform="rotate(-400.0) translate(0,55.10704565915763)">
i
</text>
<text transform="rotate(-405.0) translate(0,55.10704565915763)">
l
</text>
<text transform="rotate(-410.0) translate(0,55.10704565915763)">
d
</text>
<text transform="rotate(-415.0) translate(0,55.10704565915763)">
_
</text>
<text transform="rotate(-420.00000000000006) translate(0,55.10704565915763)">
f
</text>
<text transform="rotate(-425.0) translate(0,55.10704565915763)">
i
</text>
<text transform="rotate(-430.0) translate(0,55.10704565915763)">
l
</text>
<text transform="rotate(-435.0) translate(0,55.10704565915763)">
e
</text>
<use href="#sigil_unknown" transform="rotate(-415.0) translate(0,55.10704565915763) translate(-30.0, -30.0)"/>
</g>
</g>
</g>
</g>
</svg>
