<svg viewBox="-158.90424585070087 -53.9031277360871 356.76061578193105 330.7442127290767" font-family="Z003" width="100%" height="100%" xmlns="http://www.w3.org/2000/svg">

<style>
* {
  stroke-width: 0.75;
  --color: #9B111E;
}

text {
  font-family: Z003;
  font-size: 10.0px;
  text-anchor: middle;
  dominant-baseline: middle;
  fill: var(--color);
}

line,
circle,
polygon,
path {
  fill: none;
  stroke: var(--color);
}

.debug {
  fill: none;
  stroke: yellow;
}

text.debug {
  fill: yellow;
  font-family: sans-serif;
  font-size: 10px;
  text-anchor: start;
  dominant-baseline: hanging;
}

</style>
<defs>
<symbol id="sigil_begin" viewBox="-25.0 -25.0 50.0 50.0" width="50.0" height="50.0">
<path d="M1.2246467991473533e-15,-20.0 L1.2246467991473533e-15,-20.0 L11.755705045849464,16.18033988749895 L-19.021130325903073,-6.1803398874989455 L19.02113032590307,-6.180339887498948 L-11.75570504584946,16.18033988749895 Z"/>
</symbol>
<symbol id="sigil_true" viewBox="-25.0 -25.0 50.0 50.0" width="50.0" height="50.0">
<text>
T
</text>
<g transform="translate(0,1.5)">
<path d="M7.654042494670958e-16,-12.5 L7.654042494670958e-16,-12.5 L10.825317547305485,6.249999999999998 L-10.825317547305481,6.250000000000004 Z"/>
</g>
</symbol>
<symbol id="sigil_false" viewBox="-25.0 -25.0 50.0 50.0" width="50.0" height="50.0">
<text>
F
</text>
<g transform="translate(0,1.5)">
<path d="M7.654042494670958e-16,-12.5 L7.654042494670958e-16,-12.5 L10.825317547305485,6.249999999999998 L-10.825317547305481,6.250000000000004 Z"/>
</g>
</symbol>
<symbol id="sigil_nil" viewBox="-25.0 -25.0 50.0 50.0" width="50.0" height="50.0">
<text>
N
</text>
<g transform="translate(0,1.5)">
<path d="M7.654042494670958e-16,-12.5 L7.654042494670958e-16,-12.5 L10.825317547305485,6.249999999999998 L-10.825317547305481,6.250000000000004 Z"/>
</g>
</symbol>
<symbol id="sigil_unknown" viewBox="-25.0 -25.0 50.0 50.0" width="50.0" height="50.0">
<circle r="12.5"/>
</symbol>
</defs>
<g class="ring library " transform="">
<text>
module
</text>
<circle r="14.0"/>
<circle r="39.0"/>
<g transform="rotate(-90)">
<circle stroke-dasharray="46.838290471702365 210.77230712266066" transform="rotate(0)rotate(-32.72727272727273)" r="41.0"/>
<text transform="rotate(-90.0) translate(0,26.5)">
L
</text>
<use href="#sigil_begin" transform="rotate(-90.0) translate(0,26.5) translate(-25.0, -25.0)"/>
<circle stroke-dasharray="163.93401665095828 93.67658094340473" transform="rotate(-99)rotate(-196.36363636363635)" r="41.0"/>
<text transform="rotate(-188.1818181818182) translate(0,26.5)">
:
</text>
<text transform="rotate(-220.9090909090909) translate(0,26.5)">
S
</text>
<text transform="rotate(-253.63636363636365) translate(0,26.5)">
c
</text>
<text transform="rotate(-286.3636363636364) translate(0,26.5)">
h
</text>
<text transform="rotate(-319.0909090909091) translate(0,26.5)">
o
</text>
<text transform="rotate(-351.8181818181818) translate(0,26.5)">
o
</text>
<text transform="rotate(-384.54545454545456) translate(0,26.5)">
l
</text>
<g class="ring grimoire module" transform="rotate(-286.3636363636364)translate(0,105.15422672382738)">
<text>
School
</text>
<path d="M9.891611025017916e-16,-16.154226723827378 L9.891611025017916e-16,-16.154226723827378 L16.154226723827378,0.0 L9.891611025017916e-16,16.154226723827378 L-16.154226723827378,1.978322205003583e-15 Z"/>
<circle r="16.154226723827378"/>
<circle r="41.15422672382738"/>
<g transform="rotate(-90)">
<line x1="0" y1="43.15422672382738" x2="0" y2="64.15422672382738" transform="rotate(-90)"/>
<circle stroke-dasharray="18.699724365093022 252.4462789287558" transform="rotate(0)rotate(-12.413793103448276)" r="43.15422672382738"/>
<text transform="rotate(-90.0) translate(0,28.654226723827378)">
G
</text>
<use href="#sigil_begin" transform="rotate(-90.0) translate(0,28.654226723827378) translate(-25.0, -25.0)"/>
<circle stroke-dasharray="65.44903527782557 205.69696801602325" transform="rotate(-38)rotate(-74.48275862068965)" r="43.15422672382738"/>
<text transform="rotate(-127.24137931034483) translate(0,28.654226723827378)">
:
</text>
<text transform="rotate(-139.6551724137931) translate(0,28.654226723827378)">
P
</text>
<text transform="rotate(-152.0689655172414) translate(0,28.654226723827378)">
e
</text>
<text transform="rotate(-164.48275862068965) translate(0,28.654226723827378)">
r
</text>
<text transform="rotate(-176.89655172413794) translate(0,28.654226723827378)">
s
</text>
<text transform="rotate(-189.31034482758622) translate(0,28.654226723827378)">
o
</text>
<text transform="rotate(-201.72413793103448) translate(0,28.654226723827378)">
n
</text>
<g class="ring grimoire class" transform="rotate(-164.48275862068965)translate(0,122.34859556983886)">
<text>
Person
</text>
<path d="M1.9101041979344944e-15,-31.19436884601149 L1.9101041979344944e-15,-31.19436884601149 L30.412260890871703,6.941400089792234 L-13.53472939431973,28.105155184121465 L-24.38873963953169,-19.449370850907947 L24.388739639531686,-19.44937085090795 L13.534729394319733,28.105155184121465 L-30.412260890871703,6.941400089792237 Z"/>
<circle r="31.19436884601149"/>
<circle r="56.194368846011486"/>
<g transform="rotate(-90)">
<line x1="0" y1="58.194368846011486" x2="0" y2="79.19436884601149" transform="rotate(-90)"/>
<circle stroke-dasharray="13.058785831923172 352.58721746192566" transform="rotate(0)rotate(-6.428571428571429)" r="58.194368846011486"/>
<text transform="rotate(-90.0) translate(0,43.694368846011486)">
G
</text>
<use href="#sigil_begin" transform="rotate(-90.0) translate(0,43.694368846011486) translate(-25.0, -25.0)"/>
<circle stroke-dasharray="71.82332207557744 293.8226812182714" transform="rotate(-20)rotate(-64.28571428571428)" r="58.194368846011486"/>
<text transform="rotate(-109.28571428571429) translate(0,43.694368846011486)">
:
</text>
<text transform="rotate(-115.71428571428572) translate(0,43.694368846011486)">
i
</text>
<text transform="rotate(-122.14285714285714) translate(0,43.694368846011486)">
n
</text>
<text transform="rotate(-128.57142857142858) translate(0,43.694368846011486)">
i
</text>
<text transform="rotate(-135.0) translate(0,43.694368846011486)">
t
</text>
<text transform="rotate(-141.42857142857144) translate(0,43.694368846011486)">
i
</text>
<text transform="rotate(-147.85714285714286) translate(0,43.694368846011486)">
a
</text>
<text transform="rotate(-154.28571428571428) translate(0,43.694368846011486)">
l
</text>
<text transform="rotate(-160.71428571428572) translate(0,43.694368846011486)">
i
</text>
<text transform="rotate(-167.14285714285717) translate(0,43.694368846011486)">
z
</text>
<text transform="rotate(-173.5714285714286) translate(0,43.694368846011486)">
e
</text>
<g class="ring spell def" transform="rotate(-141.42857142857144)translate(0,127.19436884601149)">
<text>
initialize
</text>
<circle r="21.0"/>
<circle r="46.0"/>
<g transform="rotate(-90)">
<line x1="0" y1="48.0" x2="0" y2="69.0" transform="rotate(-90)"/>
<circle stroke-dasharray="201.06192982974676 100.53096491487338" transform="rotate(0)rotate(-119.99999999999999)" r="48.0"/>
<text transform="rotate(-90.0) translate(0,33.5)">
S
</text>
<use href="#sigil_begin" transform="rotate(-90.0) translate(0,33.5) translate(-25.0, -25.0)"/>
</g>
</g>
<circle stroke-dasharray="6.529392915961586 359.11661037788724" transform="rotate(-97)rotate(0.0)" r="58.194368846011486"/>
<use href="#sigil_unknown" transform="rotate(-186.42857142857142) translate(0,43.694368846011486) translate(-25.0, -25.0)"/>
<circle stroke-dasharray="91.4115008234622 274.2345024703866" transform="rotate(-110)rotate(-83.57142857142857)" r="58.194368846011486"/>
<text transform="rotate(-199.2857142857143) translate(0,43.694368846011486)">
a
</text>
<text transform="rotate(-205.71428571428572) translate(0,43.694368846011486)">
t
</text>
<text transform="rotate(-212.14285714285714) translate(0,43.694368846011486)">
t
</text>
<text transform="rotate(-218.57142857142856) translate(0,43.694368846011486)">
r
</text>
<text transform="rotate(-225.0) translate(0,43.694368846011486)">
_
</text>
<text transform="rotate(-231.42857142857142) translate(0,43.694368846011486)">
a
</text>
<text transform="rotate(-237.85714285714286) translate(0,43.694368846011486)">
c
</text>
<text transform="rotate(-244.2857142857143) translate(0,43.694368846011486)">
c
</text>
<text transform="rotate(-250.71428571428572) translate(0,43.694368846011486)">
e
</text>
<text transform="rotate(-257.1428571428572) translate(0,43.694368846011486)">
s
</text>
<text transform="rotate(-263.57142857142856) translate(0,43.694368846011486)">
s
</text>
<text transform="rotate(-270.0) translate(0,43.694368846011486)">
o
</text>
<text transform="rotate(-276.42857142857144) translate(0,43.694368846011486)">
r
</text>
<use href="#sigil_unknown" transform="rotate(-237.85714285714286) translate(0,43.694368846011486) translate(-25.0, -25.0)"/>
<circle stroke-dasharray="39.176357495769516 326.4696457980793" transform="rotate(-206)rotate(-32.14285714285714)" r="58.194368846011486"/>
<text transform="rotate(-295.7142857142857) translate(0,43.694368846011486)">
:
</text>
<text transform="rotate(-302.1428571428571) translate(0,43.694368846011486)">
n
</text>
<text transform="rotate(-308.5714285714286) translate(0,43.694368846011486)">
a
</text>
<text transform="rotate(-315.0) translate(0,43.694368846011486)">
m
</text>
<text transform="rotate(-321.42857142857144) translate(0,43.694368846011486)">
e
</text>
<circle stroke-dasharray="32.64696457980793 332.9990387140409" transform="rotate(-251)rotate(-25.714285714285715)" r="58.194368846011486"/>
<text transform="rotate(-340.71428571428567) translate(0,43.694368846011486)">
:
</text>
<text transform="rotate(-347.1428571428571) translate(0,43.694368846011486)">
a
</text>
<text transform="rotate(-353.57142857142856) translate(0,43.694368846011486)">
g
</text>
<text transform="rotate(-360.0) translate(0,43.694368846011486)">
e
</text>
<circle stroke-dasharray="65.29392915961586 300.35207413423296" transform="rotate(-290)rotate(-57.857142857142854)" r="58.194368846011486"/>
<text transform="rotate(-379.2857142857143) translate(0,43.694368846011486)">
:
</text>
<text transform="rotate(-385.7142857142857) translate(0,43.694368846011486)">
i
</text>
<text transform="rotate(-392.1428571428571) translate(0,43.694368846011486)">
n
</text>
<text transform="rotate(-398.5714285714286) translate(0,43.694368846011486)">
t
</text>
<text transform="rotate(-405.0) translate(0,43.694368846011486)">
r
</text>
<text transform="rotate(-411.42857142857144) translate(0,43.694368846011486)">
o
</text>
<text transform="rotate(-417.85714285714283) translate(0,43.694368846011486)">
d
</text>
<text transform="rotate(-424.2857142857144) translate(0,43.694368846011486)">
u
</text>
<text transform="rotate(-430.71428571428567) translate(0,43.694368846011486)">
c
</text>
<text transform="rotate(-437.14285714285717) translate(0,43.694368846011486)">
e
</text>
<g class="ring spell def" transform="rotate(-408.2142857142857)translate(0,125.44436884601149)">
<text>
introduce
</text>
<circle r="19.25"/>
<circle r="44.25"/>
<g transform="rotate(-90)">
<line x1="0" y1="46.25" x2="0" y2="67.25" transform="rotate(-90)"/>
<circle stroke-dasharray="52.83587644673742 237.76144401031843" transform="rotate(0)rotate(-32.72727272727273)" r="46.25"/>
<text transform="rotate(-90.0) translate(0,31.75)">
S
</text>
<use href="#sigil_begin" transform="rotate(-90.0) translate(0,31.75) translate(-25.0, -25.0)"/>
<circle stroke-dasharray="26.41793822336871 264.17938223368714" transform="rotate(-99)rotate(0.0)" r="46.25"/>
<use href="#sigil_unknown" transform="rotate(-188.1818181818182) translate(0,31.75) translate(-25.0, -25.0)"/>
<circle stroke-dasharray="132.08969111684357 158.50762934021228" transform="rotate(-164)rotate(-130.9090909090909)" r="46.25"/>
<text transform="rotate(-253.63636363636365) translate(0,31.75)">
p
</text>
<text transform="rotate(-286.3636363636364) translate(0,31.75)">
u
</text>
<text transform="rotate(-319.0909090909091) translate(0,31.75)">
t
</text>
<text transform="rotate(-351.8181818181818) translate(0,31.75)">
s
</text>
<use href="#sigil_unknown" transform="rotate(-319.0909090909091) translate(0,31.75) translate(-25.0, -25.0)"/>
</g>
</g>
</g>
</g>
<circle stroke-dasharray="74.79889746037209 196.34710583347675" transform="rotate(-137)rotate(-86.89655172413794)" r="43.15422672382738"/>
<text transform="rotate(-226.55172413793102) translate(0,28.654226723827378)">
:
</text>
<text transform="rotate(-238.9655172413793) translate(0,28.654226723827378)">
T
</text>
<text transform="rotate(-251.37931034482762) translate(0,28.654226723827378)">
e
</text>
<text transform="rotate(-263.7931034482759) translate(0,28.654226723827378)">
a
</text>
<text transform="rotate(-276.20689655172407) translate(0,28.654226723827378)">
c
</text>
<text transform="rotate(-288.62068965517244) translate(0,28.654226723827378)">
h
</text>
<text transform="rotate(-301.0344827586207) translate(0,28.654226723827378)">
e
</text>
<text transform="rotate(-313.44827586206895) translate(0,28.654226723827378)">
r
</text>
<g class="ring grimoire class" transform="rotate(-270.0)translate(0,118.44929946408743)">
<text>
Teacher
</text>
<path d="M1.6713411731926822e-15,-27.29507274026005 L1.6713411731926822e-15,-27.29507274026005 L23.638226391209336,13.64753637013002 L-23.63822639120933,13.647536370130034 Z"/>
<path d="M23.638226391209333,-13.647536370130025 L23.638226391209333,-13.647536370130025 L7.732064816203717e-15,27.29507274026005 L-23.638226391209344,-13.647536370130009 Z"/>
<circle r="27.29507274026005"/>
<circle r="52.29507274026005"/>
<g transform="rotate(-90)">
<line x1="0" y1="54.29507274026005" x2="0" y2="75.29507274026005" transform="rotate(-90)"/>
<circle stroke-dasharray="13.924326665055053 327.2216766287938" transform="rotate(0)rotate(-7.346938775510203)" r="54.29507274026005"/>
<text transform="rotate(-90.0) translate(0,39.79507274026005)">
G
</text>
<use href="#sigil_begin" transform="rotate(-90.0) translate(0,39.79507274026005) translate(-25.0, -25.0)"/>
<circle stroke-dasharray="76.58379665780278 264.562206636046" transform="rotate(-23)rotate(-73.46938775510203)" r="54.29507274026005"/>
<text transform="rotate(-112.0408163265306) translate(0,39.79507274026005)">
:
</text>
<text transform="rotate(-119.38775510204081) translate(0,39.79507274026005)">
i
</text>
<text transform="rotate(-126.73469387755102) translate(0,39.79507274026005)">
n
</text>
<text transform="rotate(-134.0816326530612) translate(0,39.79507274026005)">
i
</text>
<text transform="rotate(-141.42857142857144) translate(0,39.79507274026005)">
t
</text>
<text transform="rotate(-148.77551020408163) translate(0,39.79507274026005)">
i
</text>
<text transform="rotate(-156.12244897959184) translate(0,39.79507274026005)">
a
</text>
<text transform="rotate(-163.46938775510205) translate(0,39.79507274026005)">
l
</text>
<text transform="rotate(-170.81632653061223) translate(0,39.79507274026005)">
i
</text>
<text transform="rotate(-178.16326530612244) translate(0,39.79507274026005)">
z
</text>
<text transform="rotate(-185.51020408163265) translate(0,39.79507274026005)">
e
</text>
<g class="ring spell def" transform="rotate(-148.77551020408163)translate(0,123.29507274026005)">
<text>
initialize
</text>
<circle r="21.0"/>
<circle r="46.0"/>
<g transform="rotate(-90)">
<line x1="0" y1="48.0" x2="0" y2="69.0" transform="rotate(-90)"/>
<circle stroke-dasharray="201.06192982974676 100.53096491487338" transform="rotate(0)rotate(-119.99999999999999)" r="48.0"/>
<text transform="rotate(-90.0) translate(0,33.5)">
S
</text>
<use href="#sigil_begin" transform="rotate(-90.0) translate(0,33.5) translate(-25.0, -25.0)"/>
</g>
</g>
<circle stroke-dasharray="6.962163332527527 334.18383996132127" transform="rotate(-111)rotate(0.0)" r="54.29507274026005"/>
<use href="#sigil_unknown" transform="rotate(-200.20408163265307) translate(0,39.79507274026005) translate(-25.0, -25.0)"/>
<circle stroke-dasharray="97.47028665538538 243.67571663846343" transform="rotate(-125)rotate(-95.51020408163266)" r="54.29507274026005"/>
<text transform="rotate(-214.8979591836735) translate(0,39.79507274026005)">
a
</text>
<text transform="rotate(-222.24489795918367) translate(0,39.79507274026005)">
t
</text>
<text transform="rotate(-229.59183673469386) translate(0,39.79507274026005)">
t
</text>
<text transform="rotate(-236.93877551020407) translate(0,39.79507274026005)">
r
</text>
<text transform="rotate(-244.2857142857143) translate(0,39.79507274026005)">
_
</text>
<text transform="rotate(-251.63265306122446) translate(0,39.79507274026005)">
a
</text>
<text transform="rotate(-258.9795918367347) translate(0,39.79507274026005)">
c
</text>
<text transform="rotate(-266.3265306122449) translate(0,39.79507274026005)">
c
</text>
<text transform="rotate(-273.6734693877551) translate(0,39.79507274026005)">
e
</text>
<text transform="rotate(-281.0204081632653) translate(0,39.79507274026005)">
s
</text>
<text transform="rotate(-288.36734693877554) translate(0,39.79507274026005)">
s
</text>
<text transform="rotate(-295.7142857142857) translate(0,39.79507274026005)">
o
</text>
<text transform="rotate(-303.0612244897959) translate(0,39.79507274026005)">
r
</text>
<use href="#sigil_unknown" transform="rotate(-258.9795918367347) translate(0,39.79507274026005) translate(-25.0, -25.0)"/>
<circle stroke-dasharray="62.659469992747745 278.4865333011011" transform="rotate(-236)rotate(-58.77551020408164)" r="54.29507274026005"/>
<text transform="rotate(-325.1020408163265) translate(0,39.79507274026005)">
:
</text>
<text transform="rotate(-332.44897959183675) translate(0,39.79507274026005)">
s
</text>
<text transform="rotate(-339.795918367347) translate(0,39.79507274026005)">
u
</text>
<text transform="rotate(-347.1428571428571) translate(0,39.79507274026005)">
b
</text>
<text transform="rotate(-354.48979591836735) translate(0,39.79507274026005)">
j
</text>
<text transform="rotate(-361.83673469387753) translate(0,39.79507274026005)">
e
</text>
<text transform="rotate(-369.1836734693877) translate(0,39.79507274026005)">
c
</text>
<text transform="rotate(-376.53061224489795) translate(0,39.79507274026005)">
t
</text>
<circle stroke-dasharray="41.77297999516516 299.3730232986837" transform="rotate(-309)rotate(-36.73469387755102)" r="54.29507274026005"/>
<text transform="rotate(-398.5714285714286) translate(0,39.79507274026005)">
:
</text>
<text transform="rotate(-405.91836734693874) translate(0,39.79507274026005)">
t
</text>
<text transform="rotate(-413.2653061224489) translate(0,39.79507274026005)">
e
</text>
<text transform="rotate(-420.6122448979592) translate(0,39.79507274026005)">
a
</text>
<text transform="rotate(-427.9591836734694) translate(0,39.79507274026005)">
c
</text>
<text transform="rotate(-435.30612244897964) translate(0,39.79507274026005)">
h
</text>
<g class="ring spell def" transform="rotate(-416.93877551020415)translate(0,114.54507274026005)">
<text>
teach
</text>
<circle r="12.25"/>
<circle r="37.25"/>
<g transform="rotate(-90)">
<line x1="0" y1="39.25" x2="0" y2="60.25" transform="rotate(-90)"/>
<circle stroke-dasharray="44.83909514669068 201.77592816010807" transform="rotate(0)rotate(-32.72727272727273)" r="39.25"/>
<text transform="rotate(-90.0) translate(0,24.75)">
S
</text>
<use href="#sigil_begin" transform="rotate(-90.0) translate(0,24.75) translate(-25.0, -25.0)"/>
<circle stroke-dasharray="22.41954757334534 224.1954757334534" transform="rotate(-99)rotate(0.0)" r="39.25"/>
<use href="#sigil_unknown" transform="rotate(-188.1818181818182) translate(0,24.75) translate(-25.0, -25.0)"/>
<circle stroke-dasharray="112.09773786672672 134.51728544007204" transform="rotate(-164)rotate(-130.9090909090909)" r="39.25"/>
<text transform="rotate(-253.63636363636365) translate(0,24.75)">
p
</text>
<text transform="rotate(-286.3636363636364) translate(0,24.75)">
u
</text>
<text transform="rotate(-319.0909090909091) translate(0,24.75)">
t
</text>
<text transform="rotate(-351.8181818181818) translate(0,24.75)">
s
</text>
<use href="#sigil_unknown" transform="rotate(-319.0909090909091) translate(0,24.75) translate(-25.0, -25.0)"/>
</g>
</g>
</g>
</g>
<circle stroke-dasharray="74.79889746037209 196.34710583347675" transform="rotate(-249)rotate(-86.89655172413794)" r="43.15422672382738"/>
<text transform="rotate(-338.2758620689655) translate(0,28.654226723827378)">
:
</text>
<text transform="rotate(-350.6896551724138) translate(0,28.654226723827378)">
S
</text>
<text transform="rotate(-363.10344827586204) translate(0,28.654226723827378)">
t
</text>
<text transform="rotate(-375.51724137931035) translate(0,28.654226723827378)">
u
</text>
<text transform="rotate(-387.9310344827586) translate(0,28.654226723827378)">
d
</text>
<text transform="rotate(-400.3448275862069) translate(0,28.654226723827378)">
e
</text>
<text transform="rotate(-412.75862068965523) translate(0,28.654226723827378)">
n
</text>
<text transform="rotate(-425.1724137931035) translate(0,28.654226723827378)">
t
</text>
<g class="ring grimoire class" transform="rotate(-381.7241379310345)translate(0,117.33521486244416)">
<text>
Student
</text>
<path d="M1.6031231661235933e-15,-26.180988138616783 L1.6031231661235933e-15,-26.180988138616783 L22.6734008242212,13.090494069308388 L-22.673400824221194,13.0904940693084 Z"/>
<path d="M22.673400824221197,-13.090494069308392 L22.673400824221197,-13.090494069308392 L7.416470333909687e-15,26.180988138616783 L-22.673400824221208,-13.090494069308376 Z"/>
<circle r="26.180988138616783"/>
<circle r="51.18098813861678"/>
<g transform="rotate(-90)">
<line x1="0" y1="53.18098813861678" x2="0" y2="74.18098813861678" transform="rotate(-90)"/>
<circle stroke-dasharray="14.218978863568035 319.92702443028077" transform="rotate(0)rotate(-7.659574468085106)" r="53.18098813861678"/>
<text transform="rotate(-90.0) translate(0,38.68098813861678)">
G
</text>
<use href="#sigil_begin" transform="rotate(-90.0) translate(0,38.68098813861678) translate(-25.0, -25.0)"/>
<circle stroke-dasharray="78.2043837496242 255.94161954422464" transform="rotate(-23)rotate(-76.59574468085106)" r="53.18098813861678"/>
<text transform="rotate(-112.97872340425532) translate(0,38.68098813861678)">
:
</text>
<text transform="rotate(-120.63829787234042) translate(0,38.68098813861678)">
i
</text>
<text transform="rotate(-128.29787234042553) translate(0,38.68098813861678)">
n
</text>
<text transform="rotate(-135.95744680851064) translate(0,38.68098813861678)">
i
</text>
<text transform="rotate(-143.61702127659575) translate(0,38.68098813861678)">
t
</text>
<text transform="rotate(-151.27659574468083) translate(0,38.68098813861678)">
i
</text>
<text transform="rotate(-158.93617021276594) translate(0,38.68098813861678)">
a
</text>
<text transform="rotate(-166.59574468085106) translate(0,38.68098813861678)">
l
</text>
<text transform="rotate(-174.25531914893617) translate(0,38.68098813861678)">
i
</text>
<text transform="rotate(-181.91489361702128) translate(0,38.68098813861678)">
z
</text>
<text transform="rotate(-189.5744680851064) translate(0,38.68098813861678)">
e
</text>
<g class="ring spell def" transform="rotate(-151.27659574468083)translate(0,122.18098813861678)">
<text>
initialize
</text>
<circle r="21.0"/>
<circle r="46.0"/>
<g transform="rotate(-90)">
<line x1="0" y1="48.0" x2="0" y2="69.0" transform="rotate(-90)"/>
<circle stroke-dasharray="201.06192982974676 100.53096491487338" transform="rotate(0)rotate(-119.99999999999999)" r="48.0"/>
<text transform="rotate(-90.0) translate(0,33.5)">
S
</text>
<use href="#sigil_begin" transform="rotate(-90.0) translate(0,33.5) translate(-25.0, -25.0)"/>
</g>
</g>
<circle stroke-dasharray="7.109489431784017 327.0365138620648" transform="rotate(-115)rotate(0.0)" r="53.18098813861678"/>
<use href="#sigil_unknown" transform="rotate(-204.8936170212766) translate(0,38.68098813861678) translate(-25.0, -25.0)"/>
<circle stroke-dasharray="99.53285204497624 234.61315124887258" transform="rotate(-131)rotate(-99.57446808510637)" r="53.18098813861678"/>
<text transform="rotate(-220.2127659574468) translate(0,38.68098813861678)">
a
</text>
<text transform="rotate(-227.87234042553192) translate(0,38.68098813861678)">
t
</text>
<text transform="rotate(-235.531914893617) translate(0,38.68098813861678)">
t
</text>
<text transform="rotate(-243.1914893617021) translate(0,38.68098813861678)">
r
</text>
<text transform="rotate(-250.85106382978725) translate(0,38.68098813861678)">
_
</text>
<text transform="rotate(-258.51063829787233) translate(0,38.68098813861678)">
a
</text>
<text transform="rotate(-266.17021276595744) translate(0,38.68098813861678)">
c
</text>
<text transform="rotate(-273.82978723404256) translate(0,38.68098813861678)">
c
</text>
<text transform="rotate(-281.48936170212767) translate(0,38.68098813861678)">
e
</text>
<text transform="rotate(-289.1489361702128) translate(0,38.68098813861678)">
s
</text>
<text transform="rotate(-296.8085106382979) translate(0,38.68098813861678)">
s
</text>
<text transform="rotate(-304.468085106383) translate(0,38.68098813861678)">
o
</text>
<text transform="rotate(-312.1276595744681) translate(0,38.68098813861678)">
r
</text>
<use href="#sigil_unknown" transform="rotate(-266.17021276595744) translate(0,38.68098813861678) translate(-25.0, -25.0)"/>
<circle stroke-dasharray="49.76642602248812 284.3795772713607" transform="rotate(-246)rotate(-45.95744680851063)" r="53.18098813861678"/>
<text transform="rotate(-335.1063829787234) translate(0,38.68098813861678)">
:
</text>
<text transform="rotate(-342.76595744680856) translate(0,38.68098813861678)">
g
</text>
<text transform="rotate(-350.4255319148936) translate(0,38.68098813861678)">
r
</text>
<text transform="rotate(-358.0851063829787) translate(0,38.68098813861678)">
a
</text>
<text transform="rotate(-365.74468085106383) translate(0,38.68098813861678)">
d
</text>
<text transform="rotate(-373.40425531914894) translate(0,38.68098813861678)">
e
</text>
<circle stroke-dasharray="42.656936590704106 291.4890667031447" transform="rotate(-307)rotate(-38.297872340425535)" r="53.18098813861678"/>
<text transform="rotate(-396.3829787234042) translate(0,38.68098813861678)">
:
</text>
<text transform="rotate(-404.04255319148933) translate(0,38.68098813861678)">
s
</text>
<text transform="rotate(-411.7021276595745) translate(0,38.68098813861678)">
t
</text>
<text transform="rotate(-419.36170212765956) translate(0,38.68098813861678)">
u
</text>
<text transform="rotate(-427.0212765957447) translate(0,38.68098813861678)">
d
</text>
<text transform="rotate(-434.6808510638298) translate(0,38.68098813861678)">
y
</text>
<g class="ring spell def" transform="rotate(-415.53191489361706)translate(0,113.43098813861678)">
<text>
study
</text>
<circle r="12.25"/>
<circle r="37.25"/>
<g transform="rotate(-90)">
<line x1="0" y1="39.25" x2="0" y2="60.25" transform="rotate(-90)"/>
<circle stroke-dasharray="44.83909514669068 201.77592816010807" transform="rotate(0)rotate(-32.72727272727273)" r="39.25"/>
<text transform="rotate(-90.0) translate(0,24.75)">
S
</text>
<use href="#sigil_begin" transform="rotate(-90.0) translate(0,24.75) translate(-25.0, -25.0)"/>
<circle stroke-dasharray="22.41954757334534 224.1954757334534" transform="rotate(-99)rotate(0.0)" r="39.25"/>
<use href="#sigil_unknown" transform="rotate(-188.1818181818182) translate(0,24.75) translate(-25.0, -25.0)"/>
<circle stroke-dasharray="112.09773786672672 134.51728544007204" transform="rotate(-164)rotate(-130.9090909090909)" r="39.25"/>
<text transform="rotate(-253.63636363636365) translate(0,24.75)">
p
</text>
<text transform="rotate(-286.3636363636364) translate(0,24.75)">
u
</text>
<text transform="rotate(-319.0909090909091) translate(0,24.75)">
t
</text>
<text transform="rotate(-351.8181818181818) translate(0,24.75)">
s
</text>
<use href="#sigil_unknown" transform="rotate(-319.0909090909091) translate(0,24.75) translate(-25.0, -25.0)"/>
</g>
</g>
</g>
</g>
</g>
</g>
</g>
</g>
</svg>
