<svg viewBox="-556.007361776815 -160.42970078556039 871.819813822074 740.7103275355091" font-family="Z003" width="100%" height="100%" xmlns="http://www.w3.org/2000/svg">

<style>
* {
    stroke-width: 0.75;
    --color: #9B111E;
}

text {
    font-family: Z003;
    font-size: 12px;
    text-anchor: middle;
    dominant-baseline: middle;
    fill: var(--color);
}

line,
circle,
polygon,
path {
    fill: none;
    stroke: var(--color);
}

.debug {
    fill: none;
    stroke: yellow;
}

text.debug {
    fill: yellow;
    font-family: sans-serif;
    font-size: 10px;
    text-anchor: start;
    dominant-baseline: hanging;
}

</style>
<defs>
<symbol id="sigil_begin" viewBox="-30.0 -30.0 60.0 60.0" width="60.0" height="60.0">
<path d="M1.4695761589768238e-15,-24.0 L1.4695761589768238e-15,-24.0 L14.106846055019355,19.41640786499874 L-22.825356391083687,-7.416407864998735 L22.825356391083684,-7.416407864998737 L-14.106846055019354,19.41640786499874 Z"/>
</symbol>
<symbol id="sigil_bool_true" viewBox="-30.0 -30.0 60.0 60.0" width="60.0" height="60.0">
<text>
T
</text>
<g transform="translate(0,1.5)">
<path d="M9.18485099360515e-16,-15.0 L9.18485099360515e-16,-15.0 L12.99038105676658,7.499999999999997 L-12.990381056766577,7.500000000000005 Z"/>
</g>
</symbol>
<symbol id="sigil_bool_false" viewBox="-30.0 -30.0 60.0 60.0" width="60.0" height="60.0">
<text>
F
</text>
<g transform="translate(0,1.5)">
<path d="M9.18485099360515e-16,-15.0 L9.18485099360515e-16,-15.0 L12.99038105676658,7.499999999999997 L-12.990381056766577,7.500000000000005 Z"/>
</g>
</symbol>
<symbol id="sigil_nil" viewBox="-30.0 -30.0 60.0 60.0" width="60.0" height="60.0">
<text>
N
</text>
<g transform="translate(0,1.5)">
<path d="M9.18485099360515e-16,-15.0 L9.18485099360515e-16,-15.0 L12.99038105676658,7.499999999999997 L-12.990381056766577,7.500000000000005 Z"/>
</g>
</symbol>
<symbol id="sigil_send" viewBox="-30.0 -30.0 60.0 60.0" width="60.0" height="60.0">
<circle r="9.0"/>
<line x1="0" y1="-12.0" x2="0" y2="12.0"/>
</symbol>
<symbol id="sigil_if" viewBox="-30.0 -30.0 60.0 60.0" width="60.0" height="60.0">
<polygon points="0,-18.0 18.0,0 0,18.0 -18.0,0"/>
</symbol>
<symbol id="sigil_block" viewBox="-30.0 -30.0 60.0 60.0" width="60.0" height="60.0">
<circle r="15.0"/>
<circle r="9.0"/>
</symbol>
<symbol id="sigil_assign" viewBox="-30.0 -30.0 60.0 60.0" width="60.0" height="60.0">
<line x1="-18.0" y1="0" x2="18.0" y2="0"/>
</symbol>
<symbol id="sigil_unknown" viewBox="-30.0 -30.0 60.0 60.0" width="60.0" height="60.0">
<circle r="15.0"/>
</symbol>
</defs>
<g class="ring library " transform="">
<text>
module
</text>
<path d="M9.797174393178826e-16,-16.0 L9.797174393178826e-16,-16.0 L9.40456403667957,12.94427190999916 L-15.216904260722458,-4.9442719099991566 L15.216904260722456,-4.944271909999158 L-9.404564036679568,12.94427190999916 Z"/>
<circle r="16.0"/>
<circle r="46.0"/>
<g transform="rotate(-90)">
<circle stroke-dasharray="39.536881458616215 262.0560132860039" transform="rotate(0.0)rotate(-41.26482213438736)" r="48.0" start-angle="0" end-angle="0.8236850303878378"/>
<text transform="rotate(-90.0) translate(0,31.0)">
L
</text>
<use href="#sigil_begin" transform="rotate(-90.0) translate(0,31.0) translate(-30.0, -30.0)"/>
<circle stroke-dasharray="140.8625575585874 160.73033718603273" transform="rotate(-56.91699604743083)rotate(-162.2134387351779)" r="48.0" start-angle="0" end-angle="2.9346366158039046"/>
<text transform="rotate(-146.9169960474308) translate(0,31.0)">
:
</text>
<text transform="rotate(-165.41501976284584) translate(0,31.0)">
S
</text>
<text transform="rotate(-198.1422924901186) translate(0,31.0)">
c
</text>
<text transform="rotate(-222.3320158102767) translate(0,31.0)">
h
</text>
<text transform="rotate(-253.63636363636365) translate(0,31.0)">
o
</text>
<text transform="rotate(-282.09486166007906) translate(0,31.0)">
o
</text>
<text transform="rotate(-310.5533596837945) translate(0,31.0)">
l
</text>
<circle cx="0" cy="48.0" r="2" transform="rotate(-228.02371541501975)"/>
<line x1="0" y1="48.0" x2="0" y2="430.706756671373" transform="rotate(-228.02371541501975)"/>
<g class="ring grimoire module" transform="rotate(-228.02371541501975)translate(0,450.5448426931126)">
<text>
School
</text>
<path d="M1.092267747471929e-15,-17.83808602173963 L1.092267747471929e-15,-17.83808602173963 L17.83808602173963,0.0 L1.092267747471929e-15,17.83808602173963 L-17.83808602173963,2.184535494943858e-15 Z"/>
<circle r="17.83808602173963"/>
<circle r="47.83808602173963"/>
<g transform="rotate(-90)">
<line x1="0" y1="49.83808602173963" x2="0" y2="75.83808602173963" transform="rotate(-90)"/>
<circle stroke-dasharray="23.580637828007344 289.5612920017394" transform="rotate(0.0)rotate(-23.897216274089942)" r="49.83808602173963" start-angle="0" end-angle="0.47314493212522946"/>
<text transform="rotate(-90.0) translate(0,32.83808602173963)">
G
</text>
<use href="#sigil_begin" transform="rotate(-90.0) translate(0,32.83808602173963) translate(-30.0, -30.0)"/>
<circle stroke-dasharray="81.91757122241413 231.22435860733262" transform="rotate(-32.37687366167024)rotate(-90.96359743040685)" r="49.83808602173963" start-angle="0" end-angle="1.6436741007004414"/>
<text transform="rotate(-122.37687366167023) translate(0,32.83808602173963)">
:
</text>
<text transform="rotate(-132.3982869379015) translate(0,32.83808602173963)">
P
</text>
<text transform="rotate(-153.2119914346895) translate(0,32.83808602173963)">
e
</text>
<text transform="rotate(-166.31691648822272) translate(0,32.83808602173963)">
r
</text>
<text transform="rotate(-177.8800856531049) translate(0,32.83808602173963)">
s
</text>
<text transform="rotate(-190.21413276231266) translate(0,32.83808602173963)">
o
</text>
<text transform="rotate(-205.63169164882225) translate(0,32.83808602173963)">
n
</text>
<circle cx="0" cy="49.83808602173963" r="2" transform="rotate(-167.85867237687367)"/>
<line x1="0" y1="49.83808602173963" x2="0" y2="199.5420860217396" transform="rotate(-167.85867237687367)"/>
<g class="ring grimoire class" transform="rotate(-167.85867237687367)translate(0,233.6277225490657)">
<text>
Person
</text>
<path d="M1.9646786035897653e-15,-32.0856365273261 L1.9646786035897653e-15,-32.0856365273261 L31.281182630610893,7.13972580664344 L-13.92143594844315,28.908159617953505 L-25.08556077208974,-20.00506716093389 L25.085560772089735,-20.005067160933894 L13.921435948443154,28.908159617953505 L-31.281182630610893,7.139725806643444 Z"/>
<circle r="32.0856365273261"/>
<circle r="62.0856365273261"/>
<g transform="rotate(-90)">
<line x1="0" y1="64.0856365273261" x2="0" y2="90.0856365273261" transform="rotate(-90)"/>
<circle stroke-dasharray="16.85747364961837 385.8044561801284" transform="rotate(0.0)rotate(-13.285714285714286)" r="64.0856365273261" start-angle="0" end-angle="0.263046051550574"/>
<text transform="rotate(-90.0) translate(0,47.0856365273261)">
G
</text>
<use href="#sigil_begin" transform="rotate(-90.0) translate(0,47.0856365273261) translate(-30.0, -30.0)"/>
<circle stroke-dasharray="78.2154820046274 324.4464478251194" transform="rotate(-18.0)rotate(-68.14285714285714)" r="64.0856365273261" start-angle="0" end-angle="1.220483812644606"/>
<text transform="rotate(-108.0) translate(0,47.0856365273261)">
:
</text>
<text transform="rotate(-113.57142857142857) translate(0,47.0856365273261)">
i
</text>
<text transform="rotate(-118.71428571428571) translate(0,47.0856365273261)">
n
</text>
<text transform="rotate(-128.57142857142858) translate(0,47.0856365273261)">
i
</text>
<text transform="rotate(-133.71428571428572) translate(0,47.0856365273261)">
t
</text>
<text transform="rotate(-140.57142857142856) translate(0,47.0856365273261)">
i
</text>
<text transform="rotate(-145.71428571428572) translate(0,47.0856365273261)">
a
</text>
<text transform="rotate(-154.71428571428572) translate(0,47.0856365273261)">
l
</text>
<text transform="rotate(-159.85714285714283) translate(0,47.0856365273261)">
i
</text>
<text transform="rotate(-165.0) translate(0,47.0856365273261)">
z
</text>
<text transform="rotate(-174.42857142857142) translate(0,47.0856365273261)">
e
</text>
<circle cx="0" cy="64.0856365273261" r="2" transform="rotate(-142.07142857142856)"/>
<line x1="0" y1="64.0856365273261" x2="0" y2="120.08563652732612" transform="rotate(-142.07142857142856)"/>
<g class="ring spell def" transform="rotate(-142.07142857142856)translate(0,142.16563652732611)">
<text>
initialize
</text>
<path d="M-20.08,-2.459090772687885e-15 L-6.205061247048942,-19.097214847206683 L16.245061247048945,-11.802727866032859 L16.245061247048945,11.802727866032859 L-6.205061247048942,19.097214847206683 Z"/>
<circle r="20.08"/>
<circle r="50.08"/>
<g transform="rotate(-90)">
<line x1="0" y1="52.08" x2="0" y2="78.08" transform="rotate(-90)"/>
<circle stroke-dasharray="261.4618205885283 65.76647020938452" transform="rotate(0.0)rotate(-243.52941176470586)" r="52.08" start-angle="0" end-angle="5.020388260148394"/>
<text transform="rotate(-90.0) translate(0,35.08)">
S
</text>
<use href="#sigil_begin" transform="rotate(-90.0) translate(0,35.08) translate(-30.0, -30.0)"/>
</g>
</g>
<circle stroke-dasharray="1.997331001139617 400.66459882860715" transform="rotate(-90.85714285714286)rotate(0.0)" r="64.0856365273261" start-angle="0" end-angle="0.03116659378561303"/>
<use href="#sigil_unknown" transform="rotate(-180.85714285714286) translate(0,47.0856365273261) translate(-30.0, -30.0)"/>
<circle stroke-dasharray="113.20872114459351 289.4532086851533" transform="rotate(-95.57142857142856)rotate(-99.42857142857143)" r="64.0856365273261" start-angle="0" end-angle="1.7665225357685466"/>
<text transform="rotate(-185.57142857142856) translate(0,47.0856365273261)">
a
</text>
<text transform="rotate(-194.57142857142856) translate(0,47.0856365273261)">
t
</text>
<text transform="rotate(-201.42857142857142) translate(0,47.0856365273261)">
t
</text>
<text transform="rotate(-208.28571428571428) translate(0,47.0856365273261)">
r
</text>
<text transform="rotate(-214.71428571428572) translate(0,47.0856365273261)">
_
</text>
<text transform="rotate(-225.42857142857144) translate(0,47.0856365273261)">
a
</text>
<text transform="rotate(-234.42857142857142) translate(0,47.0856365273261)">
c
</text>
<text transform="rotate(-241.71428571428572) translate(0,47.0856365273261)">
c
</text>
<text transform="rotate(-248.99999999999997) translate(0,47.0856365273261)">
e
</text>
<text transform="rotate(-256.2857142857143) translate(0,47.0856365273261)">
s
</text>
<text transform="rotate(-263.1428571428571) translate(0,47.0856365273261)">
s
</text>
<text transform="rotate(-270.0) translate(0,47.0856365273261)">
o
</text>
<text transform="rotate(-278.57142857142856) translate(0,47.0856365273261)">
r
</text>
<use href="#sigil_send" transform="rotate(-196.28571428571428) translate(0,47.0856365273261) translate(-30.0, -30.0)"/>
<circle stroke-dasharray="52.33007222985796 350.33185759988885" transform="rotate(-199.71428571428572)rotate(-45.0)" r="64.0856365273261" start-angle="0" end-angle="0.8165647571830613"/>
<text transform="rotate(-289.7142857142857) translate(0,47.0856365273261)">
:
</text>
<text transform="rotate(-295.28571428571433) translate(0,47.0856365273261)">
n
</text>
<text transform="rotate(-305.1428571428571) translate(0,47.0856365273261)">
a
</text>
<text transform="rotate(-314.14285714285717) translate(0,47.0856365273261)">
m
</text>
<text transform="rotate(-327.42857142857144) translate(0,47.0856365273261)">
e
</text>
<circle stroke-dasharray="36.031851260558696 366.6300785691881" transform="rotate(-249.42857142857144)rotate(-30.42857142857143)" r="64.0856365273261" start-angle="0" end-angle="0.562245351892459"/>
<text transform="rotate(-339.42857142857144) translate(0,47.0856365273261)">
:
</text>
<text transform="rotate(-345.0) translate(0,47.0856365273261)">
a
</text>
<text transform="rotate(-354.0) translate(0,47.0856365273261)">
g
</text>
<text transform="rotate(-362.5714285714286) translate(0,47.0856365273261)">
e
</text>
<circle stroke-dasharray="81.09163864626846 321.57029118347833" transform="rotate(-284.5714285714286)rotate(-70.71428571428572)" r="64.0856365273261" start-angle="0" end-angle="1.265363707695889"/>
<text transform="rotate(-374.5714285714286) translate(0,47.0856365273261)">
:
</text>
<text transform="rotate(-380.14285714285717) translate(0,47.0856365273261)">
i
</text>
<text transform="rotate(-385.28571428571433) translate(0,47.0856365273261)">
n
</text>
<text transform="rotate(-395.14285714285717) translate(0,47.0856365273261)">
t
</text>
<text transform="rotate(-402.0) translate(0,47.0856365273261)">
r
</text>
<text transform="rotate(-408.42857142857144) translate(0,47.0856365273261)">
o
</text>
<text transform="rotate(-417.0) translate(0,47.0856365273261)">
d
</text>
<text transform="rotate(-426.42857142857144) translate(0,47.0856365273261)">
u
</text>
<text transform="rotate(-436.28571428571433) translate(0,47.0856365273261)">
c
</text>
<text transform="rotate(-443.5714285714286) translate(0,47.0856365273261)">
e
</text>
<circle cx="0" cy="64.0856365273261" r="2" transform="rotate(-409.92857142857144)"/>
<line x1="0" y1="64.0856365273261" x2="0" y2="120.08563652732609" transform="rotate(-409.92857142857144)"/>
<g class="ring spell def" transform="rotate(-409.92857142857144)translate(0,142.88563652732608)">
<text>
introduce
</text>
<path d="M1.2736326711132475e-15,-20.8 L1.2736326711132475e-15,-20.8 L18.013328398716325,10.399999999999997 L-18.01332839871632,10.400000000000007 Z"/>
<circle r="20.8"/>
<circle r="50.8"/>
<g transform="rotate(-90)">
<line x1="0" y1="52.8" x2="0" y2="78.8" transform="rotate(-90)"/>
<circle stroke-dasharray="67.76391732795787 263.9882668911243" transform="rotate(0.0)rotate(-62.25563909774435)" r="52.8" start-angle="0" end-angle="1.2834075251507173"/>
<text transform="rotate(-90.0) translate(0,35.8)">
S
</text>
<use href="#sigil_begin" transform="rotate(-90.0) translate(0,35.8) translate(-30.0, -30.0)"/>
<circle stroke-dasharray="10.39323885398127 321.3589453651009" transform="rotate(-92.03007518796991)rotate(0.0)" r="52.8" start-angle="0" end-angle="0.19684164496176648"/>
<use href="#sigil_unknown" transform="rotate(-182.0300751879699) translate(0,35.8) translate(-30.0, -30.0)"/>
<circle stroke-dasharray="202.46029287555513 129.29189134352703" transform="rotate(-121.80451127819549)rotate(-208.42105263157893)" r="52.8" start-angle="0" end-angle="3.834475243855211"/>
<text transform="rotate(-211.8045112781955) translate(0,35.8)">
p
</text>
<text transform="rotate(-271.3533834586466) translate(0,35.8)">
u
</text>
<text transform="rotate(-333.609022556391) translate(0,35.8)">
t
</text>
<text transform="rotate(-376.9172932330827) translate(0,35.8)">
s
</text>
<use href="#sigil_send" transform="rotate(-234.3609022556391) translate(0,35.8) translate(-30.0, -30.0)"/>
</g>
</g>
</g>
</g>
<circle stroke-dasharray="92.64620265127053 220.49572717847622" transform="rotate(-131.8201284796574)rotate(-103.29764453961454)" r="49.83808602173963" start-angle="0" end-angle="1.8589438328522043"/>
<text transform="rotate(-221.8201284796574) translate(0,32.83808602173963)">
:
</text>
<text transform="rotate(-231.8415417558886) translate(0,32.83808602173963)">
T
</text>
<text transform="rotate(-251.11349036402567) translate(0,32.83808602173963)">
e
</text>
<text transform="rotate(-264.21841541755884) translate(0,32.83808602173963)">
a
</text>
<text transform="rotate(-280.406852248394) translate(0,32.83808602173963)">
c
</text>
<text transform="rotate(-293.51177730192717) translate(0,32.83808602173963)">
h
</text>
<text transform="rotate(-310.4710920770878) translate(0,32.83808602173963)">
e
</text>
<text transform="rotate(-323.576017130621) translate(0,32.83808602173963)">
r
</text>
<circle cx="0" cy="49.83808602173963" r="2" transform="rotate(-273.4689507494646)"/>
<line x1="0" y1="49.83808602173963" x2="0" y2="198.18848602173964" transform="rotate(-273.4689507494646)"/>
<g class="ring grimoire class" transform="rotate(-273.4689507494646)translate(0,227.49947425630887)">
<text>
Teacher
</text>
<path d="M1.672315716150812e-15,-27.31098823456924 L1.672315716150812e-15,-27.31098823456924 L23.65200961359488,13.655494117284615 L-23.652009613594874,13.65549411728463 Z"/>
<path d="M23.652009613594878,-13.65549411728462 L23.652009613594878,-13.65549411728462 L7.736573308807918e-15,27.31098823456924 L-23.652009613594892,-13.655494117284604 Z"/>
<circle r="27.31098823456924"/>
<circle r="57.31098823456924"/>
<g transform="rotate(-90)">
<line x1="0" y1="59.31098823456924" x2="0" y2="85.31098823456924" transform="rotate(-90)"/>
<circle stroke-dasharray="18.3290599519992 354.3328698777475" transform="rotate(0.0)rotate(-15.608391608391612)" r="59.31098823456924" start-angle="0" end-angle="0.309033123499975"/>
<text transform="rotate(-90.0) translate(0,42.31098823456924)">
G
</text>
<use href="#sigil_begin" transform="rotate(-90.0) translate(0,42.31098823456924) translate(-30.0, -30.0)"/>
<circle stroke-dasharray="85.04336347396784 287.61856635577885" transform="rotate(-21.14685314685315)rotate(-80.05594405594404)" r="59.31098823456924" start-angle="0" end-angle="1.4338551085614952"/>
<text transform="rotate(-111.14685314685315) translate(0,42.31098823456924)">
:
</text>
<text transform="rotate(-117.6923076923077) translate(0,42.31098823456924)">
i
</text>
<text transform="rotate(-123.73426573426573) translate(0,42.31098823456924)">
n
</text>
<text transform="rotate(-135.3146853146853) translate(0,42.31098823456924)">
i
</text>
<text transform="rotate(-141.35664335664336) translate(0,42.31098823456924)">
t
</text>
<text transform="rotate(-149.4125874125874) translate(0,42.31098823456924)">
i
</text>
<text transform="rotate(-155.45454545454544) translate(0,42.31098823456924)">
a
</text>
<text transform="rotate(-166.02797202797203) translate(0,42.31098823456924)">
l
</text>
<text transform="rotate(-172.06993006993008) translate(0,42.31098823456924)">
i
</text>
<text transform="rotate(-178.1118881118881) translate(0,42.31098823456924)">
z
</text>
<text transform="rotate(-189.18881118881114) translate(0,42.31098823456924)">
e
</text>
<circle cx="0" cy="59.31098823456924" r="2" transform="rotate(-151.17482517482517)"/>
<line x1="0" y1="59.31098823456924" x2="0" y2="115.31098823456925" transform="rotate(-151.17482517482517)"/>
<g class="ring spell def" transform="rotate(-151.17482517482517)translate(0,137.39098823456925)">
<text>
initialize
</text>
<path d="M-20.08,-2.459090772687885e-15 L-6.205061247048942,-19.097214847206683 L16.245061247048945,-11.802727866032859 L16.245061247048945,11.802727866032859 L-6.205061247048942,19.097214847206683 Z"/>
<circle r="20.08"/>
<circle r="50.08"/>
<g transform="rotate(-90)">
<line x1="0" y1="52.08" x2="0" y2="78.08" transform="rotate(-90)"/>
<circle stroke-dasharray="261.4618205885283 65.76647020938452" transform="rotate(0.0)rotate(-243.52941176470586)" r="52.08" start-angle="0" end-angle="5.020388260148394"/>
<text transform="rotate(-90.0) translate(0,35.08)">
S
</text>
<use href="#sigil_begin" transform="rotate(-90.0) translate(0,35.08) translate(-30.0, -30.0)"/>
</g>
</g>
<circle stroke-dasharray="2.171689567772417 370.4902402619743" transform="rotate(-106.74125874125875)rotate(0.0)" r="59.31098823456924" start-angle="0" end-angle="0.03661529899288803"/>
<use href="#sigil_unknown" transform="rotate(-196.74125874125872) translate(0,42.31098823456924) translate(-30.0, -30.0)"/>
<circle stroke-dasharray="123.0913647013406 249.57056512840614" transform="rotate(-112.27972027972027)rotate(-116.81118881118883)" r="59.31098823456924" start-angle="0" end-angle="2.075355146916894"/>
<text transform="rotate(-202.27972027972027) translate(0,42.31098823456924)">
a
</text>
<text transform="rotate(-212.85314685314682) translate(0,42.31098823456924)">
t
</text>
<text transform="rotate(-220.90909090909088) translate(0,42.31098823456924)">
t
</text>
<text transform="rotate(-228.96503496503496) translate(0,42.31098823456924)">
r
</text>
<text transform="rotate(-236.51748251748253) translate(0,42.31098823456924)">
_
</text>
<text transform="rotate(-249.10489510489512) translate(0,42.31098823456924)">
a
</text>
<text transform="rotate(-259.6783216783217) translate(0,42.31098823456924)">
c
</text>
<text transform="rotate(-268.23776223776224) translate(0,42.31098823456924)">
c
</text>
<text transform="rotate(-276.7972027972028) translate(0,42.31098823456924)">
e
</text>
<text transform="rotate(-285.35664335664336) translate(0,42.31098823456924)">
s
</text>
<text transform="rotate(-293.4125874125874) translate(0,42.31098823456924)">
s
</text>
<text transform="rotate(-301.46853146853147) translate(0,42.31098823456924)">
o
</text>
<text transform="rotate(-311.53846153846155) translate(0,42.31098823456924)">
r
</text>
<use href="#sigil_send" transform="rotate(-214.86713286713285) translate(0,42.31098823456924) translate(-30.0, -30.0)"/>
<circle stroke-dasharray="72.01322606733333 300.6487037624134" transform="rotate(-234.62937062937064)rotate(-67.46853146853147)" r="59.31098823456924" start-angle="0" end-angle="1.214163314604167"/>
<text transform="rotate(-324.62937062937067) translate(0,42.31098823456924)">
:
</text>
<text transform="rotate(-331.1748251748252) translate(0,42.31098823456924)">
s
</text>
<text transform="rotate(-339.2307692307692) translate(0,42.31098823456924)">
u
</text>
<text transform="rotate(-350.8111888111888) translate(0,42.31098823456924)">
b
</text>
<text transform="rotate(-361.3846153846154) translate(0,42.31098823456924)">
j
</text>
<text transform="rotate(-366.92307692307696) translate(0,42.31098823456924)">
e
</text>
<text transform="rotate(-375.48251748251755) translate(0,42.31098823456924)">
c
</text>
<text transform="rotate(-384.0419580419581) translate(0,42.31098823456924)">
t
</text>
<circle stroke-dasharray="50.64380072045277 322.01812910929397" transform="rotate(-307.6363636363636)rotate(-46.82517482517483)" r="59.31098823456924" start-angle="0" end-angle="0.8538687725141489"/>
<text transform="rotate(-397.6363636363636) translate(0,42.31098823456924)">
:
</text>
<text transform="rotate(-404.1818181818182) translate(0,42.31098823456924)">
t
</text>
<text transform="rotate(-412.23776223776224) translate(0,42.31098823456924)">
e
</text>
<text transform="rotate(-420.7972027972028) translate(0,42.31098823456924)">
a
</text>
<text transform="rotate(-431.37062937062933) translate(0,42.31098823456924)">
c
</text>
<text transform="rotate(-439.9300699300699) translate(0,42.31098823456924)">
h
</text>
<circle cx="0" cy="59.31098823456924" r="2" transform="rotate(-421.048951048951)"/>
<line x1="0" y1="59.31098823456924" x2="0" y2="115.31098823456924" transform="rotate(-421.048951048951)"/>
<g class="ring spell def" transform="rotate(-421.048951048951)translate(0,129.47098823456923)">
<text>
teach
</text>
<path d="M7.445852538815908e-16,-12.16 L7.445852538815908e-16,-12.16 L10.530868910018775,6.079999999999998 L-10.530868910018771,6.0800000000000045 Z"/>
<circle r="12.16"/>
<circle r="42.16"/>
<g transform="rotate(-90)">
<line x1="0" y1="44.16" x2="0" y2="70.16" transform="rotate(-90)"/>
<circle stroke-dasharray="56.67527631065567 220.79018685439482" transform="rotate(0.0)rotate(-62.25563909774435)" r="44.16" start-angle="0" end-angle="1.2834075251507173"/>
<text transform="rotate(-90.0) translate(0,27.16)">
S
</text>
<use href="#sigil_begin" transform="rotate(-90.0) translate(0,27.16) translate(-30.0, -30.0)"/>
<circle stroke-dasharray="8.692527041511607 268.7729361235389" transform="rotate(-92.03007518796991)rotate(0.0)" r="44.16" start-angle="0" end-angle="0.19684164496176648"/>
<use href="#sigil_unknown" transform="rotate(-182.0300751879699) translate(0,27.16) translate(-30.0, -30.0)"/>
<circle stroke-dasharray="169.3304267686461 108.13503639640439" transform="rotate(-121.80451127819549)rotate(-208.42105263157893)" r="44.16" start-angle="0" end-angle="3.834475243855211"/>
<text transform="rotate(-211.8045112781955) translate(0,27.16)">
p
</text>
<text transform="rotate(-271.3533834586466) translate(0,27.16)">
u
</text>
<text transform="rotate(-333.609022556391) translate(0,27.16)">
t
</text>
<text transform="rotate(-376.9172932330827) translate(0,27.16)">
s
</text>
<use href="#sigil_send" transform="rotate(-234.3609022556391) translate(0,27.16) translate(-30.0, -30.0)"/>
</g>
</g>
</g>
</g>
<circle stroke-dasharray="96.6694394370917 216.47249039265506" transform="rotate(-243.59743040685225)rotate(-107.92291220556746)" r="49.83808602173963" start-angle="0" end-angle="1.9396699824091157"/>
<text transform="rotate(-333.59743040685225) translate(0,32.83808602173963)">
:
</text>
<text transform="rotate(-343.6188436830835) translate(0,32.83808602173963)">
S
</text>
<text transform="rotate(-361.34903640256965) translate(0,32.83808602173963)">
t
</text>
<text transform="rotate(-373.68308351177734) translate(0,32.83808602173963)">
u
</text>
<text transform="rotate(-391.4132762312634) translate(0,32.83808602173963)">
d
</text>
<text transform="rotate(-408.372591006424) translate(0,32.83808602173963)">
e
</text>
<text transform="rotate(-421.4775160599572) translate(0,32.83808602173963)">
n
</text>
<text transform="rotate(-439.20770877944324) translate(0,32.83808602173963)">
t
</text>
<circle cx="0" cy="49.83808602173963" r="2" transform="rotate(-387.55888650963595)"/>
<line x1="0" y1="49.83808602173963" x2="0" y2="198.18848602173966" transform="rotate(-387.55888650963595)"/>
<g class="ring grimoire class" transform="rotate(-387.55888650963595)translate(0,226.6591361567837)">
<text>
Student
</text>
<path d="M1.6208598479615563e-15,-26.470650135044032 L1.6208598479615563e-15,-26.470650135044032 L22.924255471638116,13.235325067522012 L-22.92425547163811,13.235325067522025 Z"/>
<path d="M22.924255471638112,-13.235325067522016 L22.924255471638112,-13.235325067522016 L7.498524899306135e-15,26.470650135044032 L-22.924255471638123,-13.235325067522 Z"/>
<circle r="26.470650135044032"/>
<circle r="56.47065013504403"/>
<g transform="rotate(-90)">
<line x1="0" y1="58.47065013504403" x2="0" y2="84.47065013504402" transform="rotate(-90)"/>
<circle stroke-dasharray="18.64299836317378 348.738931466573" transform="rotate(0.0)rotate(-16.10389610389611)" r="58.47065013504403" start-angle="0" end-angle="0.3188436988491806"/>
<text transform="rotate(-90.0) translate(0,41.47065013504403)">
G
</text>
<use href="#sigil_begin" transform="rotate(-90.0) translate(0,41.47065013504403) translate(-30.0, -30.0)"/>
<circle stroke-dasharray="86.49997818742715 280.8819516423196" transform="rotate(-21.81818181818182)rotate(-82.59740259740259)" r="58.47065013504403" start-angle="0" end-angle="1.4793743183570982"/>
<text transform="rotate(-111.81818181818181) translate(0,41.47065013504403)">
:
</text>
<text transform="rotate(-118.57142857142857) translate(0,41.47065013504403)">
i
</text>
<text transform="rotate(-124.8051948051948) translate(0,41.47065013504403)">
n
</text>
<text transform="rotate(-136.75324675324674) translate(0,41.47065013504403)">
i
</text>
<text transform="rotate(-142.98701298701297) translate(0,41.47065013504403)">
t
</text>
<text transform="rotate(-151.2987012987013) translate(0,41.47065013504403)">
i
</text>
<text transform="rotate(-157.53246753246754) translate(0,41.47065013504403)">
a
</text>
<text transform="rotate(-168.4415584415584) translate(0,41.47065013504403)">
l
</text>
<text transform="rotate(-174.67532467532465) translate(0,41.47065013504403)">
i
</text>
<text transform="rotate(-180.90909090909088) translate(0,41.47065013504403)">
z
</text>
<text transform="rotate(-192.33766233766232) translate(0,41.47065013504403)">
e
</text>
<circle cx="0" cy="58.47065013504403" r="2" transform="rotate(-153.11688311688312)"/>
<line x1="0" y1="58.47065013504403" x2="0" y2="114.47065013504404" transform="rotate(-153.11688311688312)"/>
<g class="ring spell def" transform="rotate(-153.11688311688312)translate(0,136.55065013504404)">
<text>
initialize
</text>
<path d="M-20.08,-2.459090772687885e-15 L-6.205061247048942,-19.097214847206683 L16.245061247048945,-11.802727866032859 L16.245061247048945,11.802727866032859 L-6.205061247048942,19.097214847206683 Z"/>
<circle r="20.08"/>
<circle r="50.08"/>
<g transform="rotate(-90)">
<line x1="0" y1="52.08" x2="0" y2="78.08" transform="rotate(-90)"/>
<circle stroke-dasharray="261.4618205885283 65.76647020938452" transform="rotate(0.0)rotate(-243.52941176470586)" r="52.08" start-angle="0" end-angle="5.020388260148394"/>
<text transform="rotate(-90.0) translate(0,35.08)">
S
</text>
<use href="#sigil_begin" transform="rotate(-90.0) translate(0,35.08) translate(-30.0, -30.0)"/>
</g>
</g>
<circle stroke-dasharray="2.2088860619874144 365.17304376775934" transform="rotate(-110.12987012987013)rotate(0.0)" r="58.47065013504403" start-angle="0" end-angle="0.0377776894371067"/>
<use href="#sigil_unknown" transform="rotate(-200.1298701298701) translate(0,41.47065013504403) translate(-30.0, -30.0)"/>
<circle stroke-dasharray="125.19966199344664 242.18226783630013" transform="rotate(-115.84415584415584)rotate(-120.51948051948052)" r="58.47065013504403" start-angle="0" end-angle="2.1412394372952077"/>
<text transform="rotate(-205.84415584415584) translate(0,41.47065013504403)">
a
</text>
<text transform="rotate(-216.75324675324674) translate(0,41.47065013504403)">
t
</text>
<text transform="rotate(-225.06493506493507) translate(0,41.47065013504403)">
t
</text>
<text transform="rotate(-233.37662337662337) translate(0,41.47065013504403)">
r
</text>
<text transform="rotate(-241.1688311688312) translate(0,41.47065013504403)">
_
</text>
<text transform="rotate(-254.15584415584416) translate(0,41.47065013504403)">
a
</text>
<text transform="rotate(-265.06493506493507) translate(0,41.47065013504403)">
c
</text>
<text transform="rotate(-273.8961038961039) translate(0,41.47065013504403)">
c
</text>
<text transform="rotate(-282.7272727272727) translate(0,41.47065013504403)">
e
</text>
<text transform="rotate(-291.5584415584416) translate(0,41.47065013504403)">
s
</text>
<text transform="rotate(-299.87012987012986) translate(0,41.47065013504403)">
s
</text>
<text transform="rotate(-308.1818181818182) translate(0,41.47065013504403)">
o
</text>
<text transform="rotate(-318.57142857142856) translate(0,41.47065013504403)">
r
</text>
<use href="#sigil_send" transform="rotate(-218.8311688311688) translate(0,41.47065013504403) translate(-30.0, -30.0)"/>
<circle stroke-dasharray="59.4632127887012 307.91871704104557" transform="rotate(-242.0779220779221)rotate(-56.10389610389611)" r="58.47065013504403" start-angle="0" end-angle="1.0169753996469124"/>
<text transform="rotate(-332.0779220779221) translate(0,41.47065013504403)">
:
</text>
<text transform="rotate(-338.83116883116884) translate(0,41.47065013504403)">
g
</text>
<text transform="rotate(-349.2207792207792) translate(0,41.47065013504403)">
r
</text>
<text transform="rotate(-357.012987012987) translate(0,41.47065013504403)">
a
</text>
<text transform="rotate(-367.92207792207796) translate(0,41.47065013504403)">
d
</text>
<text transform="rotate(-379.35064935064935) translate(0,41.47065013504403)">
e
</text>
<circle stroke-dasharray="53.631753585054426 313.75017624469234" transform="rotate(-303.8961038961039)rotate(-50.3896103896104)" r="58.47065013504403" start-angle="0" end-angle="0.9172422995329508"/>
<text transform="rotate(-393.8961038961039) translate(0,41.47065013504403)">
:
</text>
<text transform="rotate(-400.64935064935065) translate(0,41.47065013504403)">
s
</text>
<text transform="rotate(-408.961038961039) translate(0,41.47065013504403)">
t
</text>
<text transform="rotate(-417.2727272727273) translate(0,41.47065013504403)">
u
</text>
<text transform="rotate(-429.22077922077926) translate(0,41.47065013504403)">
d
</text>
<text transform="rotate(-440.64935064935065) translate(0,41.47065013504403)">
y
</text>
<circle cx="0" cy="58.47065013504403" r="2" transform="rotate(-419.0909090909092)"/>
<line x1="0" y1="58.47065013504403" x2="0" y2="114.47065013504404" transform="rotate(-419.0909090909092)"/>
<g class="ring spell def" transform="rotate(-419.0909090909092)translate(0,129.11065013504404)">
<text>
study
</text>
<path d="M7.739767770611273e-16,-12.64 L7.739767770611273e-16,-12.64 L10.946561103835306,6.3199999999999985 L-10.946561103835302,6.320000000000005 Z"/>
<circle r="12.64"/>
<circle r="42.64"/>
<g transform="rotate(-90)">
<line x1="0" y1="44.64" x2="0" y2="70.64" transform="rotate(-90)"/>
<circle stroke-dasharray="57.29131192272802 223.1900801897687" transform="rotate(0.0)rotate(-62.25563909774435)" r="44.64" start-angle="0" end-angle="1.2834075251507173"/>
<text transform="rotate(-90.0) translate(0,27.64)">
S
</text>
<use href="#sigil_begin" transform="rotate(-90.0) translate(0,27.64) translate(-30.0, -30.0)"/>
<circle stroke-dasharray="8.787011031093256 271.6943810814035" transform="rotate(-92.03007518796991)rotate(0.0)" r="44.64" start-angle="0" end-angle="0.19684164496176648"/>
<use href="#sigil_unknown" transform="rotate(-182.0300751879699) translate(0,27.64) translate(-30.0, -30.0)"/>
<circle stroke-dasharray="171.17097488569664 109.3104172268001" transform="rotate(-121.80451127819549)rotate(-208.42105263157893)" r="44.64" start-angle="0" end-angle="3.834475243855211"/>
<text transform="rotate(-211.8045112781955) translate(0,27.64)">
p
</text>
<text transform="rotate(-271.3533834586466) translate(0,27.64)">
u
</text>
<text transform="rotate(-333.609022556391) translate(0,27.64)">
t
</text>
<text transform="rotate(-376.9172932330827) translate(0,27.64)">
s
</text>
<use href="#sigil_send" transform="rotate(-234.3609022556391) translate(0,27.64) translate(-30.0, -30.0)"/>
</g>
</g>
</g>
</g>
</g>
</g>
<circle stroke-dasharray="96.75608678565877 204.83680795896137" transform="rotate(-234.7826086956522)rotate(-109.56521739130436)" r="48.0" start-angle="0" end-angle="2.015751808034558"/>
<text transform="rotate(-324.7826086956522) translate(0,31.0)">
:
</text>
<text transform="rotate(-343.28063241106724) translate(0,31.0)">
e
</text>
<text transform="rotate(-367.4703557312253) translate(0,31.0)">
a
</text>
<text transform="rotate(-397.35177865612656) translate(0,31.0)">
c
</text>
<text transform="rotate(-421.5415019762847) translate(0,31.0)">
h
</text>
<circle cx="0" cy="48.0" r="2" transform="rotate(-379.56521739130443)"/>
<line x1="0" y1="48.0" x2="0" y2="219.0646180920192" transform="rotate(-379.56521739130443)"/>
<g class="ring spell block" transform="rotate(-379.56521739130443)translate(0,255.82405766328915)">
<text>
each
</text>
<path d="M2.128401820555579e-15,-34.759439571269944 L2.128401820555579e-15,-34.759439571269944 L30.10255769002985,17.379719785634965 L-30.102557690029844,17.379719785634983 Z"/>
<path d="M30.102557690029847,-17.379719785634972 L30.102557690029847,-17.379719785634972 L9.846547847573713e-15,34.759439571269944 L-30.10255769002986,-17.37971978563495 Z"/>
<circle r="34.759439571269944"/>
<circle r="64.75943957126995"/>
<g transform="rotate(-90)">
<line x1="0" y1="66.75943957126995" x2="0" y2="92.75943957126995" transform="rotate(-90)"/>
<circle stroke-dasharray="12.522398271474126 406.9395315582727" transform="rotate(0.0)rotate(-9.098901098901099)" r="66.75943957126995" start-angle="0" end-angle="0.1875749459835664"/>
<text transform="rotate(-90.0) translate(0,49.759439571269944)">
S
</text>
<use href="#sigil_begin" transform="rotate(-90.0) translate(0,49.759439571269944) translate(-30.0, -30.0)"/>
<circle stroke-dasharray="113.93077691163269 305.5311529181141" transform="rotate(-13.450549450549449)rotate(-96.13186813186813)" r="66.75943957126995" start-angle="0" end-angle="1.7065867784885214"/>
<text transform="rotate(-103.45054945054945) translate(0,49.759439571269944)">
(
</text>
<text transform="rotate(-108.5934065934066) translate(0,49.759439571269944)">
l
</text>
<text transform="rotate(-113.34065934065933) translate(0,49.759439571269944)">
v
</text>
<text transform="rotate(-122.04395604395604) translate(0,49.759439571269944)">
a
</text>
<text transform="rotate(-130.35164835164835) translate(0,49.759439571269944)">
r
</text>
<text transform="rotate(-136.28571428571428) translate(0,49.759439571269944)">
 
</text>
<text transform="rotate(-140.63736263736263) translate(0,49.759439571269944)">
:
</text>
<text transform="rotate(-145.7802197802198) translate(0,49.759439571269944)">
t
</text>
<text transform="rotate(-152.10989010989013) translate(0,49.759439571269944)">
e
</text>
<text transform="rotate(-158.83516483516485) translate(0,49.759439571269944)">
a
</text>
<text transform="rotate(-167.1428571428571) translate(0,49.759439571269944)">
c
</text>
<text transform="rotate(-173.86813186813185) translate(0,49.759439571269944)">
h
</text>
<text transform="rotate(-182.57142857142856) translate(0,49.759439571269944)">
e
</text>
<text transform="rotate(-189.2967032967033) translate(0,49.759439571269944)">
r
</text>
<text transform="rotate(-195.23076923076923) translate(0,49.759439571269944)">
)
</text>
<use href="#sigil_unknown" transform="rotate(-114.98901098901099) translate(0,49.759439571269944) translate(-30.0, -30.0)"/>
<circle stroke-dasharray="77.97689721194011 341.48503261780667" transform="rotate(-113.93406593406594)rotate(-65.27472527472528)" r="66.75943957126995" start-angle="0" end-angle="1.1680280378731283"/>
<text transform="rotate(-203.93406593406593) translate(0,49.759439571269944)">
i
</text>
<text transform="rotate(-208.68131868131866) translate(0,49.759439571269944)">
n
</text>
<text transform="rotate(-217.7802197802198) translate(0,49.759439571269944)">
t
</text>
<text transform="rotate(-224.1098901098901) translate(0,49.759439571269944)">
r
</text>
<text transform="rotate(-230.04395604395603) translate(0,49.759439571269944)">
o
</text>
<text transform="rotate(-237.95604395604397) translate(0,49.759439571269944)">
d
</text>
<text transform="rotate(-246.65934065934064) translate(0,49.759439571269944)">
u
</text>
<text transform="rotate(-255.75824175824175) translate(0,49.759439571269944)">
c
</text>
<text transform="rotate(-262.4835164835165) translate(0,49.759439571269944)">
e
</text>
<use href="#sigil_send" transform="rotate(-210.52747252747253) translate(0,49.759439571269944) translate(-30.0, -30.0)"/>
<circle stroke-dasharray="113.93077691163269 305.5311529181141" transform="rotate(-183.5604395604396)rotate(-96.13186813186813)" r="66.75943957126995" start-angle="0" end-angle="1.7065867784885214"/>
<text transform="rotate(-273.5604395604396) translate(0,49.759439571269944)">
(
</text>
<text transform="rotate(-278.7032967032967) translate(0,49.759439571269944)">
l
</text>
<text transform="rotate(-283.4505494505495) translate(0,49.759439571269944)">
v
</text>
<text transform="rotate(-292.1538461538462) translate(0,49.759439571269944)">
a
</text>
<text transform="rotate(-300.46153846153845) translate(0,49.759439571269944)">
r
</text>
<text transform="rotate(-306.39560439560444) translate(0,49.759439571269944)">
 
</text>
<text transform="rotate(-310.7472527472528) translate(0,49.759439571269944)">
:
</text>
<text transform="rotate(-315.8901098901099) translate(0,49.759439571269944)">
t
</text>
<text transform="rotate(-322.21978021978026) translate(0,49.759439571269944)">
e
</text>
<text transform="rotate(-328.94505494505495) translate(0,49.759439571269944)">
a
</text>
<text transform="rotate(-337.2527472527472) translate(0,49.759439571269944)">
c
</text>
<text transform="rotate(-343.97802197802196) translate(0,49.759439571269944)">
h
</text>
<text transform="rotate(-352.6813186813187) translate(0,49.759439571269944)">
e
</text>
<text transform="rotate(-359.4065934065934) translate(0,49.759439571269944)">
r
</text>
<text transform="rotate(-365.3406593406594) translate(0,49.759439571269944)">
)
</text>
<use href="#sigil_unknown" transform="rotate(-285.09890109890114) translate(0,49.759439571269944) translate(-30.0, -30.0)"/>
<circle stroke-dasharray="44.788700566070034 374.6732292636768" transform="rotate(-284.04395604395603)rotate(-36.79120879120879)" r="66.75943957126995" start-angle="0" end-angle="0.6708968926896884"/>
<text transform="rotate(-374.04395604395603) translate(0,49.759439571269944)">
t
</text>
<text transform="rotate(-380.3736263736264) translate(0,49.759439571269944)">
e
</text>
<text transform="rotate(-387.0989010989011) translate(0,49.759439571269944)">
a
</text>
<text transform="rotate(-395.40659340659346) translate(0,49.759439571269944)">
c
</text>
<text transform="rotate(-402.13186813186815) translate(0,49.759439571269944)">
h
</text>
<use href="#sigil_send" transform="rotate(-377.3406593406594) translate(0,49.759439571269944) translate(-30.0, -30.0)"/>
<circle stroke-dasharray="37.41354575587668 382.0483840738701" transform="rotate(-325.18681318681325)rotate(-30.46153846153846)" r="66.75943957126995" start-angle="0" end-angle="0.5604233048711462"/>
<text transform="rotate(-415.1868131868132) translate(0,49.759439571269944)">
:
</text>
<text transform="rotate(-420.32967032967036) translate(0,49.759439571269944)">
e
</text>
<text transform="rotate(-427.05494505494505) translate(0,49.759439571269944)">
a
</text>
<text transform="rotate(-435.36263736263743) translate(0,49.759439571269944)">
c
</text>
<text transform="rotate(-442.0879120879121) translate(0,49.759439571269944)">
h
</text>
<circle cx="0" cy="66.75943957126995" r="2" transform="rotate(-430.4175824175825)"/>
<line x1="0" y1="66.75943957126995" x2="0" y2="122.75943957126995" transform="rotate(-430.4175824175825)"/>
<g class="ring spell block" transform="rotate(-430.4175824175825)translate(0,156.92147047128017)">
<text>
each
</text>
<path d="M1.9693564097887888e-15,-32.162030900010215 L1.9693564097887888e-15,-32.162030900010215 L18.904367446800823,26.01962957172045 L-30.5879090647408,-9.938614121715338 L30.587909064740796,-9.938614121715341 L-18.90436744680082,26.01962957172045 Z"/>
<circle r="32.162030900010215"/>
<circle r="62.162030900010215"/>
<g transform="rotate(-90)">
<line x1="0" y1="64.16203090001022" x2="0" y2="90.16203090001022" transform="rotate(-90)"/>
<circle stroke-dasharray="13.0071525261775 390.13477730356936" transform="rotate(0.0)rotate(-9.833729216152017)" r="64.16203090001022" start-angle="0" end-angle="0.2027235164430468"/>
<text transform="rotate(-90.0) translate(0,47.162030900010215)">
S
</text>
<use href="#sigil_begin" transform="rotate(-90.0) translate(0,47.162030900010215) translate(-30.0, -30.0)"/>
<circle stroke-dasharray="122.17147556796169 280.97045426178516" transform="rotate(-14.536817102137766)rotate(-107.31591448931117)" r="64.16203090001022" start-angle="0" end-angle="1.9041086114988017"/>
<text transform="rotate(-104.53681710213777) translate(0,47.162030900010215)">
(
</text>
<text transform="rotate(-110.09501187648456) translate(0,47.162030900010215)">
l
</text>
<text transform="rotate(-115.22565320665083) translate(0,47.162030900010215)">
v
</text>
<text transform="rotate(-124.63182897862234) translate(0,47.162030900010215)">
a
</text>
<text transform="rotate(-133.6104513064133) translate(0,47.162030900010215)">
r
</text>
<text transform="rotate(-140.02375296912115) translate(0,47.162030900010215)">
 
</text>
<text transform="rotate(-144.7268408551069) translate(0,47.162030900010215)">
:
</text>
<text transform="rotate(-150.2850356294537) translate(0,47.162030900010215)">
s
</text>
<text transform="rotate(-157.12589073634206) translate(0,47.162030900010215)">
t
</text>
<text transform="rotate(-163.9667458432304) translate(0,47.162030900010215)">
u
</text>
<text transform="rotate(-173.8004750593824) translate(0,47.162030900010215)">
d
</text>
<text transform="rotate(-183.2066508313539) translate(0,47.162030900010215)">
e
</text>
<text transform="rotate(-190.47505938242278) translate(0,47.162030900010215)">
n
</text>
<text transform="rotate(-200.30878859857478) translate(0,47.162030900010215)">
t
</text>
<text transform="rotate(-207.14964370546318) translate(0,47.162030900010215)">
)
</text>
<use href="#sigil_unknown" transform="rotate(-117.00712589073635) translate(0,47.162030900010215) translate(-30.0, -30.0)"/>
<circle stroke-dasharray="80.99545898202554 322.14647084772133" transform="rotate(-126.55581947743468)rotate(-70.54631828978621)" r="64.16203090001022" start-angle="0" end-angle="1.2623580931882976"/>
<text transform="rotate(-216.55581947743468) translate(0,47.162030900010215)">
i
</text>
<text transform="rotate(-221.68646080760095) translate(0,47.162030900010215)">
n
</text>
<text transform="rotate(-231.52019002375295) translate(0,47.162030900010215)">
t
</text>
<text transform="rotate(-238.36104513064132) translate(0,47.162030900010215)">
r
</text>
<text transform="rotate(-244.77434679334917) translate(0,47.162030900010215)">
o
</text>
<text transform="rotate(-253.32541567695966) translate(0,47.162030900010215)">
d
</text>
<text transform="rotate(-262.7315914489311) translate(0,47.162030900010215)">
u
</text>
<text transform="rotate(-272.56532066508316) translate(0,47.162030900010215)">
c
</text>
<text transform="rotate(-279.833729216152) translate(0,47.162030900010215)">
e
</text>
<use href="#sigil_send" transform="rotate(-223.68171021377674) translate(0,47.162030900010215) translate(-30.0, -30.0)"/>
<circle stroke-dasharray="122.17147556796169 280.97045426178516" transform="rotate(-201.80522565320666)rotate(-107.31591448931117)" r="64.16203090001022" start-angle="0" end-angle="1.9041086114988017"/>
<text transform="rotate(-291.80522565320666) translate(0,47.162030900010215)">
(
</text>
<text transform="rotate(-297.3634204275535) translate(0,47.162030900010215)">
l
</text>
<text transform="rotate(-302.4940617577197) translate(0,47.162030900010215)">
v
</text>
<text transform="rotate(-311.90023752969125) translate(0,47.162030900010215)">
a
</text>
<text transform="rotate(-320.8788598574822) translate(0,47.162030900010215)">
r
</text>
<text transform="rotate(-327.29216152019) translate(0,47.162030900010215)">
 
</text>
<text transform="rotate(-331.99524940617573) translate(0,47.162030900010215)">
:
</text>
<text transform="rotate(-337.55344418052255) translate(0,47.162030900010215)">
s
</text>
<text transform="rotate(-344.39429928741094) translate(0,47.162030900010215)">
t
</text>
<text transform="rotate(-351.2351543942993) translate(0,47.162030900010215)">
u
</text>
<text transform="rotate(-361.06888361045134) translate(0,47.162030900010215)">
d
</text>
<text transform="rotate(-370.4750593824228) translate(0,47.162030900010215)">
e
</text>
<text transform="rotate(-377.7434679334916) translate(0,47.162030900010215)">
n
</text>
<text transform="rotate(-387.57719714964367) translate(0,47.162030900010215)">
t
</text>
<text transform="rotate(-394.41805225653206) translate(0,47.162030900010215)">
)
</text>
<use href="#sigil_unknown" transform="rotate(-304.27553444180523) translate(0,47.162030900010215) translate(-30.0, -30.0)"/>
<circle stroke-dasharray="48.43767842570394 354.7042514040429" transform="rotate(-313.8242280285035)rotate(-41.47268408551069)" r="64.16203090001022" start-angle="0" end-angle="0.754927450803248"/>
<text transform="rotate(-403.8242280285035) translate(0,47.162030900010215)">
s
</text>
<text transform="rotate(-410.6650831353919) translate(0,47.162030900010215)">
t
</text>
<text transform="rotate(-417.50593824228037) translate(0,47.162030900010215)">
u
</text>
<text transform="rotate(-427.33966745843225) translate(0,47.162030900010215)">
d
</text>
<text transform="rotate(-436.7458432304037) translate(0,47.162030900010215)">
y
</text>
<use href="#sigil_send" transform="rotate(-407.38717339667454) translate(0,47.162030900010215) translate(-30.0, -30.0)"/>
</g>
</g>
</g>
</g>
</g>
</g>
</svg>
