<svg viewBox="-187.44929946408746 -54.0 369.32817591995854 356.1070456591576" font-family="Z003" width="100%" height="100%" xmlns="http://www.w3.org/2000/svg">

<style>
* {
  stroke-width: 0.75;
  --color: #9B111E;
}

text {
  font-family: Z003;
  font-size: 10.0px;
  text-anchor: middle;
  dominant-baseline: middle;
  fill: var(--color);
}

line,
circle,
polygon,
path {
  fill: none;
  stroke: var(--color);
}

path {
  stroke: yellow;
}

.debug {
  fill: none;
  stroke: yellow;
}

text.debug {
  fill: yellow;
  font-family: sans-serif;
  font-size: 10px;
  text-anchor: start;
  dominant-baseline: hanging;
}

</style>
<defs>
<symbol id="sigil_begin" viewBox="-30.0 -30.0 60.0 60.0" width="60.0" height="60.0">
<polygon points="1.4695761589768238e-15,-24.0 14.106846055019355,19.41640786499874 -22.825356391083687,-7.416407864998735 22.825356391083684,-7.416407864998737 -14.106846055019354,19.41640786499874"/>
</symbol>
<symbol id="sigil_true" viewBox="-30.0 -30.0 60.0 60.0" width="60.0" height="60.0">
<text>
T
</text>
<polygon points="9.18485099360515e-16 -15.0 12.99038105676658 7.499999999999997 -12.990381056766577 7.500000000000005" transform="translate(0,1.5)"/>
</symbol>
<symbol id="sigil_false" viewBox="-30.0 -30.0 60.0 60.0" width="60.0" height="60.0">
<text>
F
</text>
<polygon points="9.18485099360515e-16 -15.0 12.99038105676658 7.499999999999997 -12.990381056766577 7.500000000000005" transform="translate(0,1.5)"/>
</symbol>
<symbol id="sigil_nil" viewBox="-30.0 -30.0 60.0 60.0" width="60.0" height="60.0">
<text>
N
</text>
<polygon points="9.18485099360515e-16 -15.0 12.99038105676658 7.499999999999997 -12.990381056766577 7.500000000000005" transform="translate(0,1.5)"/>
</symbol>
<symbol id="sigil_unknown" viewBox="-30.0 -30.0 60.0 60.0" width="60.0" height="60.0">
<circle r="15.0"/>
</symbol>
</defs>
<g class="ring library " transform="">
<text>
module
</text>
<circle r="14.0"/>
<circle r="44.0"/>
<g transform="rotate(-90)">
<circle stroke-dasharray="48.17108735504349 240.85543677521747" transform="rotate(0)rotate(-29.999999999999996)" r="46.0"/>
<text transform="rotate(-90.0) translate(0,29.0)">
L
</text>
<use href="#sigil_begin" transform="rotate(-90.0) translate(0,29.0) translate(-30.0, -30.0)"/>
<circle stroke-dasharray="48.17108735504349 240.85543677521747" transform="rotate(-180)rotate(-29.999999999999996)" r="46.0"/>
<text transform="rotate(-270.0) translate(0,29.0)">
G
</text>
<g class="ring grimoire module" transform="rotate(-270.0)translate(0,118.0)">
<text>
School
</text>
<polygon points="8.572527594031472e-16,-14.0 14.0,0.0 8.572527594031472e-16,14.0 -14.0,1.7145055188062944e-15"/>
<circle r="14.0"/>
<circle r="44.0"/>
<g transform="rotate(-90)">
<line x1="0" y1="46.0" x2="0" y2="72.0" transform="rotate(-90)"/>
<circle stroke-dasharray="24.085543677521745 264.9409804527392" transform="rotate(0)rotate(-14.999999999999998)" r="46.0"/>
<text transform="rotate(-90.0) translate(0,29.0)">
G
</text>
<use href="#sigil_begin" transform="rotate(-90.0) translate(0,29.0) translate(-30.0, -30.0)"/>
<circle stroke-dasharray="24.085543677521745 264.9409804527392" transform="rotate(-90)rotate(-14.999999999999998)" r="46.0"/>
<text transform="rotate(-180.0) translate(0,29.0)">
G
</text>
<g class="ring grimoire class" transform="rotate(-180.0)translate(0,125.72464973204372)">
<text>
Person
</text>
<polygon points="1.330251137847237e-15,-21.724649732043712 16.985015106102423,13.545097556882322 -21.17996740614279,4.834189348248165 9.425972256758385,-19.573233074656017 9.425972256758385,19.573233074656017 -21.179967406142794,-4.834189348248141 16.985015106102423,-13.545097556882322 1.330251137847237e-15,21.724649732043712 -16.985015106102423,-13.54509755688232 21.17996740614279,-4.834189348248162 -9.425972256758381,19.573233074656017 -9.425972256758369,-19.573233074656024 21.17996740614279,4.834189348248162 -16.985015106102423,13.545097556882324"/>
<circle r="21.724649732043712"/>
<circle r="51.724649732043716"/>
<g transform="rotate(-90)">
<line x1="0" y1="53.724649732043716" x2="0" y2="79.72464973204372" transform="rotate(-90)"/>
<circle stroke-dasharray="8.655434098198635 328.90649573154815" transform="rotate(0)rotate(-4.615384615384616)" r="53.724649732043716"/>
<text transform="rotate(-90.0) translate(0,36.724649732043716)">
G
</text>
<use href="#sigil_begin" transform="rotate(-90.0) translate(0,36.724649732043716) translate(-30.0, -30.0)"/>
<circle stroke-dasharray="8.655434098198635 328.90649573154815" transform="rotate(-28)rotate(-4.615384615384616)" r="53.724649732043716"/>
<text transform="rotate(-117.6923076923077) translate(0,36.724649732043716)">
S
</text>
<g class="ring spell def" transform="rotate(-117.6923076923077)translate(0,132.7246497320437)">
<text>
initialize
</text>
<circle r="21.0"/>
<circle r="51.0"/>
<g transform="rotate(-90)">
<line x1="0" y1="53.0" x2="0" y2="79.0" transform="rotate(-90)"/>
<circle stroke-dasharray="111.00294042683934 222.00588085367872" transform="rotate(0)rotate(-59.99999999999999)" r="53.0"/>
<text transform="rotate(-90.0) translate(0,36.0)">
S
</text>
<use href="#sigil_begin" transform="rotate(-90.0) translate(0,36.0) translate(-30.0, -30.0)"/>
</g>
</g>
<circle stroke-dasharray="0.0 337.56192982974676" transform="rotate(-56)rotate(4.615384615384616)" r="53.724649732043716"/>
<use href="#sigil_unknown" transform="rotate(-145.3846153846154) translate(0,36.724649732043716) translate(-30.0, -30.0)"/>
<circle stroke-dasharray="112.52064327658228 225.04128655316447" transform="rotate(-74)rotate(-115.3846153846154)" r="53.724649732043716"/>
<text transform="rotate(-163.84615384615387) translate(0,36.724649732043716)">
a
</text>
<text transform="rotate(-173.0769230769231) translate(0,36.724649732043716)">
t
</text>
<text transform="rotate(-182.30769230769232) translate(0,36.724649732043716)">
t
</text>
<text transform="rotate(-191.53846153846152) translate(0,36.724649732043716)">
r
</text>
<text transform="rotate(-200.76923076923077) translate(0,36.724649732043716)">
_
</text>
<text transform="rotate(-210.0) translate(0,36.724649732043716)">
a
</text>
<text transform="rotate(-219.23076923076923) translate(0,36.724649732043716)">
c
</text>
<text transform="rotate(-228.46153846153845) translate(0,36.724649732043716)">
c
</text>
<text transform="rotate(-237.6923076923077) translate(0,36.724649732043716)">
e
</text>
<text transform="rotate(-246.92307692307693) translate(0,36.724649732043716)">
s
</text>
<text transform="rotate(-256.1538461538462) translate(0,36.724649732043716)">
s
</text>
<text transform="rotate(-265.38461538461536) translate(0,36.724649732043716)">
o
</text>
<text transform="rotate(-274.61538461538464) translate(0,36.724649732043716)">
r
</text>
<use href="#sigil_unknown" transform="rotate(-219.23076923076923) translate(0,36.724649732043716) translate(-30.0, -30.0)"/>
<circle stroke-dasharray="43.27717049099317 294.2847593387536" transform="rotate(-213)rotate(-41.53846153846155)" r="53.724649732043716"/>
<text transform="rotate(-302.30769230769226) translate(0,36.724649732043716)">
:
</text>
<text transform="rotate(-311.53846153846155) translate(0,36.724649732043716)">
n
</text>
<text transform="rotate(-320.76923076923083) translate(0,36.724649732043716)">
a
</text>
<text transform="rotate(-330.0) translate(0,36.724649732043716)">
m
</text>
<text transform="rotate(-339.2307692307692) translate(0,36.724649732043716)">
e
</text>
<circle stroke-dasharray="34.62173639279454 302.9401934369522" transform="rotate(-277)rotate(-32.30769230769231)" r="53.724649732043716"/>
<text transform="rotate(-366.9230769230769) translate(0,36.724649732043716)">
:
</text>
<text transform="rotate(-376.15384615384613) translate(0,36.724649732043716)">
a
</text>
<text transform="rotate(-385.3846153846154) translate(0,36.724649732043716)">
g
</text>
<text transform="rotate(-394.6153846153846) translate(0,36.724649732043716)">
e
</text>
<circle stroke-dasharray="8.655434098198635 328.90649573154815" transform="rotate(-333)rotate(-4.615384615384616)" r="53.724649732043716"/>
<text transform="rotate(-422.3076923076924) translate(0,36.724649732043716)">
S
</text>
<g class="ring spell def" transform="rotate(-422.3076923076924)translate(0,130.9746497320437)">
<text>
introduce
</text>
<circle r="19.25"/>
<circle r="49.25"/>
<g transform="rotate(-90)">
<line x1="0" y1="51.25" x2="0" y2="77.25" transform="rotate(-90)"/>
<circle stroke-dasharray="29.27393154481398 292.7393154481398" transform="rotate(0)rotate(-16.363636363636363)" r="51.25"/>
<text transform="rotate(-90.0) translate(0,34.25)">
S
</text>
<use href="#sigil_begin" transform="rotate(-90.0) translate(0,34.25) translate(-30.0, -30.0)"/>
<circle stroke-dasharray="0.0 322.0132469929538" transform="rotate(-99)rotate(16.363636363636363)" r="51.25"/>
<use href="#sigil_unknown" transform="rotate(-188.1818181818182) translate(0,34.25) translate(-30.0, -30.0)"/>
<circle stroke-dasharray="117.09572617925592 204.91752081369788" transform="rotate(-164)rotate(-114.54545454545455)" r="51.25"/>
<text transform="rotate(-253.63636363636365) translate(0,34.25)">
p
</text>
<text transform="rotate(-286.3636363636364) translate(0,34.25)">
u
</text>
<text transform="rotate(-319.0909090909091) translate(0,34.25)">
t
</text>
<text transform="rotate(-351.8181818181818) translate(0,34.25)">
s
</text>
<use href="#sigil_unknown" transform="rotate(-319.0909090909091) translate(0,34.25) translate(-30.0, -30.0)"/>
</g>
</g>
</g>
</g>
<circle stroke-dasharray="24.085543677521745 264.9409804527392" transform="rotate(-180)rotate(-14.999999999999998)" r="46.0"/>
<text transform="rotate(-270.0) translate(0,29.0)">
G
</text>
<g class="ring grimoire class" transform="rotate(-270.0)translate(0,124.05352282957881)">
<text>
Teacher
</text>
<polygon points="1.2279241272436033e-15,-20.053522829578814 17.366860205786452,10.026761414789403 -17.36686020578645,10.026761414789414"/>
<circle r="20.053522829578814"/>
<circle r="50.05352282957881"/>
<g transform="rotate(-90)">
<line x1="0" y1="52.05352282957881" x2="0" y2="78.05352282957881" transform="rotate(-90)"/>
<circle stroke-dasharray="9.085053606381853 317.9768762233649" transform="rotate(0)rotate(-5.0)" r="52.05352282957881"/>
<text transform="rotate(-90.0) translate(0,35.05352282957881)">
G
</text>
<use href="#sigil_begin" transform="rotate(-90.0) translate(0,35.05352282957881) translate(-30.0, -30.0)"/>
<circle stroke-dasharray="9.085053606381853 317.9768762233649" transform="rotate(-30)rotate(-5.0)" r="52.05352282957881"/>
<text transform="rotate(-120.0) translate(0,35.05352282957881)">
S
</text>
<g class="ring spell def" transform="rotate(-120.0)translate(0,131.0535228295788)">
<text>
initialize
</text>
<circle r="21.0"/>
<circle r="51.0"/>
<g transform="rotate(-90)">
<line x1="0" y1="53.0" x2="0" y2="79.0" transform="rotate(-90)"/>
<circle stroke-dasharray="111.00294042683934 222.00588085367872" transform="rotate(0)rotate(-59.99999999999999)" r="53.0"/>
<text transform="rotate(-90.0) translate(0,36.0)">
S
</text>
<use href="#sigil_begin" transform="rotate(-90.0) translate(0,36.0) translate(-30.0, -30.0)"/>
</g>
</g>
<circle stroke-dasharray="0.0 327.06192982974676" transform="rotate(-60)rotate(5.0)" r="52.05352282957881"/>
<use href="#sigil_unknown" transform="rotate(-150.0) translate(0,35.05352282957881) translate(-30.0, -30.0)"/>
<circle stroke-dasharray="118.10569688296411 208.95623294678265" transform="rotate(-80)rotate(-125.00000000000001)" r="52.05352282957881"/>
<text transform="rotate(-170.0) translate(0,35.05352282957881)">
a
</text>
<text transform="rotate(-180.0) translate(0,35.05352282957881)">
t
</text>
<text transform="rotate(-190.0) translate(0,35.05352282957881)">
t
</text>
<text transform="rotate(-200.0) translate(0,35.05352282957881)">
r
</text>
<text transform="rotate(-210.0) translate(0,35.05352282957881)">
_
</text>
<text transform="rotate(-220.0) translate(0,35.05352282957881)">
a
</text>
<text transform="rotate(-230.0) translate(0,35.05352282957881)">
c
</text>
<text transform="rotate(-239.99999999999997) translate(0,35.05352282957881)">
c
</text>
<text transform="rotate(-250.0) translate(0,35.05352282957881)">
e
</text>
<text transform="rotate(-260.0) translate(0,35.05352282957881)">
s
</text>
<text transform="rotate(-270.0) translate(0,35.05352282957881)">
s
</text>
<text transform="rotate(-280.0) translate(0,35.05352282957881)">
o
</text>
<text transform="rotate(-290.0) translate(0,35.05352282957881)">
r
</text>
<use href="#sigil_unknown" transform="rotate(-230.0) translate(0,35.05352282957881) translate(-30.0, -30.0)"/>
<circle stroke-dasharray="72.68042885105483 254.38150097869192" transform="rotate(-230)rotate(-75.00000000000001)" r="52.05352282957881"/>
<text transform="rotate(-320.0) translate(0,35.05352282957881)">
:
</text>
<text transform="rotate(-330.0) translate(0,35.05352282957881)">
s
</text>
<text transform="rotate(-340.0) translate(0,35.05352282957881)">
u
</text>
<text transform="rotate(-350.0) translate(0,35.05352282957881)">
b
</text>
<text transform="rotate(-360.0) translate(0,35.05352282957881)">
j
</text>
<text transform="rotate(-370.0) translate(0,35.05352282957881)">
e
</text>
<text transform="rotate(-380.00000000000006) translate(0,35.05352282957881)">
c
</text>
<text transform="rotate(-389.99999999999994) translate(0,35.05352282957881)">
t
</text>
<circle stroke-dasharray="9.085053606381853 317.9768762233649" transform="rotate(-330)rotate(-5.0)" r="52.05352282957881"/>
<text transform="rotate(-420.00000000000006) translate(0,35.05352282957881)">
S
</text>
<g class="ring spell def" transform="rotate(-420.00000000000006)translate(0,122.30352282957881)">
<text>
teach
</text>
<circle r="12.25"/>
<circle r="42.25"/>
<g transform="rotate(-90)">
<line x1="0" y1="44.25" x2="0" y2="70.25" transform="rotate(-90)"/>
<circle stroke-dasharray="25.27554089479061 252.75540894790612" transform="rotate(0)rotate(-16.363636363636363)" r="44.25"/>
<text transform="rotate(-90.0) translate(0,27.25)">
S
</text>
<use href="#sigil_begin" transform="rotate(-90.0) translate(0,27.25) translate(-30.0, -30.0)"/>
<circle stroke-dasharray="0.0 278.0309498426967" transform="rotate(-99)rotate(16.363636363636363)" r="44.25"/>
<use href="#sigil_unknown" transform="rotate(-188.1818181818182) translate(0,27.25) translate(-30.0, -30.0)"/>
<circle stroke-dasharray="101.10216357916244 176.92878626353428" transform="rotate(-164)rotate(-114.54545454545455)" r="44.25"/>
<text transform="rotate(-253.63636363636365) translate(0,27.25)">
p
</text>
<text transform="rotate(-286.3636363636364) translate(0,27.25)">
u
</text>
<text transform="rotate(-319.0909090909091) translate(0,27.25)">
t
</text>
<text transform="rotate(-351.8181818181818) translate(0,27.25)">
s
</text>
<use href="#sigil_unknown" transform="rotate(-319.0909090909091) translate(0,27.25) translate(-30.0, -30.0)"/>
</g>
</g>
</g>
</g>
<circle stroke-dasharray="24.085543677521745 264.9409804527392" transform="rotate(-270)rotate(-14.999999999999998)" r="46.0"/>
<text transform="rotate(-360.0) translate(0,29.0)">
G
</text>
<g class="ring grimoire class" transform="rotate(-360.0)translate(0,122.93943822793554)">
<text>
Student
</text>
<polygon points="1.1597061201745143e-15,-18.939438227935547 16.402034638798316,9.46971911396777 -16.402034638798312,9.46971911396778"/>
<circle r="18.939438227935547"/>
<circle r="48.93943822793555"/>
<g transform="rotate(-90)">
<line x1="0" y1="50.93943822793555" x2="0" y2="76.93943822793554" transform="rotate(-90)"/>
<circle stroke-dasharray="9.413586171463141 310.64834365828364" transform="rotate(0)rotate(-5.294117647058823)" r="50.93943822793555"/>
<text transform="rotate(-90.0) translate(0,33.93943822793555)">
G
</text>
<use href="#sigil_begin" transform="rotate(-90.0) translate(0,33.93943822793555) translate(-30.0, -30.0)"/>
<circle stroke-dasharray="9.413586171463141 310.64834365828364" transform="rotate(-32)rotate(-5.294117647058823)" r="50.93943822793555"/>
<text transform="rotate(-121.76470588235294) translate(0,33.93943822793555)">
S
</text>
<g class="ring spell def" transform="rotate(-121.76470588235294)translate(0,129.93943822793554)">
<text>
initialize
</text>
<circle r="21.0"/>
<circle r="51.0"/>
<g transform="rotate(-90)">
<line x1="0" y1="53.0" x2="0" y2="79.0" transform="rotate(-90)"/>
<circle stroke-dasharray="111.00294042683934 222.00588085367872" transform="rotate(0)rotate(-59.99999999999999)" r="53.0"/>
<text transform="rotate(-90.0) translate(0,36.0)">
S
</text>
<use href="#sigil_begin" transform="rotate(-90.0) translate(0,36.0) translate(-30.0, -30.0)"/>
</g>
</g>
<circle stroke-dasharray="0.0 320.06192982974676" transform="rotate(-64)rotate(5.294117647058823)" r="50.93943822793555"/>
<use href="#sigil_unknown" transform="rotate(-153.52941176470588) translate(0,33.93943822793555) translate(-30.0, -30.0)"/>
<circle stroke-dasharray="122.37662022902084 197.68530960072593" transform="rotate(-85)rotate(-132.35294117647058)" r="50.93943822793555"/>
<text transform="rotate(-174.70588235294116) translate(0,33.93943822793555)">
a
</text>
<text transform="rotate(-185.2941176470588) translate(0,33.93943822793555)">
t
</text>
<text transform="rotate(-195.88235294117646) translate(0,33.93943822793555)">
t
</text>
<text transform="rotate(-206.4705882352941) translate(0,33.93943822793555)">
r
</text>
<text transform="rotate(-217.05882352941177) translate(0,33.93943822793555)">
_
</text>
<text transform="rotate(-227.64705882352945) translate(0,33.93943822793555)">
a
</text>
<text transform="rotate(-238.23529411764704) translate(0,33.93943822793555)">
c
</text>
<text transform="rotate(-248.8235294117647) translate(0,33.93943822793555)">
c
</text>
<text transform="rotate(-259.4117647058823) translate(0,33.93943822793555)">
e
</text>
<text transform="rotate(-270.0) translate(0,33.93943822793555)">
s
</text>
<text transform="rotate(-280.5882352941176) translate(0,33.93943822793555)">
s
</text>
<text transform="rotate(-291.17647058823525) translate(0,33.93943822793555)">
o
</text>
<text transform="rotate(-301.7647058823529) translate(0,33.93943822793555)">
r
</text>
<use href="#sigil_unknown" transform="rotate(-238.23529411764704) translate(0,33.93943822793555) translate(-30.0, -30.0)"/>
<circle stroke-dasharray="56.48151702877884 263.5804128009679" transform="rotate(-244)rotate(-58.23529411764706)" r="50.93943822793555"/>
<text transform="rotate(-333.52941176470586) translate(0,33.93943822793555)">
:
</text>
<text transform="rotate(-344.11764705882354) translate(0,33.93943822793555)">
g
</text>
<text transform="rotate(-354.70588235294116) translate(0,33.93943822793555)">
r
</text>
<text transform="rotate(-365.2941176470589) translate(0,33.93943822793555)">
a
</text>
<text transform="rotate(-375.88235294117646) translate(0,33.93943822793555)">
d
</text>
<text transform="rotate(-386.4705882352941) translate(0,33.93943822793555)">
e
</text>
<circle stroke-dasharray="9.413586171463141 310.64834365828364" transform="rotate(-329)rotate(-5.294117647058823)" r="50.93943822793555"/>
<text transform="rotate(-418.2352941176471) translate(0,33.93943822793555)">
S
</text>
<g class="ring spell def" transform="rotate(-418.2352941176471)translate(0,121.18943822793554)">
<text>
study
</text>
<circle r="12.25"/>
<circle r="42.25"/>
<g transform="rotate(-90)">
<line x1="0" y1="44.25" x2="0" y2="70.25" transform="rotate(-90)"/>
<circle stroke-dasharray="25.27554089479061 252.75540894790612" transform="rotate(0)rotate(-16.363636363636363)" r="44.25"/>
<text transform="rotate(-90.0) translate(0,27.25)">
S
</text>
<use href="#sigil_begin" transform="rotate(-90.0) translate(0,27.25) translate(-30.0, -30.0)"/>
<circle stroke-dasharray="0.0 278.0309498426967" transform="rotate(-99)rotate(16.363636363636363)" r="44.25"/>
<use href="#sigil_unknown" transform="rotate(-188.1818181818182) translate(0,27.25) translate(-30.0, -30.0)"/>
<circle stroke-dasharray="101.10216357916244 176.92878626353428" transform="rotate(-164)rotate(-114.54545454545455)" r="44.25"/>
<text transform="rotate(-253.63636363636365) translate(0,27.25)">
p
</text>
<text transform="rotate(-286.3636363636364) translate(0,27.25)">
u
</text>
<text transform="rotate(-319.0909090909091) translate(0,27.25)">
t
</text>
<text transform="rotate(-351.8181818181818) translate(0,27.25)">
s
</text>
<use href="#sigil_unknown" transform="rotate(-319.0909090909091) translate(0,27.25) translate(-30.0, -30.0)"/>
</g>
</g>
</g>
</g>
</g>
</g>
</g>
</g>
</svg>
