<svg viewBox="-55.05352282957881 -55.05352282957881 110.10704565915762 110.10704565915762" font-family="Z003" width="100%" height="100%" xmlns="http://www.w3.org/2000/svg">

<style>
* {
  stroke-width: 0.75;
  --color: #9B111E;
}

text {
  font-family: Z003;
  font-size: 10.0px;
  text-anchor: middle;
  dominant-baseline: middle;
  fill: var(--color);
}

line,
circle,
polygon,
path {
  fill: none;
  stroke: var(--color);
}

.debug {
  fill: none;
  stroke: yellow;
}

text.debug {
  fill: yellow;
  font-family: sans-serif;
  font-size: 10px;
  text-anchor: start;
  dominant-baseline: hanging;
}

</style>
<defs>
<symbol id="sigil_begin" viewBox="-25.0 -25.0 50.0 50.0" width="50.0" height="50.0">
<path d="M1.2246467991473533e-15,-20.0 L1.2246467991473533e-15,-20.0 L11.755705045849464,16.18033988749895 L-19.021130325903073,-6.1803398874989455 L19.02113032590307,-6.180339887498948 L-11.75570504584946,16.18033988749895 Z"/>
</symbol>
<symbol id="sigil_true" viewBox="-25.0 -25.0 50.0 50.0" width="50.0" height="50.0">
<text>
T
</text>
<g transform="translate(0,1.5)">
<path d="M7.654042494670958e-16,-12.5 L7.654042494670958e-16,-12.5 L10.825317547305485,6.249999999999998 L-10.825317547305481,6.250000000000004 Z"/>
</g>
</symbol>
<symbol id="sigil_false" viewBox="-25.0 -25.0 50.0 50.0" width="50.0" height="50.0">
<text>
F
</text>
<g transform="translate(0,1.5)">
<path d="M7.654042494670958e-16,-12.5 L7.654042494670958e-16,-12.5 L10.825317547305485,6.249999999999998 L-10.825317547305481,6.250000000000004 Z"/>
</g>
</symbol>
<symbol id="sigil_nil" viewBox="-25.0 -25.0 50.0 50.0" width="50.0" height="50.0">
<text>
N
</text>
<g transform="translate(0,1.5)">
<path d="M7.654042494670958e-16,-12.5 L7.654042494670958e-16,-12.5 L10.825317547305485,6.249999999999998 L-10.825317547305481,6.250000000000004 Z"/>
</g>
</symbol>
<symbol id="sigil_unknown" viewBox="-25.0 -25.0 50.0 50.0" width="50.0" height="50.0">
<circle r="12.5"/>
</symbol>
</defs>
<g class="ring library " transform="">
<text>
script
</text>
<circle r="20.053522829578814"/>
<circle r="45.05352282957881"/>
<g transform="rotate(-90)">
<circle stroke-dasharray="16.42477796076938 279.2212253330794" transform="rotate(0)rotate(-10.0)" r="47.05352282957881"/>
<text transform="rotate(-90.0) translate(0,32.55352282957881)">
L
</text>
<use href="#sigil_begin" transform="rotate(-90.0) translate(0,32.55352282957881) translate(-25.0, -25.0)"/>
<circle stroke-dasharray="8.21238898038469 287.43361431346415" transform="rotate(-30)rotate(0.0)" r="47.05352282957881"/>
<use href="#sigil_unknown" transform="rotate(-120.0) translate(0,32.55352282957881) translate(-25.0, -25.0)"/>
<circle stroke-dasharray="41.061944901923454 254.58405839192537" transform="rotate(-50)rotate(-40.0)" r="47.05352282957881"/>
<text transform="rotate(-140.0) translate(0,32.55352282957881)">
p
</text>
<text transform="rotate(-150.0) translate(0,32.55352282957881)">
u
</text>
<text transform="rotate(-160.0) translate(0,32.55352282957881)">
t
</text>
<text transform="rotate(-170.0) translate(0,32.55352282957881)">
s
</text>
<use href="#sigil_unknown" transform="rotate(-160.0) translate(0,32.55352282957881) translate(-25.0, -25.0)"/>
<circle stroke-dasharray="131.39822368615503 164.2477796076938" transform="rotate(-110)rotate(-150.00000000000003)" r="47.05352282957881"/>
<circle stroke-dasharray="94.81489286485113 148.99483164476607" transform="rotate(-110)rotate(-140.0)" r="38.80352282957881"/>
<circle stroke-dasharray="64.27163095495038 100.99827721492204" transform="rotate(-110)rotate(-140.0)" r="26.303522829578814"/>
<circle stroke-dasharray="19.634954084936208 19.634954084936208" transform="rotate(-200.0) translate(0,32.55352282957881) rotate(90)" r="6.25"/>
<circle stroke-dasharray="19.634954084936208 19.634954084936208" transform="rotate(-340.0) translate(0,32.55352282957881) rotate(-90)" r="6.25"/>
<text transform="rotate(-200.0) translate(0,32.55352282957881)">
"
</text>
<text transform="rotate(-210.0) translate(0,32.55352282957881)">
H
</text>
<text transform="rotate(-220.0) translate(0,32.55352282957881)">
e
</text>
<text transform="rotate(-230.0) translate(0,32.55352282957881)">
l
</text>
<text transform="rotate(-239.99999999999997) translate(0,32.55352282957881)">
l
</text>
<text transform="rotate(-250.0) translate(0,32.55352282957881)">
o
</text>
<text transform="rotate(-260.0) translate(0,32.55352282957881)">
,
</text>
<text transform="rotate(-270.0) translate(0,32.55352282957881)">
 
</text>
<text transform="rotate(-280.0) translate(0,32.55352282957881)">
W
</text>
<text transform="rotate(-290.0) translate(0,32.55352282957881)">
o
</text>
<text transform="rotate(-300.0) translate(0,32.55352282957881)">
r
</text>
<text transform="rotate(-310.0) translate(0,32.55352282957881)">
l
</text>
<text transform="rotate(-320.0) translate(0,32.55352282957881)">
d
</text>
<text transform="rotate(-330.0) translate(0,32.55352282957881)">
!
</text>
<text transform="rotate(-340.0) translate(0,32.55352282957881)">
"
</text>
<circle stroke-dasharray="8.21238898038469 287.43361431346415" transform="rotate(-280)rotate(0.0)" r="47.05352282957881"/>
<use href="#sigil_unknown" transform="rotate(-370.0) translate(0,32.55352282957881) translate(-25.0, -25.0)"/>
<circle stroke-dasharray="41.061944901923454 254.58405839192537" transform="rotate(-300)rotate(-40.0)" r="47.05352282957881"/>
<text transform="rotate(-389.99999999999994) translate(0,32.55352282957881)">
p
</text>
<text transform="rotate(-400.0) translate(0,32.55352282957881)">
u
</text>
<text transform="rotate(-410.0) translate(0,32.55352282957881)">
t
</text>
<text transform="rotate(-420.00000000000006) translate(0,32.55352282957881)">
s
</text>
<use href="#sigil_unknown" transform="rotate(-410.0) translate(0,32.55352282957881) translate(-25.0, -25.0)"/>
</g>
</g>
</svg>
