<svg viewBox="-60.05352282957881 -60.05352282957881 120.10704565915762 120.10704565915762" font-family="Z003" width="100%" height="100%" xmlns="http://www.w3.org/2000/svg">

<style>
* {
  stroke-width: 0.75;
  --color: #9B111E;
}

text {
  font-family: Z003;
  font-size: 10.0px;
  text-anchor: middle;
  dominant-baseline: middle;
  fill: var(--color);
}

line,
circle,
polygon,
path {
  fill: none;
  stroke: var(--color);
}

path {
  stroke: yellow;
}

.debug {
  fill: none;
  stroke: yellow;
}

text.debug {
  fill: yellow;
  font-family: sans-serif;
  font-size: 10px;
  text-anchor: start;
  dominant-baseline: hanging;
}

</style>
<defs>
<symbol id="sigil_begin" viewBox="-30.0 -30.0 60.0 60.0" width="60.0" height="60.0">
<polygon points="1.4695761589768238e-15,-24.0 14.106846055019355,19.41640786499874 -22.825356391083687,-7.416407864998735 22.825356391083684,-7.416407864998737 -14.106846055019354,19.41640786499874"/>
</symbol>
<symbol id="sigil_true" viewBox="-30.0 -30.0 60.0 60.0" width="60.0" height="60.0">
<text>
T
</text>
<polygon points="9.18485099360515e-16 -15.0 12.99038105676658 7.499999999999997 -12.990381056766577 7.500000000000005" transform="translate(0,1.5)"/>
</symbol>
<symbol id="sigil_false" viewBox="-30.0 -30.0 60.0 60.0" width="60.0" height="60.0">
<text>
F
</text>
<polygon points="9.18485099360515e-16 -15.0 12.99038105676658 7.499999999999997 -12.990381056766577 7.500000000000005" transform="translate(0,1.5)"/>
</symbol>
<symbol id="sigil_nil" viewBox="-30.0 -30.0 60.0 60.0" width="60.0" height="60.0">
<text>
N
</text>
<polygon points="9.18485099360515e-16 -15.0 12.99038105676658 7.499999999999997 -12.990381056766577 7.500000000000005" transform="translate(0,1.5)"/>
</symbol>
<symbol id="sigil_unknown" viewBox="-30.0 -30.0 60.0 60.0" width="60.0" height="60.0">
<circle r="15.0"/>
</symbol>
</defs>
<g class="ring library " transform="">
<text>
script
</text>
<circle r="20.053522829578814"/>
<circle r="50.05352282957881"/>
<g transform="rotate(-90)">
<circle stroke-dasharray="9.085053606381853 317.9768762233649" transform="rotate(0)rotate(-5.0)" r="52.05352282957881"/>
<text transform="rotate(-90.0) translate(0,35.05352282957881)">
L
</text>
<use href="#sigil_begin" transform="rotate(-90.0) translate(0,35.05352282957881) translate(-30.0, -30.0)"/>
<circle stroke-dasharray="0.0 327.06192982974676" transform="rotate(-30)rotate(5.0)" r="52.05352282957881"/>
<use href="#sigil_unknown" transform="rotate(-120.0) translate(0,35.05352282957881) translate(-30.0, -30.0)"/>
<circle stroke-dasharray="36.340214425527414 290.72171540421937" transform="rotate(-50)rotate(-35.0)" r="52.05352282957881"/>
<text transform="rotate(-140.0) translate(0,35.05352282957881)">
p
</text>
<text transform="rotate(-150.0) translate(0,35.05352282957881)">
u
</text>
<text transform="rotate(-160.0) translate(0,35.05352282957881)">
t
</text>
<text transform="rotate(-170.0) translate(0,35.05352282957881)">
s
</text>
<use href="#sigil_unknown" transform="rotate(-160.0) translate(0,35.05352282957881) translate(-30.0, -30.0)"/>
<circle stroke-dasharray="136.2758040957278 190.78612573401895" transform="rotate(-110)rotate(-145.0)" r="52.05352282957881"/>
<circle stroke-dasharray="103.97787143782136 163.3937979737193" transform="rotate(-110)rotate(-140.0)" r="42.55352282957881"/>
<circle stroke-dasharray="67.32595714594046 105.79793265790644" transform="rotate(-110)rotate(-140.0)" r="27.553522829578814"/>
<circle stroke-dasharray="23.561944901923447 23.561944901923447" transform="rotate(-200.0) translate(0,35.05352282957881) rotate(90)" r="7.5"/>
<circle stroke-dasharray="23.561944901923447 23.561944901923447" transform="rotate(-340.0) translate(0,35.05352282957881) rotate(-90)" r="7.5"/>
<text transform="rotate(-200.0) translate(0,35.05352282957881)">
"
</text>
<text transform="rotate(-210.0) translate(0,35.05352282957881)">
H
</text>
<text transform="rotate(-220.0) translate(0,35.05352282957881)">
e
</text>
<text transform="rotate(-230.0) translate(0,35.05352282957881)">
l
</text>
<text transform="rotate(-239.99999999999997) translate(0,35.05352282957881)">
l
</text>
<text transform="rotate(-250.0) translate(0,35.05352282957881)">
o
</text>
<text transform="rotate(-260.0) translate(0,35.05352282957881)">
,
</text>
<text transform="rotate(-270.0) translate(0,35.05352282957881)">
 
</text>
<text transform="rotate(-280.0) translate(0,35.05352282957881)">
W
</text>
<text transform="rotate(-290.0) translate(0,35.05352282957881)">
o
</text>
<text transform="rotate(-300.0) translate(0,35.05352282957881)">
r
</text>
<text transform="rotate(-310.0) translate(0,35.05352282957881)">
l
</text>
<text transform="rotate(-320.0) translate(0,35.05352282957881)">
d
</text>
<text transform="rotate(-330.0) translate(0,35.05352282957881)">
!
</text>
<text transform="rotate(-340.0) translate(0,35.05352282957881)">
"
</text>
<circle stroke-dasharray="0.0 327.06192982974676" transform="rotate(-280)rotate(5.0)" r="52.05352282957881"/>
<use href="#sigil_unknown" transform="rotate(-370.0) translate(0,35.05352282957881) translate(-30.0, -30.0)"/>
<circle stroke-dasharray="36.340214425527414 290.72171540421937" transform="rotate(-300)rotate(-35.0)" r="52.05352282957881"/>
<text transform="rotate(-389.99999999999994) translate(0,35.05352282957881)">
p
</text>
<text transform="rotate(-400.0) translate(0,35.05352282957881)">
u
</text>
<text transform="rotate(-410.0) translate(0,35.05352282957881)">
t
</text>
<text transform="rotate(-420.00000000000006) translate(0,35.05352282957881)">
s
</text>
<use href="#sigil_unknown" transform="rotate(-410.0) translate(0,35.05352282957881) translate(-30.0, -30.0)"/>
</g>
</g>
</svg>
